<svg xmlns="http://www.w3.org/2000/svg" width="40" height="24" viewBox="0 0 40 24">
  <g id="apple" transform="translate(-82.8 -156)">
    <rect id="矩形_311" data-name="矩形 311" width="40" height="24" transform="translate(82.8 156)" fill="none"/>
    <path id="路径_704" data-name="路径 704" d="M106.851,168.721a2.789,2.789,0,0,0,1.667,2.558,7.074,7.074,0,0,1-.861,1.8c-.518.77-1.054,1.537-1.9,1.553s-1.1-.5-2.051-.5-1.249.486-2.036.518c-.816.032-1.439-.832-1.961-1.6-1.068-1.572-1.883-4.438-.788-6.374a3.034,3.034,0,0,1,2.57-1.586c.8-.015,1.561.55,2.051.55s1.411-.679,2.379-.58a2.887,2.887,0,0,1,2.272,1.253,2.866,2.866,0,0,0-1.342,2.409Zm-3.408-3.806a2.685,2.685,0,0,1,.659-1.958,2.768,2.768,0,0,1,1.831-.957,2.82,2.82,0,0,1-.646,2.019,2.293,2.293,0,0,1-1.843.9Z" transform="translate(-8.473 -1)" fill="#fff"/>
    <path id="路径_719" data-name="路径 719" d="M5.6-54.6v6.311H7.016v-2h.5c1.44,0,2.46-.68,2.46-2.233,0-1.416-.809-2.079-2.306-2.079Zm1.416,3.26v-2.209H7.6c.518,0,.882.348.882,1.108,0,.777-.364,1.1-.882,1.1Zm7.346.008c0-1.044-.712-1.65-1.869-1.65a1.817,1.817,0,0,0-1.95,1.432l1.173.218c.089-.518.3-.752.68-.752s.583.259.583.817v.275a3.894,3.894,0,0,0-.647-.057c-1.222,0-1.99.51-1.99,1.464,0,.866.583,1.375,1.537,1.375a1.434,1.434,0,0,0,1.294-.607c.113.348.356.526.882.526a1.911,1.911,0,0,0,.736-.129v-.971a.31.31,0,0,1-.113.008c-.21,0-.316-.138-.316-.429Zm-2.087,2.193a.493.493,0,0,1-.558-.477c0-.348.267-.55.688-.55a2.441,2.441,0,0,1,.574.065C12.979-49.43,12.744-49.139,12.275-49.139Zm5.8-3.762a32.971,32.971,0,0,0-1,3.511,26.409,26.409,0,0,0-.922-3.511H14.742l1.529,4.612h.3l-.146.421c-.129.38-.267.558-.461.558-.154,0-.259-.073-.388-.275l-.752.752a1.481,1.481,0,0,0,1.2.485c.93,0,1.319-.542,1.594-1.375L19.346-52.9Z" transform="translate(97.2 219.148)" fill="#fff"/>
  </g>
</svg>
