<svg xmlns="http://www.w3.org/2000/svg" width="40" height="24" viewBox="0 0 40 24">
  <g id="google" transform="translate(-129.6 -156)">
    <rect id="矩形_312" data-name="矩形 312" width="40" height="24" transform="translate(129.6 156)" fill="none"/>
    <path id="路径_705" data-name="路径 705" d="M156,168.108a6.958,6.958,0,0,0-.106-1.213h-5.772v2.3h3.306a2.758,2.758,0,0,1-1.222,1.814V172.5h1.973A5.766,5.766,0,0,0,156,168.108Z" transform="translate(-9.47)" fill="#5c95f4"/>
    <path id="路径_706" data-name="路径 706" d="M150.123,173.942a5.945,5.945,0,0,0,4.057-1.441l-1.973-1.493a3.741,3.741,0,0,1-2.084.57,3.627,3.627,0,0,1-2.107-.682,3.667,3.667,0,0,1-1.329-1.783h-2.033v1.539A6.141,6.141,0,0,0,150.123,173.942Z" transform="translate(-9.385)" fill="#51d574"/>
    <path id="路径_707" data-name="路径 707" d="M146.685,169.112a3.5,3.5,0,0,1,0-2.285v-1.538h-2.033a5.836,5.836,0,0,0,0,5.361Z" transform="translate(-9.302)" fill="#f8cb48"/>
    <path id="路径_708" data-name="路径 708" d="M150.123,164.364a3.372,3.372,0,0,1,2.348.9l1.747-1.7a5.961,5.961,0,0,0-4.1-1.554,6.138,6.138,0,0,0-5.469,3.29l2.033,1.538a3.667,3.667,0,0,1,1.329-1.783A3.627,3.627,0,0,1,150.123,164.364Z" transform="translate(-9.386)" fill="#fc6154"/>
    <path id="路径_718" data-name="路径 718" d="M5.6-54.6v6.311H7.016v-2h.5c1.44,0,2.46-.68,2.46-2.233,0-1.416-.809-2.079-2.306-2.079Zm1.416,3.26v-2.209H7.6c.518,0,.882.348.882,1.108,0,.777-.364,1.1-.882,1.1Zm7.346.008c0-1.044-.712-1.65-1.869-1.65a1.817,1.817,0,0,0-1.95,1.432l1.173.218c.089-.518.3-.752.68-.752s.583.259.583.817v.275a3.894,3.894,0,0,0-.647-.057c-1.222,0-1.99.51-1.99,1.464,0,.866.583,1.375,1.537,1.375a1.434,1.434,0,0,0,1.294-.607c.113.348.356.526.882.526a1.911,1.911,0,0,0,.736-.129v-.971a.31.31,0,0,1-.113.008c-.21,0-.316-.138-.316-.429Zm-2.087,2.193a.493.493,0,0,1-.558-.477c0-.348.267-.55.688-.55a2.441,2.441,0,0,1,.574.065C12.979-49.43,12.744-49.139,12.275-49.139Zm5.8-3.762a32.971,32.971,0,0,0-1,3.511,26.409,26.409,0,0,0-.922-3.511H14.742l1.529,4.612h.3l-.146.421c-.129.38-.267.558-.461.558-.154,0-.259-.073-.388-.275l-.752.752a1.481,1.481,0,0,0,1.2.485c.93,0,1.319-.542,1.594-1.375L19.346-52.9Z" transform="translate(143.999 219.148)" fill="#fff"/>
  </g>
</svg>
