<svg xmlns="http://www.w3.org/2000/svg" width="40" height="24" viewBox="0 0 40 24">
  <g id="visa" transform="translate(-36 -126)">
    <rect id="矩形_305" data-name="矩形 305" width="40" height="24" transform="translate(36 126)" fill="none"/>
    <path id="路径_687" data-name="路径 687" d="M54.53,141.846H52.177L53.647,134H56ZM50.2,134l-2.244,5.4-.265-1.162-.792-3.528S46.8,134,45.779,134H42.069l-.044.133a9.638,9.638,0,0,1,2.462.9l2.045,6.817h2.452L52.73,134Zm18.513,7.847H70.87L68.987,134H67.1a1.077,1.077,0,0,0-1.087.585l-3.51,7.262h2.453l.491-1.165h2.992Zm-2.59-2.775,1.236-2.937.7,2.937Zm-3.437-3.184.336-1.686a7.7,7.7,0,0,0-2.116-.342c-1.168,0-3.942.443-3.942,2.6,0,2.027,3.256,2.052,3.256,3.116s-2.921.875-3.884.2l-.35,1.761a7.43,7.43,0,0,0,2.657.444c1.605,0,4.029-.722,4.029-2.687,0-2.039-3.285-2.23-3.285-3.117S61.674,135.4,62.682,135.887Z" transform="translate(-1)" fill="#6bb6ed"/>
  </g>
</svg>
