<svg width="854" height="400" viewBox="0 0 854 400" fill="none" xmlns="http://www.w3.org/2000/svg">
<g clip-path="url(#clip0_1245_5042)">
<path opacity="0.1" fill-rule="evenodd" clip-rule="evenodd" d="M776.891 -16.4591C786.191 -46.5855 781.912 -61.3608 778.208 -67.9689C774.504 -74.577 764.134 -85.9379 733.582 -93.7279C702.785 -101.58 658.69 -103.602 602.291 -96.3276C489.941 -81.8373 344.975 -32.5847 196.455 50.6612C47.9345 133.907 -69.734 231.862 -140.728 320.136C-176.366 364.449 -197.655 403.119 -207.029 433.487C-216.328 463.613 -212.049 478.389 -208.345 484.997C-204.641 491.605 -194.271 502.966 -163.719 510.756C-132.923 518.608 -88.8268 520.629 -32.4279 513.355C79.9219 498.865 224.888 449.612 373.408 366.367C521.928 283.121 639.597 185.166 710.59 96.8917C746.229 52.5785 767.518 13.9091 776.891 -16.4591ZM411.545 434.407C721.552 260.648 916.176 18.6515 846.249 -106.106C776.322 -230.864 468.325 -191.139 158.317 -17.3797C-151.69 156.38 -346.313 398.376 -276.386 523.134C-206.459 647.891 101.538 608.167 411.545 434.407Z" fill="url(#paint0_linear_1245_5042)" stroke="url(#paint1_linear_1245_5042)" stroke-opacity="0.7" stroke-miterlimit="10"/>
<path opacity="0.4" d="M629.338 29.5247C631.163 32.4709 631.891 36.6445 630.7 42.5898C629.501 48.5748 626.438 55.8687 621.346 64.3822C611.169 81.3945 593.584 102.14 569.716 125.277C522.051 171.48 450.289 226.303 365.722 278.681C281.155 331.058 200.102 370.882 137.502 392.972C106.156 404.034 79.7481 410.535 59.9836 412.067C50.0929 412.834 42.1983 412.327 36.3059 410.734C30.4527 409.151 27.0405 406.64 25.2157 403.694C23.3909 400.747 22.663 396.574 23.8538 390.629C25.0525 384.644 28.1155 377.35 33.2081 368.836C43.3845 351.824 60.97 331.078 84.8382 307.942C132.503 261.739 204.265 206.915 288.832 154.538C373.399 102.16 454.452 62.3362 517.051 40.2465C548.398 29.1849 574.806 22.683 594.57 21.1512C604.461 20.3846 612.356 20.8918 618.248 22.4849C624.101 24.0675 627.513 26.5785 629.338 29.5247Z" stroke="url(#paint2_linear_1245_5042)" stroke-width="12"/>
</g>
<g clip-path="url(#clip1_1245_5042)">
<mask id="path-3-inside-1_1245_5042" fill="white">
<path d="M419.444 110.542C419.315 110.32 419.181 110.101 419.043 109.886C372.763 32.4901 284 0.00208937 218.517 38.0079C152.602 76.2644 136.37 169.339 181.7 248.229C181.742 248.304 181.784 248.378 181.827 248.452C181.851 248.493 181.875 248.534 181.899 248.574C181.833 248.459 181.766 248.344 181.7 248.229C168.868 225.328 211.268 176.166 276.671 138.206C341.648 100.495 404.963 87.9815 419.043 109.886C419.247 110.227 419.45 110.57 419.653 110.913C419.585 110.789 419.515 110.665 419.444 110.542Z"/>
</mask>
<path d="M419.444 110.542C419.315 110.32 419.181 110.101 419.043 109.886C372.763 32.4901 284 0.00208937 218.517 38.0079C152.602 76.2644 136.37 169.339 181.7 248.229C181.742 248.304 181.784 248.378 181.827 248.452C181.851 248.493 181.875 248.534 181.899 248.574C181.833 248.459 181.766 248.344 181.7 248.229C168.868 225.328 211.268 176.166 276.671 138.206C341.648 100.495 404.963 87.9815 419.043 109.886C419.247 110.227 419.45 110.57 419.653 110.913C419.585 110.789 419.515 110.665 419.444 110.542Z" fill="url(#paint3_radial_1245_5042)"/>
<path d="M181.899 248.574L181.466 248.824L182.329 248.32L181.899 248.574ZM419.653 110.913L419.214 111.153L420.083 110.659L419.653 110.913ZM182.329 248.32C184.905 252.673 189.425 255.725 195.597 257.507L195.32 258.468C188.986 256.639 184.212 253.466 181.469 248.829L182.329 248.32ZM420.475 126.99C421.963 120.86 421.596 115.505 419.214 111.153L420.091 110.673C422.628 115.308 422.973 120.935 421.447 127.226L420.475 126.99ZM419.97 112.445C419.722 112.017 419.473 111.592 419.222 111.167L420.083 110.659C420.335 111.086 420.586 111.513 420.835 111.943L419.97 112.445ZM182.332 248.325C182.414 248.467 182.497 248.609 182.579 248.751L181.714 249.253C181.631 249.11 181.549 248.967 181.466 248.824L182.332 248.325ZM181.899 248.574L182.765 248.075L181.038 249.084L181.899 248.574ZM419.653 110.913L420.53 110.433L418.792 111.421L419.653 110.913ZM418.579 111.044C418.457 110.835 418.332 110.629 418.201 110.426L419.884 109.345C420.03 109.573 420.172 109.805 420.309 110.04L418.579 111.044ZM418.201 110.426C414.902 105.293 408.637 102.053 399.849 100.756C391.072 99.4609 379.931 100.131 367.138 102.671C341.561 107.749 309.591 120.256 277.173 139.071L276.169 137.342C308.727 118.445 340.904 105.84 366.748 100.709C379.666 98.1447 391.055 97.4368 400.141 98.7775C409.214 100.116 416.144 103.526 419.884 109.345L418.201 110.426ZM277.173 139.071C244.541 158.01 217.685 179.724 200.604 199.518C192.06 209.418 185.999 218.796 182.863 227.069C179.724 235.352 179.568 242.378 182.573 247.74L180.828 248.718C177.416 242.63 177.748 234.923 180.993 226.36C184.242 217.788 190.462 208.209 199.09 198.211C216.351 178.209 243.397 156.362 276.169 137.342L277.173 139.071ZM182.573 247.74C182.612 247.811 182.652 247.88 182.692 247.95L180.962 248.954C180.917 248.876 180.872 248.797 180.828 248.718L182.573 247.74ZM182.692 247.95C182.714 247.989 182.737 248.027 182.76 248.065L181.038 249.084C181.013 249.041 180.987 248.997 180.962 248.954L182.692 247.95ZM418.776 111.393C418.712 111.276 418.646 111.16 418.579 111.044L420.309 110.04C420.384 110.17 420.458 110.301 420.53 110.433L418.776 111.393ZM418.792 111.421C418.59 111.08 418.388 110.739 418.184 110.399L419.901 109.372C420.106 109.716 420.311 110.06 420.514 110.405L418.792 111.421ZM418.184 110.399C372.092 33.3162 283.885 1.22506 219.019 38.8728L218.015 37.1431C284.115 -1.22088 373.434 31.664 419.901 109.372L418.184 110.399ZM219.019 38.8728C153.717 76.7731 137.425 169.168 182.567 247.731L180.833 248.727C135.315 169.51 151.486 75.7557 218.015 37.1431L219.019 38.8728ZM182.567 247.731C182.633 247.846 182.699 247.96 182.765 248.075L181.033 249.074C180.966 248.959 180.9 248.843 180.833 248.727L182.567 247.731Z" fill="white" fill-opacity="0.02" mask="url(#path-3-inside-1_1245_5042)"/>
<ellipse cx="271" cy="329.5" rx="17" ry="17.5" fill="#06F1C8" stroke="#1B3992" stroke-miterlimit="10"/>
<circle cx="436" cy="47" r="7" fill="#4585FF" stroke="#1B3992" stroke-miterlimit="10"/>
<path d="M70.7222 344.682L10.9849 296.607L132.034 225.486L70.7222 344.682Z" fill="url(#paint4_linear_1245_5042)"/>
<path d="M130.243 236.359C124.179 231.948 120.464 230.115 111.366 231.875C110.452 232.567 109.211 233.888 108.809 235.659C108.548 236.809 109.444 241.523 113.929 244.597C118.415 247.672 126.171 248.072 129.435 245.345C130.24 244.673 130.703 243.76 130.935 242.758C131.456 240.506 130.81 237.802 130.243 236.359Z" fill="#4585FF"/>
<path d="M148.215 216.023L130.243 236.359C130.81 237.802 131.456 240.506 130.935 242.758L136.789 236.541L141.179 238.735L146.457 238.164L155.998 227.64L149.182 219.478L148.215 216.023Z" fill="#06F1C8"/>
<path fill-rule="evenodd" clip-rule="evenodd" d="M148.215 216.023C148.389 215.806 147.723 214.771 143.666 212.362C142.416 211.62 140.91 211.221 139.34 211.05C135.816 210.667 131.973 211.437 129.988 212.062L125.199 217.156L112.43 230.742L111.366 231.875C120.464 230.115 124.179 231.948 130.243 236.359L148.215 216.023ZM131.541 215.453L122.001 225.978C121.541 227.214 122.05 229.113 122.986 229.601C124.872 230.583 127.267 229.131 128.182 228.276C130.338 226.263 134.757 220.771 136.09 219.114C137.659 217.165 137.514 215.824 135.646 215.009C134.152 214.357 132.287 215.034 131.541 215.453Z" fill="#87E7FF"/>
<path d="M106.817 228.214L112.43 230.742L125.199 217.156L112.966 219.243L106.627 226.454L106.817 228.214Z" fill="#06F1C8"/>
<path d="M122.001 225.978L131.541 215.453C132.287 215.034 134.152 214.357 135.646 215.009C137.514 215.824 137.659 217.165 136.09 219.114C134.757 220.771 130.338 226.263 128.182 228.276C127.267 229.131 124.872 230.583 122.986 229.601C122.05 229.113 121.541 227.214 122.001 225.978Z" fill="#266DF5"/>
<path d="M143.666 212.362C147.723 214.771 148.389 215.806 148.215 216.023L149.182 219.478C149.293 218.675 149.594 216.704 149.911 215.246C150.307 213.423 148.294 211.268 146.408 210.286C144.899 209.5 141.067 210.468 139.34 211.05C140.91 211.221 142.416 211.62 143.666 212.362Z" fill="#1B3992"/>
<path d="M129.988 212.062L129.838 211.585L129.713 211.624L129.624 211.719L129.988 212.062ZM143.666 212.362L143.411 212.792L143.666 212.362ZM112.43 230.742L112.795 231.085L112.43 230.742ZM106.817 228.214L106.32 228.268L106.351 228.552L106.612 228.67L106.817 228.214ZM106.627 226.454L106.251 226.124L106.106 226.29L106.13 226.508L106.627 226.454ZM112.966 219.243L112.882 218.75L112.708 218.78L112.591 218.913L112.966 219.243ZM141.179 238.735L140.956 239.183L141.087 239.248L141.233 239.232L141.179 238.735ZM146.457 238.164L146.511 238.662L146.7 238.641L146.828 238.5L146.457 238.164ZM155.998 227.64L156.368 227.976L156.66 227.653L156.381 227.319L155.998 227.64ZM149.182 219.478L148.7 219.613L148.729 219.716L148.798 219.798L149.182 219.478ZM129.435 245.345L129.115 244.962L129.435 245.345ZM108.809 235.659L109.297 235.769L108.809 235.659ZM130.935 242.758L130.448 242.645L130.935 242.758ZM146.408 210.286L146.639 209.842L146.408 210.286ZM149.911 215.246L149.422 215.14L149.911 215.246ZM122.001 225.978L121.63 225.642L121.566 225.714L121.532 225.804L122.001 225.978ZM131.541 215.453L131.296 215.018L131.225 215.057L131.171 215.118L131.541 215.453ZM135.646 215.009L135.846 214.551L135.646 215.009ZM136.09 219.114L136.48 219.428L136.09 219.114ZM128.182 228.276L128.523 228.641L128.182 228.276ZM122.986 229.601L122.755 230.044L122.986 229.601ZM143.411 212.792C145.428 213.99 146.577 214.831 147.193 215.386C147.504 215.666 147.657 215.854 147.722 215.96C147.755 216.014 147.749 216.02 147.743 215.989C147.737 215.954 147.728 215.831 147.825 215.709L148.604 216.336C148.746 216.161 148.753 215.958 148.728 215.816C148.704 215.676 148.643 215.548 148.574 215.437C148.437 215.212 148.203 214.95 147.862 214.643C147.174 214.024 145.961 213.143 143.921 211.932L143.411 212.792ZM147.84 215.692L129.868 236.028L130.618 236.69L148.59 216.354L147.84 215.692ZM130.537 235.954C127.5 233.746 124.993 232.137 122.077 231.321C119.151 230.503 115.863 230.496 111.271 231.384L111.461 232.366C115.967 231.494 119.085 231.523 121.807 232.284C124.539 233.048 126.922 234.561 129.949 236.763L130.537 235.954ZM111.731 232.217L112.795 231.085L112.066 230.4L111.002 231.532L111.731 232.217ZM112.636 230.287L107.023 227.758L106.612 228.67L112.225 231.198L112.636 230.287ZM107.314 228.16L107.124 226.401L106.13 226.508L106.32 228.268L107.314 228.16ZM107.003 226.785L113.342 219.573L112.591 218.913L106.251 226.124L107.003 226.785ZM112.795 231.085L125.564 217.499L124.835 216.814L112.066 230.4L112.795 231.085ZM125.564 217.499L130.352 212.404L129.624 211.719L124.835 216.814L125.564 217.499ZM113.05 219.736L125.284 217.649L125.115 216.664L112.882 218.75L113.05 219.736ZM141.233 239.232L146.511 238.662L146.403 237.667L141.126 238.238L141.233 239.232ZM146.828 238.5L156.368 227.976L155.627 227.304L146.087 237.829L146.828 238.5ZM156.381 227.319L149.566 219.157L148.798 219.798L155.614 227.96L156.381 227.319ZM149.663 219.343L148.696 215.888L147.733 216.158L148.7 219.613L149.663 219.343ZM129.115 244.962C127.623 246.208 125.019 246.788 122.165 246.647C119.327 246.507 116.362 245.658 114.212 244.185L113.646 245.01C115.982 246.611 119.138 247.499 122.115 247.646C125.077 247.792 127.983 247.209 129.756 245.729L129.115 244.962ZM114.212 244.185C112.057 242.708 110.767 240.839 110.047 239.205C109.686 238.387 109.471 237.632 109.36 237.02C109.247 236.391 109.254 235.959 109.297 235.769L108.322 235.548C108.234 235.933 108.255 236.522 108.376 237.197C108.501 237.888 108.74 238.719 109.132 239.608C109.915 241.387 111.316 243.412 113.646 245.01L114.212 244.185ZM109.297 235.769C109.663 234.155 110.807 232.925 111.668 232.273L111.064 231.476C110.098 232.208 108.759 233.62 108.322 235.548L109.297 235.769ZM129.778 236.541C130.328 237.944 130.936 240.535 130.448 242.645L131.422 242.87C131.976 240.477 131.291 237.661 130.709 236.176L129.778 236.541ZM130.448 242.645C130.234 243.571 129.816 244.376 129.115 244.962L129.756 245.729C130.665 244.97 131.173 243.95 131.422 242.87L130.448 242.645ZM132.175 234.793L136.565 236.988L137.012 236.093L132.622 233.898L132.175 234.793ZM136.565 236.988L140.956 239.183L141.403 238.288L137.012 236.093L136.565 236.988ZM131.299 243.1L137.153 236.883L136.425 236.198L130.571 242.415L131.299 243.1ZM130.138 212.539C132.082 211.926 135.853 211.174 139.286 211.547L139.394 210.553C135.779 210.16 131.863 210.947 129.838 211.585L130.138 212.539ZM139.286 211.547C140.811 211.713 142.242 212.098 143.411 212.792L143.921 211.932C142.59 211.142 141.008 210.728 139.394 210.553L139.286 211.547ZM139.5 211.524C140.343 211.239 141.705 210.86 143.034 210.648C143.699 210.543 144.342 210.481 144.901 210.491C145.47 210.502 145.901 210.585 146.177 210.729L146.639 209.842C146.16 209.593 145.546 209.503 144.919 209.492C144.281 209.48 143.575 209.55 142.877 209.661C141.481 209.883 140.064 210.278 139.18 210.576L139.5 211.524ZM146.177 210.729C147.06 211.189 147.977 211.928 148.62 212.757C149.273 213.599 149.574 214.442 149.422 215.14L150.399 215.352C150.644 214.228 150.136 213.081 149.41 212.144C148.674 211.194 147.641 210.364 146.639 209.842L146.177 210.729ZM149.422 215.14C149.101 216.617 148.798 218.602 148.687 219.41L149.677 219.546C149.787 218.748 150.086 216.792 150.399 215.352L149.422 215.14ZM122.371 226.314L131.912 215.789L131.171 215.118L121.63 225.642L122.371 226.314ZM131.787 215.889C132.115 215.704 132.716 215.45 133.405 215.321C134.097 215.191 134.825 215.196 135.446 215.468L135.846 214.551C134.973 214.17 134.022 214.188 133.221 214.338C132.417 214.489 131.713 214.783 131.296 215.018L131.787 215.889ZM135.446 215.468C136.305 215.842 136.614 216.267 136.66 216.69C136.711 217.164 136.465 217.851 135.701 218.801L136.48 219.428C137.284 218.428 137.75 217.47 137.654 216.583C137.553 215.644 136.855 214.991 135.846 214.551L135.446 215.468ZM135.701 218.801C134.355 220.474 129.963 225.928 127.841 227.91L128.523 228.641C130.712 226.597 135.159 221.069 136.48 219.428L135.701 218.801ZM127.841 227.91C127.426 228.297 126.655 228.836 125.776 229.158C124.894 229.481 123.985 229.557 123.217 229.157L122.755 230.044C123.873 230.627 125.105 230.468 126.12 230.097C127.138 229.724 128.022 229.109 128.523 228.641L127.841 227.91ZM123.217 229.157C122.931 229.008 122.625 228.575 122.453 227.939C122.286 227.322 122.285 226.648 122.469 226.152L121.532 225.804C121.257 226.544 121.281 227.438 121.487 228.201C121.689 228.945 122.105 229.705 122.755 230.044L123.217 229.157Z" fill="#1B3992"/>
<path d="M124.637 241.282C124.261 242.085 123.367 242.636 122.09 242.792C120.822 242.946 119.255 242.693 117.704 241.966C116.153 241.24 114.955 240.198 114.261 239.125C113.564 238.045 113.415 237.005 113.791 236.202C114.167 235.399 115.061 234.847 116.338 234.692C117.606 234.537 119.173 234.791 120.724 235.517C122.275 236.244 123.473 237.286 124.167 238.359C124.864 239.439 125.013 240.478 124.637 241.282Z" fill="#87E7FF" stroke="#1B3992"/>
<path d="M457.853 -21.0002L466.138 63.9784L491.876 77.0375C499.03 73.3716 514.481 65.9936 521.286 56.0596C528.091 46.1255 531.695 36.7253 532.368 34.4856C534.512 26.5982 526.03 1.89339 499.5 -9.5C472.971 -20.8934 462.727 -19.8868 457.853 -21.0002Z" fill="url(#paint5_linear_1245_5042)"/>
<path d="M491.876 77.0375L482.906 154.484C490.401 143.375 505.943 119.639 508.148 113.578C510.353 107.517 525.214 58.3243 532.368 34.4856C531.695 36.7253 528.091 46.1255 521.286 56.0596C514.481 65.9936 499.03 73.3716 491.876 77.0375Z" fill="url(#paint6_linear_1245_5042)"/>
<path d="M491.876 77.0375L466.138 63.9784L457.853 -21.0002C462.727 -19.8868 472.971 -20.8934 499.5 -9.5C526.03 1.89339 534.512 26.5982 532.368 34.4856M491.876 77.0375L482.906 154.484C490.401 143.375 505.943 119.639 508.148 113.578C510.353 107.517 525.214 58.3243 532.368 34.4856M491.876 77.0375C499.03 73.3716 514.481 65.9936 521.286 56.0596C528.091 46.1255 531.695 36.7253 532.368 34.4856" stroke="url(#paint7_linear_1245_5042)" stroke-opacity="0.7" stroke-miterlimit="10"/>
<path d="M105.256 350.926L57.5896 285.674C67.4648 294.084 89.791 306.363 135.749 311.732C160.858 314.665 203.056 311.206 220.854 309.63L260.084 389.367C253.39 390.232 230.278 390.971 191.384 387.01C152.489 383.05 117.759 361.304 105.256 350.926Z" fill="url(#paint8_linear_1245_5042)" stroke="url(#paint9_linear_1245_5042)" stroke-opacity="0.7" stroke-miterlimit="10"/>
<path d="M507.839 295.336L491.132 256.134L453.234 259.914L507.839 295.336Z" fill="url(#paint10_linear_1245_5042)"/>
<path d="M507.839 295.336L521.184 230.954L491.132 256.134L507.839 295.336Z" fill="url(#paint11_linear_1245_5042)"/>
<path d="M491.132 256.134L521.184 230.954L482.444 235.748L453.234 259.914L491.132 256.134Z" fill="url(#paint12_linear_1245_5042)"/>
<path d="M507.839 295.336L507.431 295.965L508.351 296.562L508.573 295.488L507.839 295.336ZM521.184 230.954L521.918 231.107L522.131 230.081L521.092 230.21L521.184 230.954ZM453.234 259.914L452.756 259.336L451.968 259.987L452.826 260.543L453.234 259.914ZM482.444 235.748L482.352 235.004L482.134 235.031L481.966 235.171L482.444 235.748ZM508.573 295.488L521.918 231.107L520.45 230.802L507.105 295.183L508.573 295.488ZM452.826 260.543L507.431 295.965L508.247 294.706L453.642 259.285L452.826 260.543ZM520.702 230.379L490.65 255.559L491.613 256.708L521.666 231.529L520.702 230.379ZM491.057 255.387L453.159 259.168L453.308 260.66L491.206 256.88L491.057 255.387ZM508.529 295.042L491.821 255.839L490.442 256.428L507.149 295.63L508.529 295.042ZM453.712 260.492L482.922 236.326L481.966 235.171L452.756 259.336L453.712 260.492ZM482.536 236.493L521.276 231.699L521.092 230.21L482.352 235.004L482.536 236.493Z" fill="#1B3992"/>
<path d="M448.578 218.909C438.833 198.123 443.273 175.471 458.463 168.349C458.707 168.234 458.951 168.12 459.194 168.006C455.813 169.246 453.265 170.786 450.137 172.253C434.947 179.375 430.507 202.027 440.252 222.813C449.998 243.598 470.252 254.672 485.442 247.55C488.894 245.931 491.705 245.057 495.717 242.732C496.451 242.289 497.125 241.825 497.743 241.24C496.535 242.151 495.23 242.96 493.809 243.627C478.597 250.809 458.343 239.735 448.578 218.909Z" fill="#4585FF" stroke="#1B3992" stroke-miterlimit="10"/>
<path d="M459.195 168.006C458.951 168.12 458.707 168.234 458.464 168.348C443.273 175.471 438.833 198.123 448.579 218.908C458.324 239.694 478.578 250.768 493.768 243.646C495.19 242.979 496.495 242.17 497.702 241.258C509.654 232.3 512.489 211.93 503.634 193.045C494.059 172.624 474.306 161.561 459.195 168.006Z" fill="#87E7FF" stroke="#1B3992" stroke-miterlimit="10"/>
<path d="M491.993 235.106C504.084 229.437 507.595 211.425 499.835 194.876C492.076 178.327 475.984 169.506 463.894 175.175C451.803 180.844 448.292 198.855 456.052 215.405C463.811 231.954 479.903 240.774 491.993 235.106Z" fill="white" stroke="#124AB7"/>
<path d="M438.645 183.882L446.89 180.59" stroke="#1B3992" stroke-width="2"/>
<path d="M434.838 196.913L443.794 193.509" stroke="#1B3992" stroke-width="2"/>
<path d="M436.103 212.231L445.059 208.826" stroke="#1B3992" stroke-width="2"/>
<path d="M443.019 228.432L451.02 223.161" stroke="#1B3992" stroke-width="2"/>
<path d="M454.273 241.182L459.96 235.487" stroke="#1B3992" stroke-width="2"/>
<path d="M466.593 248.131L470.729 242.451" stroke="#1B3992" stroke-width="2"/>
<path d="M477.943 249.301L480.478 245.457" stroke="#1B3992" stroke-width="2"/>
<path d="M518.196 284.037C524.118 278.574 523.128 265.212 513.037 256.747L510.108 253.638C507.871 251.694 502.326 251.256 501.347 256.207C500.367 261.158 504.881 263.414 507.26 263.923C512.951 268.919 513.256 274.146 510.64 276.558C508.372 278.65 503.271 278.817 497.611 275.403C495.828 275.01 492.178 275.062 491.807 278.779C491.437 282.495 494.38 284.406 495.293 284.863C505.008 289.231 513.822 288.071 518.196 284.037Z" fill="#4585FF"/>
<path d="M513.037 256.747C523.128 265.212 524.118 278.574 518.196 284.037C513.822 288.071 505.008 289.231 495.293 284.863C494.38 284.407 491.437 282.495 491.807 278.779C492.178 275.062 495.828 275.01 497.611 275.403M513.037 256.747C511.641 255.86 508.104 254.586 506.102 257.255C504.501 259.39 505.173 262.517 506.137 262.996C506.533 263.303 506.907 263.613 507.26 263.923M513.037 256.747L510.108 253.638C507.871 251.694 502.326 251.256 501.347 256.207C500.367 261.158 504.881 263.414 507.26 263.923M497.331 275.231C503.102 278.822 508.335 278.684 510.64 276.558C513.256 274.146 512.951 268.919 507.26 263.923" stroke="#1B3992"/>
<circle cx="466.123" cy="263.279" r="1.31476" transform="rotate(5.69277 466.123 263.279)" stroke="#1B3992"/>
<circle cx="487.946" cy="262.028" r="1.31476" transform="rotate(5.69277 487.946 262.028)" stroke="#1B3992"/>
<circle cx="515.077" cy="241.893" r="1.31476" transform="rotate(5.69277 515.077 241.893)" stroke="#1B3992"/>
<path d="M471.695 209.922L471.695 186.5L486.5 201.5L487.5 223L471.695 209.922Z" fill="#4585FF"/>
<path d="M471.695 186.5L471.695 209.922M471.695 186.5L486.5 201.5M471.695 186.5L482.5 208.5M471.695 209.922L487.5 223M471.695 209.922L482.5 208.5M487.5 223L486.5 201.5M487.5 223L482.5 208.5M486.5 201.5L482.5 208.5" stroke="#1B3992"/>
<path d="M173.821 136.791L177.354 105.057L151.231 93.5686L173.821 136.791Z" fill="url(#paint13_linear_1245_5042)"/>
<path d="M173.821 136.791L206.237 99.692L177.354 105.057L173.821 136.791Z" fill="url(#paint14_linear_1245_5042)"/>
<path d="M177.354 105.057L206.237 99.692L179.191 88.555L151.231 93.5686L177.354 105.057Z" fill="url(#paint15_linear_1245_5042)"/>
<path d="M173.821 136.791L173.156 137.138L173.664 138.11L174.386 137.285L173.821 136.791ZM206.237 99.692L206.802 100.185L207.491 99.3971L206.523 98.9985L206.237 99.692ZM151.231 93.5686L151.098 92.8304L150.093 93.0107L150.566 93.916L151.231 93.5686ZM179.191 88.555L179.476 87.8615L179.274 87.7781L179.059 87.8167L179.191 88.555ZM174.386 137.285L206.802 100.185L205.672 99.1985L173.256 136.298L174.386 137.285ZM150.566 93.916L173.156 137.138L174.486 136.444L151.896 93.2212L150.566 93.916ZM206.1 98.9546L177.217 104.319L177.491 105.794L206.374 100.429L206.1 98.9546ZM177.656 104.37L151.533 92.8821L150.929 94.2552L177.052 105.743L177.656 104.37ZM174.567 136.874L178.099 105.14L176.608 104.974L173.076 136.708L174.567 136.874ZM151.363 94.3069L179.323 89.2932L179.059 87.8167L151.098 92.8304L151.363 94.3069ZM178.905 89.2485L205.951 100.386L206.523 98.9985L179.476 87.8615L178.905 89.2485Z" fill="#1B3992"/>
<path d="M167.648 54.3183C178.542 41.0061 195.287 36.6771 205.016 44.6383C205.172 44.766 205.328 44.8937 205.484 45.0214C203.551 43.1372 201.686 41.9136 199.683 40.2745C189.955 32.3134 173.209 36.6423 162.315 49.9546C151.422 63.2669 150.491 80.538 160.22 88.4992C162.431 90.3085 163.931 91.9252 166.801 93.8847C167.338 94.2373 167.87 94.5428 168.465 94.7705C167.458 94.2494 166.489 93.6292 165.579 92.8842C155.803 84.9277 156.733 67.6565 167.648 54.3183Z" fill="#4585FF" stroke="#1B3992" stroke-miterlimit="10"/>
<path d="M205.484 45.0215C205.328 44.8937 205.172 44.766 205.016 44.6383C195.287 36.6772 178.541 41.0061 167.648 54.3184C156.754 67.6306 155.824 84.9018 165.553 92.8629C166.463 93.6079 167.432 94.2281 168.439 94.7493C178.36 99.9275 193.044 95.252 202.942 83.157C213.645 70.0778 214.729 53.149 205.484 45.0215Z" fill="#87E7FF" stroke="#1B3992" stroke-miterlimit="10"/>
<path d="M170.75 88.8993C178.493 95.2359 191.802 91.7804 200.475 81.1813C209.149 70.5821 209.903 56.853 202.159 50.5164C194.416 44.1798 181.107 47.6353 172.434 58.2344C163.76 68.8335 163.006 82.5627 170.75 88.8993Z" fill="white" stroke="#124AB7"/>
<path d="M188.105 36.2709L192.997 40.7776" stroke="#1B3992" stroke-width="2"/>
<path d="M178.066 37.9138L183.265 42.8646" stroke="#1B3992" stroke-width="2"/>
<path d="M168.123 43.7263L173.322 48.6771" stroke="#1B3992" stroke-width="2"/>
<path d="M159.413 53.6432L165.564 57.3447" stroke="#1B3992" stroke-width="2"/>
<path d="M154.438 65.3735L160.127 67.374" stroke="#1B3992" stroke-width="2"/>
<path d="M153.727 75.949L158.904 76.9065" stroke="#1B3992" stroke-width="2"/>
<path d="M156.61 83.997L160.028 84.4665" stroke="#1B3992" stroke-width="2"/>
<path d="M184.74 133.232C190.616 131.848 194.89 122.763 191.422 113.524L190.655 110.416C189.912 108.324 186.455 105.996 183.993 108.867C181.53 111.737 183.645 114.871 185.01 116.079C186.884 121.435 185.158 124.958 182.564 125.569C180.313 126.099 176.923 124.33 174.486 120.017C173.467 119.104 171.066 117.794 169.456 120.083C167.845 122.372 169.062 124.703 169.49 125.337C174.221 131.765 180.4 134.254 184.74 133.232Z" fill="#4585FF"/>
<path d="M191.422 113.524C194.89 122.763 190.616 131.848 184.74 133.232C180.4 134.254 174.221 131.765 169.49 125.337C169.062 124.703 167.845 122.372 169.456 120.083C171.066 117.794 173.467 119.104 174.486 120.017M191.422 113.524C190.838 112.431 188.999 110.297 186.71 111.301C184.879 112.105 184.166 114.393 184.619 115.061C184.764 115.407 184.894 115.746 185.01 116.079M191.422 113.524L190.655 110.416C189.912 108.324 186.455 105.996 183.993 108.867C181.53 111.737 183.645 114.871 185.01 116.079M174.367 119.802C176.811 124.271 180.276 126.108 182.564 125.569C185.158 124.958 186.884 121.435 185.01 116.079" stroke="#1B3992"/>
<circle cx="158.403" cy="100.511" r="0.985138" transform="rotate(35.128 158.403 100.511)" stroke="#1B3992"/>
<circle cx="173.105" cy="107.731" r="0.985138" transform="rotate(35.128 173.105 107.731)" stroke="#1B3992"/>
<circle cx="198.224" cy="104.582" r="0.985138" transform="rotate(35.128 198.224 104.582)" stroke="#1B3992"/>
<path d="M173.441 65.6957L173.069 66.0295L173.402 66.4017L178.899 72.5306L179.233 72.9029L179.605 72.569L182.289 70.1617L182.662 69.8279L182.328 69.4557L180.161 67.0392L180.905 66.9852C182.249 66.8877 183.371 66.7475 184.264 66.5618C185.157 66.3763 185.924 66.1288 186.556 65.8119L186.557 65.8114C187.181 65.4966 187.748 65.1108 188.258 64.6541C189.068 63.9273 189.671 63.1417 190.047 62.2939C190.425 61.4502 190.562 60.5959 190.44 59.7412C190.323 58.8766 189.936 58.0903 189.305 57.3869C188.685 56.6958 187.94 56.2486 187.076 56.0686C186.218 55.8899 185.319 55.9837 184.393 56.3214L184.565 56.7911L184.393 56.3214C183.464 56.6602 182.548 57.2459 181.643 58.0576L181.271 58.3915L181.605 58.7637L183.451 60.8222L183.785 61.1945L184.157 60.8606C184.476 60.5745 184.761 60.3882 185.012 60.2821C185.268 60.174 185.461 60.1522 185.607 60.1733C185.753 60.1968 185.87 60.26 185.973 60.3751C186.077 60.4907 186.127 60.6143 186.134 60.7633L186.134 60.7633L186.135 60.7713C186.144 60.9236 186.108 61.1085 185.991 61.3352L185.991 61.3352L185.989 61.3397C185.878 61.5603 185.69 61.8005 185.404 62.0568C185.147 62.2872 184.892 62.4537 184.64 62.5646L184.64 62.5646L184.636 62.5666C184.372 62.6856 184.084 62.7724 183.77 62.8252L183.77 62.8252C183.441 62.8805 183.068 62.9232 182.65 62.9525C182.65 62.9525 182.65 62.9525 182.65 62.9525L176.158 63.4003L175.987 63.4122L175.859 63.5269L173.441 65.6957ZM180.765 73.6715L180.765 73.6715L180.763 73.6769C180.602 74.2937 180.666 74.8891 181.081 75.3523C181.349 75.6513 181.706 75.8089 182.106 75.8494L182.106 75.8494L182.112 75.85C182.499 75.8841 182.896 75.8178 183.295 75.6718C183.712 75.5204 184.098 75.2822 184.456 74.9669L184.456 74.967L184.461 74.9623C184.979 74.4928 185.332 73.9461 185.488 73.3219C185.642 72.7157 185.593 72.1233 185.187 71.6701C184.771 71.2069 184.186 71.0792 183.556 71.1726L183.553 71.173C182.923 71.2699 182.349 71.569 181.833 72.0365C181.302 72.5078 180.934 73.052 180.765 73.6715ZM186.193 81.344L186.195 81.3461C186.934 82.1695 187.872 82.6232 188.984 82.6978L188.984 82.6979C190.085 82.7702 191.28 82.4789 192.557 81.87C193.84 81.2586 195.176 80.3223 196.566 79.0757C197.951 77.8386 199.015 76.6246 199.743 75.4315C200.466 74.2446 200.866 73.1035 200.891 72.0169C200.921 70.914 200.563 69.9394 199.828 69.1191C199.092 68.2994 198.165 67.8363 197.069 67.7424L197.068 67.7423C195.987 67.6524 194.811 67.927 193.553 68.518L193.551 68.5186C192.29 69.1148 190.966 70.0409 189.578 71.281C188.193 72.5184 187.12 73.7406 186.372 74.9498C185.629 76.1538 185.21 77.3104 185.162 78.4121C185.114 79.5294 185.459 80.5163 186.193 81.344ZM190.859 78.1992L190.858 78.1995C190.077 78.4884 189.787 78.3557 189.672 78.2277C189.587 78.1332 189.52 77.9728 189.59 77.6415C189.661 77.3153 189.886 76.8653 190.327 76.2802C190.762 75.7043 191.402 75.0356 192.257 74.2729C193.526 73.1444 194.507 72.4843 195.214 72.2271C195.969 71.9525 196.256 72.083 196.375 72.2157C196.462 72.3123 196.527 72.4714 196.459 72.7947L196.459 72.7983C196.395 73.1154 196.182 73.5535 195.757 74.1242C195.342 74.6808 194.722 75.3339 193.885 76.0849L193.884 76.0856C192.595 77.2468 191.591 77.9296 190.859 78.1992Z" fill="#4585FF" stroke="#1B3992"/>
<path d="M333.446 227.408L389.552 324.078L301.169 282.815L271.153 268.801L303.321 264.103L300.288 258.877L297.255 253.652L322.82 247.546L319.029 241.015L313.911 232.197L333.446 227.408Z" fill="#4585FF"/>
<path d="M361.9 244.075L345.024 214.999L379.859 177.663L387.291 190.468L370.784 209.23L394.545 250.169L393.117 271.31L371.152 233.466L366.526 238.771L361.9 244.075Z" fill="#06F1C8"/>
<path d="M303.321 264.103L271.153 268.801L264.998 265.928L300.288 258.877L303.321 264.103Z" fill="#1E57C4"/>
<path d="M389.552 324.078L333.446 227.408L338.69 221.787L351.94 244.617L361.9 244.075L366.526 238.771L392.313 283.202L389.552 324.078Z" fill="#266DF5"/>
<path d="M387.291 190.468L379.859 177.663L387.677 169.284L394.935 182.988L399.621 175.03L394.545 250.169L370.784 209.23L387.291 190.468Z" fill="#266DF5"/>
<path d="M264.998 265.928L234.466 251.673L253.952 246.896L259.456 256.38L279.329 252.268L273.439 242.119L313.911 232.197L319.029 241.015L302.666 245.273L297.255 253.652L300.288 258.877L264.998 265.928Z" fill="#87E7FF"/>
<path d="M345.024 214.999L361.9 244.075L351.94 244.617L338.69 221.787L345.024 214.999Z" fill="#326AD5"/>
<path d="M322.82 247.546L297.255 253.652L302.666 245.273L319.029 241.015L322.82 247.546Z" fill="#266DF5"/>
<path d="M253.952 246.896L273.439 242.119L279.329 252.268L259.456 256.38L253.952 246.896Z" fill="#266DF5"/>
<path d="M387.677 169.284L400.971 155.035L399.621 175.03L394.935 182.988L387.677 169.284Z" fill="#266DF5"/>
<path d="M234.466 251.673L310.7 188.218L400.971 155.035L387.677 169.284L379.859 177.663L345.024 214.999L338.69 221.787L333.446 227.408L313.911 232.197L273.439 242.119L285.079 232.672L265.441 237.189L253.952 246.896L234.466 251.673Z" fill="#326AD5"/>
<path d="M371.152 233.466L393.117 271.31L392.313 283.202L366.526 238.771L371.152 233.466Z" fill="#266DF5"/>
<path d="M389.552 324.078L390.3 324.129L390.226 325.221L389.235 324.758L389.552 324.078ZM234.466 251.673L234.148 252.353L233.078 251.853L233.986 251.097L234.466 251.673ZM400.971 155.035L400.713 154.332L401.798 153.933L401.72 155.086L400.971 155.035ZM310.7 188.218L310.22 187.641L310.32 187.558L310.441 187.514L310.7 188.218ZM322.82 247.546L323.469 247.17L323.975 248.042L322.994 248.276L322.82 247.546ZM297.255 253.652L296.607 254.028L296.376 253.631L296.625 253.245L297.255 253.652ZM303.321 264.103L303.969 263.726L304.526 264.685L303.429 264.845L303.321 264.103ZM345.024 214.999L344.476 214.487L345.024 214.999ZM361.9 244.075L362.465 244.568L362.257 244.807L361.94 244.824L361.9 244.075ZM371.152 233.466L370.587 232.973L371.275 232.184L371.801 233.089L371.152 233.466ZM301.169 282.815L300.852 283.495L301.169 282.815ZM336.939 277.773L336.834 277.03L337.334 276.96L337.587 277.396L336.939 277.773ZM345.279 292.143L345.356 292.889L344.873 292.939L344.63 292.519L345.279 292.143ZM359.815 290.638L360.464 290.261L361.046 291.264L359.893 291.384L359.815 290.638ZM346.191 267.163L345.543 267.54L345.017 266.634L346.044 266.428L346.191 267.163ZM379.859 177.663L379.311 177.152L379.859 177.663ZM387.291 190.468L387.939 190.091L388.21 190.558L387.854 190.963L387.291 190.468ZM370.784 209.23L370.135 209.607L369.865 209.14L370.221 208.735L370.784 209.23ZM394.545 250.169L395.293 250.22L395.293 250.22L394.545 250.169ZM264.998 265.928L264.681 266.608L264.998 265.928ZM351.94 244.617L351.981 245.365L351.522 245.39L351.291 244.993L351.94 244.617ZM392.313 283.202L393.061 283.252L392.313 283.202ZM302.666 245.273L302.035 244.866L302.194 244.62L302.477 244.547L302.666 245.273ZM265.441 237.189L264.957 236.616L265.096 236.499L265.273 236.458L265.441 237.189ZM285.079 232.672L284.911 231.942L285.552 233.255L285.079 232.672ZM279.329 252.268L279.978 251.892L280.501 252.792L279.481 253.002L279.329 252.268ZM259.456 256.38L259.608 257.114L259.079 257.223L258.808 256.756L259.456 256.38ZM394.935 182.988L395.582 183.369L394.901 184.525L394.273 183.339L394.935 182.988ZM334.094 227.032L390.2 323.702L388.903 324.455L332.797 227.785L334.094 227.032ZM233.986 251.097L310.22 187.641L311.18 188.794L234.946 252.25L233.986 251.097ZM310.441 187.514L400.713 154.332L401.23 155.739L310.959 188.922L310.441 187.514ZM313.733 231.469L333.267 226.68L333.624 228.137L314.09 232.925L313.733 231.469ZM322.994 248.276L297.429 254.381L297.081 252.922L322.646 246.817L322.994 248.276ZM303.429 264.845L271.261 269.544L271.044 268.059L303.212 263.361L303.429 264.845ZM345.673 214.622L362.548 243.699L361.251 244.452L344.375 215.375L345.673 214.622ZM371.801 233.089L393.765 270.933L392.468 271.686L370.504 233.842L371.801 233.089ZM389.235 324.758L300.852 283.495L301.487 282.136L389.869 323.398L389.235 324.758ZM300.852 283.495L270.835 269.481L271.47 268.122L301.487 282.136L300.852 283.495ZM301.065 282.073L336.834 277.03L337.043 278.515L301.274 283.558L301.065 282.073ZM337.587 277.396L345.927 291.766L344.63 292.519L336.29 278.149L337.587 277.396ZM345.201 291.397L359.738 289.892L359.893 291.384L345.356 292.889L345.201 291.397ZM359.167 291.014L345.543 267.54L346.84 266.787L360.464 290.261L359.167 291.014ZM346.044 266.428L355.245 264.581L355.54 266.051L346.339 267.899L346.044 266.428ZM344.476 214.487L379.311 177.152L380.407 178.175L345.572 215.51L344.476 214.487ZM380.508 177.287L387.939 190.091L386.642 190.844L379.21 178.04L380.508 177.287ZM387.854 190.963L371.347 209.726L370.221 208.735L386.728 189.972L387.854 190.963ZM395.293 250.22L393.865 271.36L392.368 271.259L393.796 250.119L395.293 250.22ZM371.433 208.854L395.193 249.793L393.896 250.546L370.135 209.607L371.433 208.854ZM270.835 269.481L264.681 266.608L265.316 265.249L271.47 268.122L270.835 269.481ZM264.681 266.608L234.148 252.353L234.783 250.994L265.316 265.249L264.681 266.608ZM351.899 243.868L361.859 243.326L361.94 244.824L351.981 245.365L351.899 243.868ZM361.334 243.582L365.961 238.278L367.091 239.264L362.465 244.568L361.334 243.582ZM365.961 238.278L370.587 232.973L371.718 233.959L367.091 239.264L365.961 238.278ZM393.865 271.36L393.061 283.252L391.565 283.151L392.368 271.259L393.865 271.36ZM393.061 283.252L390.3 324.129L388.804 324.028L391.565 283.151L393.061 283.252ZM367.175 238.394L392.962 282.825L391.665 283.578L365.877 239.147L367.175 238.394ZM297.904 253.275L300.937 258.501L299.639 259.254L296.607 254.028L297.904 253.275ZM300.937 258.501L303.969 263.726L302.672 264.479L299.639 259.254L300.937 258.501ZM264.851 265.193L300.141 258.142L300.435 259.613L265.145 266.664L264.851 265.193ZM296.625 253.245L302.035 244.866L303.296 245.679L297.885 254.059L296.625 253.245ZM314.56 231.821L319.678 240.638L318.38 241.391L313.263 232.574L314.56 231.821ZM319.678 240.638L323.469 247.17L322.171 247.923L318.38 241.391L319.678 240.638ZM302.477 244.547L318.84 240.289L319.218 241.74L302.854 245.998L302.477 244.547ZM234.287 250.945L253.774 246.168L254.131 247.625L234.644 252.402L234.287 250.945ZM253.468 246.323L264.957 236.616L265.925 237.762L254.436 247.469L253.468 246.323ZM265.273 236.458L284.911 231.942L285.247 233.403L265.609 237.92L265.273 236.458ZM253.774 246.168L273.261 241.391L273.618 242.847L254.131 247.625L253.774 246.168ZM273.261 241.391L313.733 231.469L314.09 232.925L273.618 242.847L273.261 241.391ZM285.552 233.255L273.912 242.701L272.966 241.537L284.606 232.09L285.552 233.255ZM278.681 252.645L272.79 242.495L274.088 241.743L279.978 251.892L278.681 252.645ZM279.481 253.002L259.608 257.114L259.304 255.645L279.178 251.534L279.481 253.002ZM258.808 256.756L253.304 247.273L254.601 246.52L260.105 256.003L258.808 256.756ZM379.311 177.152L387.129 168.772L388.226 169.795L380.407 178.175L379.311 177.152ZM387.129 168.772L400.423 154.524L401.52 155.547L388.226 169.795L387.129 168.772ZM388.34 168.933L395.598 182.637L394.273 183.339L387.014 169.635L388.34 168.933ZM401.72 155.086L400.369 175.08L398.872 174.979L400.223 154.985L401.72 155.086ZM400.369 175.08L395.293 250.22L393.796 250.119L398.872 174.979L400.369 175.08ZM394.289 182.608L398.974 174.649L400.267 175.41L395.582 183.369L394.289 182.608ZM332.897 226.897L338.142 221.276L339.239 222.299L333.994 227.92L332.897 226.897ZM339.339 221.411L352.589 244.24L351.291 244.993L338.042 222.164L339.339 221.411ZM338.142 221.276L344.476 214.487L345.572 215.51L339.239 222.299L338.142 221.276Z" fill="#1B3992"/>
<path d="M429.473 107.674C440.442 126.574 391.709 175.34 320.625 216.597C249.54 257.853 183.023 275.977 172.054 257.078C161.085 238.178 209.818 189.412 280.902 148.156C351.987 106.899 418.504 88.7749 429.473 107.674Z" fill="#376BD0" stroke="url(#paint16_linear_1245_5042)"/>
<g filter="url(#filter0_i_1245_5042)">
<ellipse cx="301.192" cy="180.762" rx="140.55" ry="34.8421" transform="rotate(-30.1304 301.192 180.762)" fill="#5E94FD"/>
</g>
<path d="M422.319 110.462C424.589 114.373 423.616 120.088 419.571 127.239C415.546 134.354 408.568 142.729 399.167 151.824C380.371 170.009 351.974 190.996 318.431 210.464C284.888 229.933 252.578 244.178 227.464 251.478C214.903 255.129 204.17 257.034 195.995 257C187.78 256.965 182.335 254.975 180.065 251.063C177.795 247.152 178.768 241.437 182.813 234.286C186.838 227.171 193.816 218.796 203.217 209.701C222.013 191.516 250.41 170.529 283.953 151.06C317.497 131.592 349.806 117.347 374.92 110.047C387.481 106.396 398.214 104.491 406.389 104.525C414.604 104.56 420.049 106.55 422.319 110.462Z" stroke="url(#paint17_linear_1245_5042)"/>
<g filter="url(#filter1_d_1245_5042)">
<path d="M236.887 59.9774L298.108 165.46L350.076 147.189L389.413 133.359L236.887 59.9774Z" fill="url(#paint18_linear_1245_5042)"/>
<path d="M222.29 230.354L320.027 203.225L298.108 165.46L279.177 181.663L222.29 230.354Z" fill="url(#paint19_linear_1245_5042)"/>
<path d="M298.108 165.46L320.027 203.225L389.413 133.359L350.076 147.189L298.108 165.46Z" fill="url(#paint20_linear_1245_5042)"/>
<path d="M236.887 59.9774L222.29 230.354L279.177 181.663L298.108 165.46L236.887 59.9774Z" fill="url(#paint21_linear_1245_5042)"/>
<path d="M236.887 59.9774L237.104 59.5268L236.451 59.2126L236.389 59.9347L236.887 59.9774ZM222.29 230.354L221.792 230.312L221.731 231.029L222.424 230.836L222.29 230.354ZM320.027 203.225L320.16 203.707L320.288 203.671L320.381 203.577L320.027 203.225ZM389.413 133.359L389.767 133.711L390.262 133.213L389.629 132.908L389.413 133.359ZM279.177 181.663L279.503 182.043L279.177 181.663ZM350.076 147.189L349.91 146.717L350.076 147.189ZM236.389 59.9347L221.792 230.312L222.789 230.397L237.386 60.0201L236.389 59.9347ZM222.424 230.836L320.16 203.707L319.893 202.743L222.157 229.873L222.424 230.836ZM320.459 202.974L237.32 59.7264L236.455 60.2284L319.594 203.476L320.459 202.974ZM320.381 203.577L389.767 133.711L389.058 133.006L319.672 202.873L320.381 203.577ZM389.629 132.908L237.104 59.5268L236.671 60.428L389.196 133.809L389.629 132.908ZM236.455 60.2284L297.676 165.711L298.541 165.209L237.32 59.7264L236.455 60.2284ZM320.459 202.974L298.541 165.209L297.676 165.711L319.594 203.476L320.459 202.974ZM222.616 230.734L279.503 182.043L278.852 181.283L221.965 229.975L222.616 230.734ZM279.503 182.043L298.433 165.84L297.783 165.08L278.852 181.283L279.503 182.043ZM298.274 165.931L350.242 147.66L349.91 146.717L297.942 164.988L298.274 165.931ZM350.242 147.66L389.578 133.83L389.247 132.887L349.91 146.717L350.242 147.66Z" fill="#1B3992" fill-opacity="0.74"/>
<ellipse cx="304.945" cy="181.741" rx="53.7558" ry="8.71716" transform="rotate(-30.1304 304.945 181.741)" fill="url(#paint22_linear_1245_5042)"/>
<ellipse cx="296.052" cy="153.003" rx="53.2296" ry="10.2707" transform="rotate(-13.1304 296.052 153.003)" fill="url(#paint23_linear_1245_5042)"/>
<path d="M298.499 163.492C312.835 160.148 325.565 155.996 334.561 151.982C339.055 149.976 342.641 147.994 345.03 146.15C346.224 145.229 347.143 144.325 347.724 143.449C348.305 142.572 348.581 141.671 348.377 140.797C348.173 139.923 347.527 139.237 346.618 138.709C345.71 138.18 344.485 137.775 343.007 137.478C340.048 136.881 335.956 136.691 331.038 136.88C321.195 137.26 307.942 139.17 293.606 142.514C279.27 145.858 266.539 150.009 257.544 154.024C253.05 156.03 249.464 158.012 247.075 159.856C245.881 160.776 244.962 161.681 244.381 162.557C243.8 163.433 243.524 164.334 243.728 165.209C243.932 166.083 244.578 166.769 245.486 167.297C246.395 167.826 247.62 168.23 249.098 168.528C252.057 169.124 256.149 169.315 261.067 169.126C270.91 168.746 284.163 166.836 298.499 163.492Z" stroke="#1B3992" stroke-opacity="0.74"/>
<mask id="path-61-outside-2_1245_5042" maskUnits="userSpaceOnUse" x="238.755" y="111.977" width="120.236" height="98.4609" fill="black">
<rect fill="white" x="238.755" y="111.977" width="120.236" height="98.4609"/>
<path fill-rule="evenodd" clip-rule="evenodd" d="M297.906 162.217C326.535 155.539 348.699 145.647 347.411 140.123C347.342 139.827 347.207 139.55 347.009 139.291L347.181 139.25L351.64 154.713C352.928 160.237 330.764 170.129 302.135 176.807C273.506 183.485 249.252 184.421 247.964 178.897L244.184 165.199C247.837 169.704 270.929 168.51 297.906 162.217Z"/>
</mask>
<path fill-rule="evenodd" clip-rule="evenodd" d="M297.906 162.217C326.535 155.539 348.699 145.647 347.411 140.123C347.342 139.827 347.207 139.55 347.009 139.291L347.181 139.25L351.64 154.713C352.928 160.237 330.764 170.129 302.135 176.807C273.506 183.485 249.252 184.421 247.964 178.897L244.184 165.199C247.837 169.704 270.929 168.51 297.906 162.217Z" fill="url(#paint24_linear_1245_5042)"/>
<path d="M347.411 140.123L346.437 140.35L346.437 140.35L347.411 140.123ZM297.906 162.217L297.679 161.243L297.906 162.217ZM347.009 139.291L346.776 138.319L345.282 138.678L346.215 139.899L347.009 139.291ZM347.181 139.25L348.141 138.973L347.877 138.055L346.947 138.278L347.181 139.25ZM351.64 154.713L352.614 154.485L352.608 154.46L352.601 154.435L351.64 154.713ZM302.135 176.807L301.908 175.833L302.135 176.807ZM247.964 178.897L248.938 178.669L248.933 178.65L248.928 178.631L247.964 178.897ZM244.184 165.199L244.961 164.569L243.22 165.465L244.184 165.199ZM346.437 140.35C346.512 140.673 346.448 141.148 345.995 141.832C345.541 142.516 344.763 143.304 343.634 144.175C341.382 145.913 337.92 147.838 333.47 149.824C324.585 153.789 311.951 157.914 297.679 161.243L298.133 163.191C312.49 159.842 325.253 155.682 334.285 151.65C338.794 149.638 342.421 147.637 344.856 145.758C346.071 144.821 347.038 143.877 347.661 142.937C348.285 141.997 348.631 140.954 348.385 139.896L346.437 140.35ZM346.215 139.899C346.335 140.055 346.403 140.205 346.437 140.35L348.385 139.896C348.281 139.45 348.08 139.045 347.804 138.684L346.215 139.899ZM346.947 138.278L346.776 138.319L347.243 140.264L347.414 140.223L346.947 138.278ZM352.601 154.435L348.141 138.973L346.22 139.527L350.679 154.99L352.601 154.435ZM302.362 177.781C316.719 174.432 329.482 170.271 338.514 166.24C343.023 164.228 346.65 162.227 349.085 160.348C350.3 159.41 351.267 158.467 351.89 157.527C352.514 156.586 352.86 155.543 352.614 154.485L350.666 154.94C350.741 155.263 350.677 155.737 350.223 156.421C349.77 157.105 348.992 157.893 347.863 158.764C345.611 160.502 342.149 162.428 337.699 164.414C328.814 168.379 316.18 172.504 301.908 175.833L302.362 177.781ZM246.99 179.124C247.237 180.182 248.009 180.964 248.984 181.531C249.96 182.098 251.244 182.517 252.748 182.82C255.764 183.428 259.902 183.617 264.835 183.427C274.719 183.046 288.005 181.13 302.362 177.781L301.908 175.833C287.636 179.162 274.48 181.053 264.758 181.428C259.889 181.616 255.932 181.421 253.143 180.859C251.745 180.578 250.7 180.215 249.99 179.802C249.28 179.39 249.013 178.993 248.938 178.669L246.99 179.124ZM243.22 165.465L247 179.163L248.928 178.631L245.148 164.933L243.22 165.465ZM297.679 161.243C284.232 164.38 271.774 166.241 262.244 166.759C257.476 167.018 253.473 166.939 250.461 166.528C248.954 166.322 247.726 166.037 246.785 165.686C245.83 165.329 245.258 164.936 244.961 164.569L243.407 165.829C244.024 166.589 244.972 167.144 246.085 167.559C247.212 167.98 248.597 168.292 250.19 168.509C253.378 168.945 257.52 169.019 262.353 168.756C272.027 168.23 284.603 166.347 298.133 163.191L297.679 161.243Z" fill="#1B3992" fill-opacity="0.74" mask="url(#path-61-outside-2_1245_5042)"/>
<path d="M319.772 202.927L237.438 61.1299L389.528 133.172L319.772 202.927Z" fill="url(#paint25_linear_1245_5042)" fill-opacity="0.03"/>
</g>
<path d="M320.109 215.708C391.193 174.451 440.025 125.854 429.177 107.164L435.622 118.268C446.47 136.959 397.638 185.555 326.554 226.812C255.469 268.069 189.05 286.362 178.202 267.672L171.757 256.567C182.605 275.258 249.024 256.964 320.109 215.708Z" fill="#87E7FF" stroke="url(#paint26_linear_1245_5042)"/>
<path d="M413.074 195.946C414.297 187.353 404.571 176.199 390.634 175.166L386.153 174.291C383.019 174.002 378.17 177.151 380.667 182.142C383.164 187.133 388.377 186.245 390.672 185.177C398.681 185.956 402.417 190.372 401.877 194.166C401.408 197.458 397.328 200.857 390.399 201.454C388.672 202.244 385.707 204.617 387.882 208.131C390.056 211.645 393.749 211.455 394.805 211.275C405.701 208.935 412.17 202.293 413.074 195.946Z" fill="#4585FF"/>
<path d="M390.634 175.166C404.571 176.199 414.297 187.353 413.074 195.946C412.17 202.293 405.701 208.935 394.805 211.275C393.749 211.455 390.056 211.645 387.882 208.131C385.707 204.617 388.672 202.244 390.399 201.454M390.634 175.166C388.895 175.274 385.138 176.404 385.274 180.035C385.382 182.939 388.019 185.268 389.131 185.075C389.661 185.095 390.175 185.129 390.672 185.177M390.634 175.166L386.153 174.291C383.019 174.002 378.17 177.151 380.667 182.142C383.164 187.133 388.377 186.245 390.672 185.177M390.055 201.481C397.193 200.969 401.4 197.512 401.877 194.166C402.417 190.372 398.681 185.956 390.672 185.177" stroke="#1B3992"/>
<path d="M237.287 59.1156L320.193 202.928L363.075 160.046L389.812 132.497L237.287 59.1156Z" fill="url(#paint27_linear_1245_5042)"/>
</g>
<defs>
<filter id="filter0_i_1245_5042" x="178.365" y="104.024" width="245.654" height="154.476" filterUnits="userSpaceOnUse" color-interpolation-filters="sRGB">
<feFlood flood-opacity="0" result="BackgroundImageFix"/>
<feBlend mode="normal" in="SourceGraphic" in2="BackgroundImageFix" result="shape"/>
<feColorMatrix in="SourceAlpha" type="matrix" values="0 0 0 0 0 0 0 0 0 0 0 0 0 0 0 0 0 0 127 0" result="hardAlpha"/>
<feOffset dy="4"/>
<feGaussianBlur stdDeviation="0.5"/>
<feComposite in2="hardAlpha" operator="arithmetic" k2="-1" k3="1"/>
<feColorMatrix type="matrix" values="0 0 0 0 0.105882 0 0 0 0 0.223529 0 0 0 0 0.572549 0 0 0 1 0"/>
<feBlend mode="normal" in2="shape" result="effect1_innerShadow_1245_5042"/>
</filter>
<filter id="filter1_d_1245_5042" x="221.731" y="59.2129" width="168.531" height="171.815" filterUnits="userSpaceOnUse" color-interpolation-filters="sRGB">
<feFlood flood-opacity="0" result="BackgroundImageFix"/>
<feColorMatrix in="SourceAlpha" type="matrix" values="0 0 0 0 0 0 0 0 0 0 0 0 0 0 0 0 0 0 127 0" result="hardAlpha"/>
<feOffset/>
<feComposite in2="hardAlpha" operator="out"/>
<feColorMatrix type="matrix" values="0 0 0 0 0 0 0 0 0 0 0 0 0 0 0 0 0 0 0.25 0"/>
<feBlend mode="normal" in2="BackgroundImageFix" result="effect1_dropShadow_1245_5042"/>
<feBlend mode="normal" in="SourceGraphic" in2="effect1_dropShadow_1245_5042" result="shape"/>
</filter>
<linearGradient id="paint0_linear_1245_5042" x1="-83.7688" y1="171.473" x2="719.023" y2="266.078" gradientUnits="userSpaceOnUse">
<stop stop-color="#4585FF" stop-opacity="0"/>
<stop offset="1" stop-color="#1B54C1" stop-opacity="0.5"/>
</linearGradient>
<linearGradient id="paint1_linear_1245_5042" x1="671.567" y1="193.081" x2="-180.985" y2="131.59" gradientUnits="userSpaceOnUse">
<stop stop-color="#E0E8F7"/>
<stop offset="1" stop-color="white" stop-opacity="0"/>
</linearGradient>
<linearGradient id="paint2_linear_1245_5042" x1="416.438" y1="281.441" x2="301.276" y2="98.1101" gradientUnits="userSpaceOnUse">
<stop stop-color="#85A2DB"/>
<stop offset="1" stop-color="#85A2DB" stop-opacity="0"/>
</linearGradient>
<radialGradient id="paint3_radial_1245_5042" cx="0" cy="0" r="1" gradientUnits="userSpaceOnUse" gradientTransform="translate(335.948 240.339) rotate(-120.13) scale(259.261 398.632)">
<stop offset="0.0374739" stop-color="#87E7FF"/>
<stop offset="0.585373" stop-color="#87E7FF" stop-opacity="0"/>
<stop offset="1" stop-color="#87E7FF" stop-opacity="0.44"/>
</radialGradient>
<linearGradient id="paint4_linear_1245_5042" x1="38.9432" y1="323.018" x2="129.635" y2="230.731" gradientUnits="userSpaceOnUse">
<stop stop-color="#87E7FF" stop-opacity="0"/>
<stop offset="0.407104" stop-color="#87E7FF" stop-opacity="0.33"/>
<stop offset="0.70171" stop-color="#87E7FF" stop-opacity="0.75"/>
</linearGradient>
<linearGradient id="paint5_linear_1245_5042" x1="508.266" y1="101.727" x2="436.64" y2="52.9487" gradientUnits="userSpaceOnUse">
<stop stop-color="#4585FF" stop-opacity="0.9"/>
<stop offset="1" stop-color="#4585FF" stop-opacity="0"/>
</linearGradient>
<linearGradient id="paint6_linear_1245_5042" x1="508.266" y1="101.727" x2="436.64" y2="52.9487" gradientUnits="userSpaceOnUse">
<stop stop-color="#4585FF" stop-opacity="0.9"/>
<stop offset="1" stop-color="#4585FF" stop-opacity="0"/>
</linearGradient>
<linearGradient id="paint7_linear_1245_5042" x1="508.93" y1="138.957" x2="424.655" y2="115.662" gradientUnits="userSpaceOnUse">
<stop stop-color="#1B3992"/>
<stop offset="1" stop-color="#1C3A93" stop-opacity="0"/>
</linearGradient>
<linearGradient id="paint8_linear_1245_5042" x1="243.636" y1="352.842" x2="190.409" y2="253.965" gradientUnits="userSpaceOnUse">
<stop stop-color="#4585FF" stop-opacity="0.9"/>
<stop offset="1" stop-color="#4585FF" stop-opacity="0"/>
</linearGradient>
<linearGradient id="paint9_linear_1245_5042" x1="260.317" y1="393.087" x2="61.8235" y2="295.894" gradientUnits="userSpaceOnUse">
<stop stop-color="#1B3992"/>
<stop offset="1" stop-color="#1C3A93" stop-opacity="0"/>
</linearGradient>
<linearGradient id="paint10_linear_1245_5042" x1="508.378" y1="295.106" x2="483.339" y2="236.354" gradientUnits="userSpaceOnUse">
<stop stop-color="#4585FF"/>
<stop offset="0.707718" stop-color="#4585FF"/>
<stop offset="0.870217" stop-color="#4585FF"/>
</linearGradient>
<linearGradient id="paint11_linear_1245_5042" x1="508.378" y1="295.106" x2="483.339" y2="236.354" gradientUnits="userSpaceOnUse">
<stop stop-color="#4585FF"/>
<stop offset="0.707718" stop-color="#4585FF"/>
<stop offset="0.870217" stop-color="#4585FF"/>
</linearGradient>
<linearGradient id="paint12_linear_1245_5042" x1="495.981" y1="264.567" x2="487.106" y2="188.674" gradientUnits="userSpaceOnUse">
<stop stop-color="#87E7FF"/>
<stop offset="0.707718" stop-color="#4585FF"/>
<stop offset="0.870217" stop-color="#4585FF"/>
</linearGradient>
<linearGradient id="paint13_linear_1245_5042" x1="174.258" y1="136.84" x2="179.552" y2="89.2802" gradientUnits="userSpaceOnUse">
<stop stop-color="#4585FF"/>
<stop offset="0.707718" stop-color="#4585FF"/>
<stop offset="0.870217" stop-color="#4585FF"/>
</linearGradient>
<linearGradient id="paint14_linear_1245_5042" x1="174.258" y1="136.84" x2="179.552" y2="89.2802" gradientUnits="userSpaceOnUse">
<stop stop-color="#4585FF"/>
<stop offset="0.707718" stop-color="#4585FF"/>
<stop offset="0.870217" stop-color="#4585FF"/>
</linearGradient>
<linearGradient id="paint15_linear_1245_5042" x1="177.413" y1="112.346" x2="199.568" y2="59.5525" gradientUnits="userSpaceOnUse">
<stop stop-color="#87E7FF"/>
<stop offset="0.707718" stop-color="#4585FF"/>
<stop offset="0.870217" stop-color="#4585FF"/>
</linearGradient>
<linearGradient id="paint16_linear_1245_5042" x1="317.238" y1="210.761" x2="280.601" y2="147.637" gradientUnits="userSpaceOnUse">
<stop stop-color="#1B3992"/>
<stop offset="1" stop-color="#1B3992" stop-opacity="0"/>
</linearGradient>
<linearGradient id="paint17_linear_1245_5042" x1="318.4" y1="201.492" x2="287.61" y2="148.44" gradientUnits="userSpaceOnUse">
<stop stop-color="#1B3992"/>
<stop offset="1" stop-color="#1B3992" stop-opacity="0"/>
</linearGradient>
<linearGradient id="paint18_linear_1245_5042" x1="370.387" y1="145.439" x2="244.032" y2="60.8704" gradientUnits="userSpaceOnUse">
<stop stop-color="#06F1C8"/>
<stop offset="0.78125" stop-color="#06F1C8" stop-opacity="0"/>
</linearGradient>
<linearGradient id="paint19_linear_1245_5042" x1="383.945" y1="138.41" x2="210.232" y2="260.229" gradientUnits="userSpaceOnUse">
<stop offset="0.317708" stop-color="#06F1C8" stop-opacity="0"/>
<stop offset="0.920425" stop-color="#06F1C8"/>
</linearGradient>
<linearGradient id="paint20_linear_1245_5042" x1="363.858" y1="166.027" x2="276.187" y2="85.8833" gradientUnits="userSpaceOnUse">
<stop stop-color="#06F1C8" stop-opacity="0.62"/>
<stop offset="1" stop-color="#06F1C8" stop-opacity="0"/>
</linearGradient>
<linearGradient id="paint21_linear_1245_5042" x1="100.116" y1="170.78" x2="263.686" y2="202.864" gradientUnits="userSpaceOnUse">
<stop offset="0.50422" stop-color="#06F1C8"/>
<stop offset="0.957598" stop-color="#06F1C8" stop-opacity="0"/>
</linearGradient>
<linearGradient id="paint22_linear_1245_5042" x1="224.311" y1="181.741" x2="346.219" y2="156.271" gradientUnits="userSpaceOnUse">
<stop stop-color="#87E7FF" stop-opacity="0"/>
<stop offset="1" stop-color="#0E2F29"/>
</linearGradient>
<linearGradient id="paint23_linear_1245_5042" x1="238.03" y1="162.661" x2="337.392" y2="149.754" gradientUnits="userSpaceOnUse">
<stop stop-color="#4585FF"/>
<stop offset="0.754168" stop-color="#C7FFF5"/>
</linearGradient>
<linearGradient id="paint24_linear_1245_5042" x1="258.009" y1="196.383" x2="345.238" y2="144.076" gradientUnits="userSpaceOnUse">
<stop stop-color="#ACDAB2"/>
<stop offset="0.390625" stop-color="#68D2ED"/>
<stop offset="0.635417" stop-color="#6DD7F1"/>
<stop offset="1" stop-color="#27A8B9"/>
</linearGradient>
<linearGradient id="paint25_linear_1245_5042" x1="282.036" y1="151.469" x2="349.504" y2="137.746" gradientUnits="userSpaceOnUse">
<stop stop-color="white"/>
<stop offset="1" stop-color="#87E7FF"/>
</linearGradient>
<linearGradient id="paint26_linear_1245_5042" x1="316.759" y1="209.936" x2="280.528" y2="147.511" gradientUnits="userSpaceOnUse">
<stop stop-color="#1B3992"/>
<stop offset="1" stop-color="#1B3992" stop-opacity="0"/>
</linearGradient>
<linearGradient id="paint27_linear_1245_5042" x1="301.324" y1="171.481" x2="332.2" y2="102.87" gradientUnits="userSpaceOnUse">
<stop stop-color="#06F1C8" stop-opacity="0.35"/>
<stop offset="0.78125" stop-color="#06F1C8" stop-opacity="0"/>
</linearGradient>
<clipPath id="clip0_1245_5042">
<rect width="837" height="400" fill="white" transform="translate(17)"/>
</clipPath>
<clipPath id="clip1_1245_5042">
<rect width="533" height="391" fill="white"/>
</clipPath>
</defs>
</svg>
