<svg width="938" height="916" viewBox="0 0 938 916" fill="none" xmlns="http://www.w3.org/2000/svg">
	<g clip-path="url(#databreachclip0)">
		<path
			style="mix-blend-mode:multiply"
			opacity="0.15"
			d="M369.66 617.645C407.537 595.769 457.356 583.713 509.966 583.713C562.745 583.713 612.808 595.808 650.92 617.804C694.155 642.749 717.967 677.695 717.967 716.309C717.967 754.802 694.247 789.649 651.188 814.535C613.311 836.352 563.473 848.385 510.833 848.446H510.823C458.054 848.446 408.015 836.312 369.958 814.355C326.698 789.411 302.886 754.424 302.886 715.831C302.886 677.338 326.619 642.493 369.66 617.645Z"
			fill="url(#databreachlinear0)"
		/>
		<g opacity="0.6">
			<g opacity="0.7">
				<path
					opacity="0.4"
					d="M268.069 558.561C268.069 558.402 268.019 558.222 268.019 558.061C268.019 519.371 291.874 484.343 335.137 459.37C373.208 437.382 423.284 425.265 476.165 425.265C529.215 425.265 579.536 437.421 617.844 459.531C661.301 484.604 685.237 519.73 685.237 558.541C685.237 558.7 685.202 558.802 685.202 559.022C685.202 559.161 685.237 559.342 685.237 559.501C685.237 559.661 685.202 559.842 685.202 560.024C685.202 560.144 685.237 560.345 685.237 560.505C685.237 560.685 685.202 560.825 685.202 560.985C685.202 561.165 685.237 561.345 685.237 561.508C685.237 561.709 685.202 561.829 685.202 561.969C685.202 562.17 685.237 562.35 685.237 562.45C685.237 562.651 685.202 562.81 685.202 562.991C685.202 563.111 685.237 563.311 685.237 563.451C685.237 563.632 685.202 563.792 685.202 563.951C685.202 564.093 685.237 564.312 685.237 564.432C685.237 564.632 685.202 564.793 685.202 564.973C685.202 565.113 685.237 565.314 685.237 565.454C685.237 565.614 685.202 565.775 685.202 565.954C685.202 566.134 685.237 566.255 685.237 566.455C685.237 566.595 685.202 566.796 685.202 566.936C685.202 567.136 685.237 567.276 685.237 567.437C685.237 567.598 685.202 567.778 685.202 567.897C685.202 568.138 685.237 568.257 685.237 568.437C685.237 568.618 685.202 568.778 685.202 568.898C685.202 569.119 685.237 569.238 685.237 569.42C685.237 569.602 685.202 569.761 685.202 569.901C685.202 570.082 685.237 570.242 685.237 570.402C685.237 570.542 685.202 570.723 685.202 570.903C685.202 571.083 685.237 571.244 685.237 571.426C685.237 571.547 685.202 571.726 685.202 571.887C685.202 572.048 685.237 572.188 685.237 572.427C685.237 572.548 685.202 572.728 685.202 572.887C685.202 573.047 685.237 573.188 685.237 573.41C685.237 573.551 685.202 573.711 685.202 573.852C685.202 574.051 685.237 574.192 685.237 574.352C685.237 574.532 685.202 574.712 685.202 574.875C685.202 575.074 685.237 575.195 685.237 575.335C685.237 575.535 685.202 575.696 685.202 575.835C685.202 576.016 685.237 576.176 685.237 576.337C685.237 576.537 685.202 576.677 685.202 576.837C685.202 576.978 685.237 577.197 685.237 577.36C685.237 577.499 685.202 577.66 685.202 577.82C685.202 578 685.237 578.16 685.237 578.36C685.237 578.461 685.202 578.642 685.202 578.801C685.202 578.982 685.237 579.102 685.237 579.341C685.237 579.462 685.202 579.642 685.202 579.823C685.202 579.982 685.237 580.102 685.237 580.323C685.237 580.463 685.202 580.623 685.202 580.804C685.202 580.963 685.237 581.105 685.237 581.284C685.237 581.424 685.202 581.645 685.202 581.785C685.202 581.985 685.237 582.146 685.237 582.286C685.237 582.447 685.202 582.626 685.202 582.787C685.202 582.926 685.237 583.147 685.237 583.287C685.237 583.468 685.202 583.628 685.202 583.81C685.202 583.93 685.237 584.15 685.237 584.27C685.237 584.451 685.202 584.611 685.202 584.77C685.202 584.911 685.237 585.071 685.237 585.252C685.237 585.432 685.202 585.572 685.202 585.792C685.202 585.932 685.237 586.073 685.237 586.273C685.237 586.433 685.202 586.553 685.202 586.733C685.202 586.914 685.237 587.074 685.237 587.214C685.237 587.435 685.202 587.534 685.202 587.737C685.202 587.898 685.237 588.097 685.237 588.218C685.237 588.418 685.202 588.559 685.202 588.719C685.202 588.899 685.237 589.079 685.237 589.2C685.237 627.89 661.392 662.997 618.114 687.948C580.042 709.937 529.948 722.034 477.037 722.034H477.026C423.985 722.034 373.686 709.838 335.437 687.768C291.954 662.676 268.019 627.528 268.019 588.758C268.019 588.598 268.069 588.417 268.069 588.258C268.069 588.117 268.019 587.957 268.019 587.756C268.019 587.617 268.069 587.437 268.069 587.255C268.069 587.136 268.019 586.936 268.019 586.775C268.019 586.596 268.069 586.474 268.069 586.275C268.069 586.134 268.019 585.955 268.019 585.794C268.019 585.613 268.069 585.493 268.069 585.253C268.069 585.152 268.019 584.973 268.019 584.772C268.019 584.613 268.069 584.472 268.069 584.331C268.069 584.152 268.019 583.971 268.019 583.808C268.019 583.628 268.069 583.487 268.069 583.327C268.069 583.147 268.019 582.986 268.019 582.827C268.019 582.667 268.069 582.506 268.069 582.304C268.069 582.145 268.019 581.983 268.019 581.844C268.019 581.663 268.069 581.504 268.069 581.321C268.069 581.16 268.019 580.959 268.019 580.798C268.019 580.678 268.069 580.497 268.069 580.317C268.069 580.156 268.019 579.976 268.019 579.817C268.019 579.676 268.069 579.516 268.069 579.335C268.069 579.176 268.019 579.036 268.019 578.875C268.019 578.695 268.069 578.514 268.069 578.352C268.069 578.153 268.019 578.032 268.019 577.871C268.019 577.692 268.069 577.512 268.069 577.392C268.069 577.19 268.019 577.031 268.019 576.851C268.019 576.67 268.069 576.531 268.069 576.415C268.069 576.194 268.019 576.054 268.019 575.873C268.019 575.734 268.069 575.533 268.069 575.393C268.069 575.233 268.019 575.073 268.019 574.87C268.019 574.75 268.069 574.53 268.069 574.409C268.069 574.23 268.019 574.048 268.019 573.868C268.019 573.749 268.069 573.568 268.069 573.408C268.069 573.228 268.019 573.128 268.019 572.885C268.019 572.766 268.069 572.585 268.069 572.425C268.069 572.225 268.019 572.085 268.019 571.924C268.019 571.744 268.069 571.584 268.069 571.443C268.069 571.244 268.019 571.103 268.019 570.943C268.019 570.763 268.069 570.582 268.069 570.462C268.069 570.242 268.019 570.101 268.019 569.939C268.019 569.759 268.069 569.598 268.069 569.479C268.069 569.278 268.019 569.118 268.019 568.956C268.019 568.775 268.069 568.615 268.069 568.475C268.069 568.294 268.019 568.135 268.019 567.934C268.019 567.815 268.069 567.654 268.069 567.453C268.069 567.294 268.019 567.134 268.019 566.953C268.019 566.813 268.069 566.653 268.069 566.472C268.069 566.312 268.019 566.192 268.019 565.949C268.019 565.829 268.069 565.648 268.069 565.469C268.069 565.308 268.019 565.129 268.019 564.968C268.019 564.788 268.069 564.668 268.069 564.488C268.069 564.309 268.019 564.147 268.019 564.007C268.019 563.847 268.069 563.666 268.069 563.507C268.069 563.305 268.019 563.145 268.019 563.026C268.019 562.845 268.069 562.665 268.069 562.503C268.069 562.363 268.019 562.163 268.019 562.043C268.019 561.841 268.069 561.702 268.069 561.501C268.069 561.362 268.019 561.161 268.019 561.021C268.019 560.841 268.069 560.681 268.069 560.498C268.069 560.378 268.019 560.198 268.019 560.017C268.019 559.857 268.069 559.657 268.069 559.494C268.069 559.375 268.019 559.193 268.019 559.015C268.019 558.863 268.069 558.724 268.069 558.561Z"
					fill="url(#databreachlinear1)"
				/>
				<path
					opacity="0.9"
					d="M335.136 459.371C373.208 437.382 423.283 425.266 476.164 425.266C529.214 425.266 579.535 437.423 617.844 459.532C661.3 484.605 685.236 519.731 685.236 558.542C685.236 597.232 661.391 632.259 618.113 657.273C580.041 679.202 529.947 691.297 477.036 691.358H477.025C423.985 691.358 373.685 679.161 335.436 657.092C291.953 632.019 268.018 596.852 268.018 558.061C268.019 519.372 291.874 484.344 335.136 459.371Z"
					fill="url(#databreachlinear2)"
				/>
				<g style="mix-blend-mode:overlay" opacity="0.85">
					<path
						d="M280.433 558.062C280.433 592.628 302.955 623.953 343.832 646.28C379.82 665.925 427.109 676.784 477.005 676.784C526.759 676.764 573.899 665.97 609.697 646.465C650.409 624.175 672.821 592.973 672.821 558.507C672.821 523.921 650.314 492.66 609.441 470.37C573.418 450.643 526.078 439.83 476.182 439.83C426.467 439.83 379.358 450.603 343.55 470.21C302.854 492.435 280.433 523.637 280.433 558.062ZM304.148 558.083C304.148 527.822 323.875 500.406 359.643 480.862C391.125 463.62 432.541 454.146 476.244 454.146C520.109 454.146 561.717 463.66 593.382 480.982C629.311 500.593 649.107 528.105 649.107 558.465C649.107 588.785 629.398 616.201 593.612 635.788C562.138 652.95 520.714 662.423 476.97 662.458C433.105 662.458 391.528 652.905 359.888 635.643C323.945 615.998 304.148 588.483 304.148 558.083Z"
						fill="#333232"
					/>
				</g>
				<g style="mix-blend-mode:overlay" opacity="0.85">
					<path
						d="M335.437 657.094C373.689 679.163 423.985 691.36 477.026 691.36L477.046 694.664L477.037 691.36C529.947 691.299 580.042 679.204 618.114 657.274C660.841 632.581 684.526 598.116 685.122 560.008C685.137 560.649 685.237 561.27 685.237 561.91C685.237 600.601 661.392 635.628 618.114 660.641C580.042 682.571 529.948 694.666 477.037 694.727H477.026C423.985 694.727 373.686 682.531 335.437 660.461C291.954 635.388 268.019 600.221 268.019 561.429C268.019 560.788 268.119 560.148 268.128 559.506C268.73 597.715 292.515 632.341 335.437 657.094Z"
						fill="#333232"
					/>
				</g>
				<g opacity="0.7">
					<g opacity="0.7">
						<g style="mix-blend-mode:multiply" opacity="0.21">
							<path
								style="mix-blend-mode:multiply"
								opacity="0.21"
								d="M269.271 555.619H266.846V592.147H269.271V555.619Z"
								fill="url(#databreachlinear3)"
							/>
							<path
								style="mix-blend-mode:multiply"
								opacity="0.21"
								d="M269.792 565.392H267.367V602.021H269.792V565.392Z"
								fill="url(#databreachlinear4)"
							/>
							<path
								style="mix-blend-mode:multiply"
								opacity="0.21"
								d="M271.334 574.984H268.91V611.693H271.334V574.984Z"
								fill="url(#databreachlinear5)"
							/>
							<path
								style="mix-blend-mode:multiply"
								opacity="0.21"
								d="M273.88 584.357H271.456V621.145H273.88V584.357Z"
								fill="url(#databreachlinear6)"
							/>
							<path
								style="mix-blend-mode:multiply"
								opacity="0.21"
								d="M277.427 593.509H275.002V630.378H277.427V593.509Z"
								fill="url(#databreachlinear7)"
							/>
							<path
								style="mix-blend-mode:multiply"
								opacity="0.21"
								d="M281.935 602.401H279.51V639.33H281.935V602.401Z"
								fill="url(#databreachlinear8)"
							/>
							<path
								style="mix-blend-mode:multiply"
								opacity="0.21"
								d="M287.405 610.992H284.991V648.021H287.405V610.992Z"
								fill="url(#databreachlinear9)"
							/>
							<path
								style="mix-blend-mode:multiply"
								opacity="0.21"
								d="M293.837 619.305H291.413V656.413H293.837V619.305Z"
								fill="url(#databreachlinear10)"
							/>
							<path
								style="mix-blend-mode:multiply"
								opacity="0.21"
								d="M301.182 627.294H298.757V664.483H301.182V627.294Z"
								fill="url(#databreachlinear11)"
							/>
							<path
								style="mix-blend-mode:multiply"
								opacity="0.21"
								d="M309.437 634.944H307.023V672.214H309.437V634.944Z"
								fill="url(#databreachlinear12)"
							/>
							<path
								style="mix-blend-mode:multiply"
								opacity="0.21"
								d="M318.585 642.214H316.17V679.564H318.585V642.214Z"
								fill="url(#databreachlinear13)"
							/>
							<path
								style="mix-blend-mode:multiply"
								opacity="0.21"
								d="M328.623 649.083H326.199V686.512H328.623V649.083Z"
								fill="url(#databreachlinear14)"
							/>
							<path
								style="mix-blend-mode:multiply"
								opacity="0.21"
								d="M338.803 655.152H336.378V692.662H338.803V655.152Z"
								fill="url(#databreachlinear15)"
							/>
							<path
								style="mix-blend-mode:multiply"
								opacity="0.21"
								d="M347.4 659.678H344.975V697.268H347.4V659.678Z"
								fill="url(#databreachlinear16)"
							/>
							<path
								style="mix-blend-mode:multiply"
								opacity="0.21"
								d="M356.357 663.883H353.931V701.553H356.357V663.883Z"
								fill="url(#databreachlinear17)"
							/>
							<path
								style="mix-blend-mode:multiply"
								opacity="0.21"
								d="M365.655 667.768H363.23V705.519H365.655V667.768Z"
								fill="url(#databreachlinear18)"
							/>
							<path
								style="mix-blend-mode:multiply"
								opacity="0.21"
								d="M375.252 671.313H372.838V709.163H375.252V671.313Z"
								fill="url(#databreachlinear19)"
							/>
							<path
								style="mix-blend-mode:multiply"
								opacity="0.21"
								d="M385.151 674.538H382.727V712.468H385.151V674.538Z"
								fill="url(#databreachlinear20)"
							/>
							<path
								style="mix-blend-mode:multiply"
								opacity="0.21"
								d="M395.321 677.421H392.896V715.411H395.321V677.421Z"
								fill="url(#databreachlinear21)"
							/>
							<path
								style="mix-blend-mode:multiply"
								opacity="0.21"
								d="M405.721 679.944H403.305V718.035H405.721V679.944Z"
								fill="url(#databreachlinear22)"
							/>
							<path
								style="mix-blend-mode:multiply"
								opacity="0.21"
								d="M416.35 682.127H413.937V720.298H416.35V682.127Z"
								fill="url(#databreachlinear23)"
							/>
							<path
								style="mix-blend-mode:multiply"
								opacity="0.21"
								d="M427.191 683.949H424.766V722.22H427.191V683.949Z"
								fill="url(#databreachlinear24)"
							/>
							<path
								style="mix-blend-mode:multiply"
								opacity="0.21"
								d="M438.223 685.432H435.798V723.764H438.223V685.432Z"
								fill="url(#databreachlinear25)"
							/>
							<path
								style="mix-blend-mode:multiply"
								opacity="0.21"
								d="M449.393 686.533H446.979V724.924H449.393V686.533Z"
								fill="url(#databreachlinear26)"
							/>
							<path
								style="mix-blend-mode:multiply"
								opacity="0.21"
								d="M460.725 687.253H458.311V725.745H460.725V687.253Z"
								fill="url(#databreachlinear27)"
							/>
							<path
								style="mix-blend-mode:multiply"
								opacity="0.21"
								d="M472.166 687.615H469.742V726.186H472.166V687.615Z"
								fill="url(#databreachlinear28)"
							/>
							<path
								style="mix-blend-mode:multiply"
								opacity="0.21"
								d="M483.699 687.575H481.273V726.227H483.699V687.575Z"
								fill="url(#databreachlinear29)"
							/>
							<path
								style="mix-blend-mode:multiply"
								opacity="0.21"
								d="M495.161 687.153H492.736V725.885H495.161V687.153Z"
								fill="url(#databreachlinear30)"
							/>
							<path
								style="mix-blend-mode:multiply"
								opacity="0.21"
								d="M506.502 686.353H504.078V725.164H506.502V686.353Z"
								fill="url(#databreachlinear31)"
							/>
							<path
								style="mix-blend-mode:multiply"
								opacity="0.21"
								d="M517.693 685.172H515.279V724.084H517.693V685.172Z"
								fill="url(#databreachlinear32)"
							/>
							<path
								style="mix-blend-mode:multiply"
								opacity="0.21"
								d="M528.724 683.649H526.31V722.621H528.724V683.649Z"
								fill="url(#databreachlinear33)"
							/>
							<path
								style="mix-blend-mode:multiply"
								opacity="0.21"
								d="M539.58 681.747H537.161V720.819H539.58V681.747Z"
								fill="url(#databreachlinear34)"
							/>
							<path
								style="mix-blend-mode:multiply"
								opacity="0.21"
								d="M550.224 679.505H547.805V718.636H550.224V679.505Z"
								fill="url(#databreachlinear35)"
							/>
							<path
								style="mix-blend-mode:multiply"
								opacity="0.21"
								d="M560.645 676.9H558.22V716.133H560.645V676.9Z"
								fill="url(#databreachlinear36)"
							/>
							<path
								style="mix-blend-mode:multiply"
								opacity="0.21"
								d="M570.81 673.956H568.385V713.249H570.81V673.956Z"
								fill="url(#databreachlinear37)"
							/>
							<path
								style="mix-blend-mode:multiply"
								opacity="0.21"
								d="M580.703 670.672H578.284V710.064H580.703V670.672Z"
								fill="url(#databreachlinear38)"
							/>
							<path
								style="mix-blend-mode:multiply"
								opacity="0.21"
								d="M590.312 667.047H587.892V706.52H590.312V667.047Z"
								fill="url(#databreachlinear39)"
							/>
							<path
								style="mix-blend-mode:multiply"
								opacity="0.21"
								d="M599.604 663.101H597.18V702.654H599.604V663.101Z"
								fill="url(#databreachlinear40)"
							/>
							<path
								style="mix-blend-mode:multiply"
								opacity="0.21"
								d="M608.562 658.816H606.141V698.449H608.562V658.816Z"
								fill="url(#databreachlinear41)"
							/>
							<path
								style="mix-blend-mode:multiply"
								opacity="0.21"
								d="M617.162 654.23H614.737V693.963H617.162V654.23Z"
								fill="url(#databreachlinear42)"
							/>
							<path
								style="mix-blend-mode:multiply"
								opacity="0.21"
								d="M627.293 648.102H624.873V687.915H627.293V648.102Z"
								fill="url(#databreachlinear43)"
							/>
							<path
								style="mix-blend-mode:multiply"
								opacity="0.21"
								d="M637.286 641.133H634.865V681.025H637.286V641.133Z"
								fill="url(#databreachlinear44)"
							/>
							<path
								style="mix-blend-mode:multiply"
								opacity="0.21"
								d="M646.404 633.783H643.989V673.737H646.404V633.783Z"
								fill="url(#databreachlinear45)"
							/>
							<path
								style="mix-blend-mode:multiply"
								opacity="0.21"
								d="M654.639 626.032H652.215V666.086H654.639V626.032Z"
								fill="url(#databreachlinear46)"
							/>
							<path
								style="mix-blend-mode:multiply"
								opacity="0.21"
								d="M661.959 617.941H659.538V658.075H661.959V617.941Z"
								fill="url(#databreachlinear47)"
							/>
							<path
								style="mix-blend-mode:multiply"
								opacity="0.21"
								d="M668.355 609.511H665.936V649.725H668.355V609.511Z"
								fill="url(#databreachlinear48)"
							/>
							<path
								style="mix-blend-mode:multiply"
								opacity="0.21"
								d="M673.815 600.8H671.396V641.093H673.815V600.8Z"
								fill="url(#databreachlinear49)"
							/>
							<path
								style="mix-blend-mode:multiply"
								opacity="0.21"
								d="M678.319 591.787H675.895V632.161H678.319V591.787Z"
								fill="url(#databreachlinear50)"
							/>
							<path
								style="mix-blend-mode:multiply"
								opacity="0.21"
								d="M681.846 582.535H679.432V623.009H681.846V582.535Z"
								fill="url(#databreachlinear51)"
							/>
							<path
								style="mix-blend-mode:multiply"
								opacity="0.21"
								d="M684.396 573.063H681.971V613.597H684.396V573.063Z"
								fill="url(#databreachlinear52)"
							/>
							<path
								style="mix-blend-mode:multiply"
								opacity="0.21"
								d="M685.929 563.389H683.51V604.004H685.929V563.389Z"
								fill="url(#databreachlinear53)"
							/>
							<path
								style="mix-blend-mode:multiply"
								opacity="0.21"
								d="M686.444 553.536H684.024V594.23H686.444V553.536Z"
								fill="url(#databreachlinear54)"
							/>
						</g>
					</g>
				</g>
			</g>
		</g>
		<g opacity="0.9">
			<path
				opacity="0.9"
				d="M469 753.498C607.456 753.498 719.697 676.742 719.697 582.059C719.697 487.376 607.456 410.62 469 410.62C330.544 410.62 218.303 487.376 218.303 582.059C218.303 676.742 330.544 753.498 469 753.498Z"
				stroke="url(#databreachlinear55)"
				stroke-width="2"
				stroke-miterlimit="10"
			/>
			<path
				opacity="0.9"
				d="M469 776.588C624.611 776.588 750.759 690.322 750.759 583.908C750.759 477.493 624.611 391.228 469 391.228C313.389 391.228 187.241 477.493 187.241 583.908C187.241 690.322 313.389 776.588 469 776.588Z"
				stroke="url(#databreachlinear56)"
				stroke-width="2"
				stroke-miterlimit="10"
			/>
			<path
				opacity="0.8"
				d="M469 799.678C641.766 799.678 781.82 703.902 781.82 585.756C781.82 467.611 641.766 371.834 469 371.834C296.234 371.834 156.179 467.611 156.179 585.756C156.179 703.902 296.234 799.678 469 799.678Z"
				stroke="url(#databreachlinear57)"
				stroke-width="2"
				stroke-miterlimit="10"
			/>
			<path
				opacity="0.7"
				d="M469 822.767C658.92 822.767 812.882 717.482 812.882 587.605C812.882 457.728 658.92 352.442 469 352.442C279.079 352.442 125.118 457.728 125.118 587.605C125.118 717.482 279.079 822.767 469 822.767Z"
				stroke="url(#databreachlinear58)"
				stroke-width="2"
				stroke-miterlimit="10"
			/>
			<path
				opacity="0.6"
				d="M469 845.859C676.075 845.859 843.943 731.063 843.943 589.454C843.943 447.846 676.075 333.05 469 333.05C261.925 333.05 94.0569 447.846 94.0569 589.454C94.0569 731.063 261.925 845.859 469 845.859Z"
				stroke="url(#databreachlinear59)"
				stroke-width="2"
				stroke-miterlimit="10"
			/>
			<path
				opacity="0.5"
				d="M469 868.947C693.23 868.947 875.005 744.641 875.005 591.302C875.005 437.962 693.23 313.656 469 313.656C244.769 313.656 62.9946 437.962 62.9946 591.302C62.9946 744.641 244.769 868.947 469 868.947Z"
				stroke="url(#databreachlinear60)"
				stroke-width="2"
				stroke-miterlimit="10"
			/>
			<path
				opacity="0.4"
				d="M469 892.037C710.385 892.037 906.066 758.221 906.066 593.15C906.066 428.08 710.385 294.264 469 294.264C227.615 294.264 31.9333 428.08 31.9333 593.15C31.9333 758.221 227.615 892.037 469 892.037Z"
				stroke="url(#databreachlinear61)"
				stroke-width="2"
				stroke-miterlimit="10"
			/>
			<path
				opacity="0.3"
				d="M469 915.128C727.54 915.128 937.128 771.802 937.128 595C937.128 418.198 727.54 274.872 469 274.872C210.46 274.872 0.87207 418.198 0.87207 595C0.87207 771.802 210.46 915.128 469 915.128Z"
				stroke="url(#databreachlinear62)"
				stroke-width="2"
				stroke-miterlimit="10"
			/>
		</g>
		<path
			opacity="0.5"
			d="M533.61 470.025L434.482 412.879C434.482 412.879 437.911 410.292 439.676 411.189L537.496 467.643C537.651 467.731 537.78 467.858 537.869 468.012C537.959 468.166 538.006 468.34 538.006 468.518V589.649C538.006 591.15 534.121 593.322 534.121 593.322V470.902C534.12 470.724 534.072 470.549 533.983 470.396C533.893 470.242 533.765 470.114 533.61 470.025Z"
			fill="url(#databreachlinear63)"
		/>
		<path
			opacity="0.49"
			d="M534.137 470.941V592.988C534.137 593.165 534.09 593.34 534.001 593.494C533.912 593.647 533.783 593.775 533.629 593.864C533.475 593.952 533.3 593.999 533.122 593.999C532.944 593.999 532.768 593.952 532.614 593.863L433.51 536.371C433.355 536.282 433.226 536.155 433.137 536.001C433.047 535.847 433 535.672 433 535.494L433.274 413.905C433.274 413.728 433.321 413.554 433.41 413.4C433.5 413.247 433.628 413.119 433.782 413.031C433.936 412.942 434.111 412.895 434.289 412.896C434.467 412.896 434.642 412.942 434.796 413.031L533.626 470.065C533.781 470.154 533.91 470.281 534 470.435C534.089 470.588 534.136 470.763 534.137 470.941Z"
			fill="url(#databreachlinear64)"
		/>
		<g clip-path="url(#databreachclip1)">
			<path
				opacity="0.5"
				d="M516.607 490.025L417.479 432.879C417.479 432.879 420.907 430.292 422.673 431.189L520.493 487.643C520.648 487.731 520.776 487.858 520.866 488.012C520.955 488.166 521.003 488.34 521.003 488.518V609.649C521.003 611.15 517.118 613.322 517.118 613.322V490.902C517.117 490.724 517.069 490.549 516.98 490.396C516.89 490.242 516.762 490.114 516.607 490.025Z"
				fill="url(#databreachlinear65)"
			/>
			<path
				opacity="0.49"
				d="M517.133 490.941V612.988C517.133 613.165 517.087 613.34 516.998 613.494C516.909 613.647 516.78 613.775 516.626 613.864C516.472 613.952 516.297 613.999 516.119 613.999C515.94 613.999 515.765 613.952 515.611 613.863L416.507 556.371C416.352 556.282 416.223 556.155 416.134 556.001C416.044 555.847 415.997 555.672 415.997 555.494L416.271 433.905C416.271 433.728 416.318 433.554 416.407 433.4C416.496 433.247 416.624 433.119 416.779 433.031C416.933 432.942 417.108 432.895 417.286 432.896C417.464 432.896 417.639 432.942 417.793 433.031L516.623 490.065C516.778 490.154 516.907 490.281 516.996 490.435C517.086 490.588 517.133 490.763 517.133 490.941Z"
				fill="url(#databreachlinear66)"
			/>
			<g style="mix-blend-mode:screen">
				<g style="mix-blend-mode:screen">
					<path
						d="M468.717 552.174L432.221 530.733C431.385 530.243 430.707 528.784 430.707 527.479V482.488L495.079 520.304V526.217C495.079 527.843 495.93 529.674 496.972 530.285C498.013 530.897 498.864 530.067 498.864 528.438V507.126C498.864 502.568 496.485 497.45 493.57 495.738L432.222 459.697C429.29 457.976 426.927 460.307 426.927 464.865V525.255C426.927 529.813 429.306 534.931 432.222 536.644L468.734 558.094C469.774 558.705 470.627 557.877 470.627 556.248C470.627 554.62 469.776 552.792 468.72 552.172L468.717 552.174ZM432.221 465.61L493.568 501.65C494.403 502.14 495.081 503.599 495.081 504.904V514.39L430.692 476.564V467.077C430.692 465.771 431.385 465.118 432.221 465.61Z"
						fill="white"
					/>
				</g>
				<g style="mix-blend-mode:screen">
					<path
						d="M464.777 524.457C464.777 522.83 463.926 521 462.884 520.39L440.161 507.042C439.121 506.432 438.268 507.26 438.268 508.888C438.268 510.517 439.118 512.346 440.161 512.956L462.884 526.303C463.941 526.924 464.777 526.086 464.777 524.457V524.457Z"
						fill="white"
					/>
				</g>
				<g style="mix-blend-mode:screen">
					<path
						d="M440.162 517.635C439.123 517.023 438.269 517.852 438.269 519.48C438.269 521.108 439.12 522.937 440.162 523.548L449.255 528.889C450.295 529.5 451.148 528.672 451.148 527.043C451.148 525.415 450.297 523.587 449.255 522.976L440.162 517.635Z"
						fill="white"
					/>
				</g>
				<g style="mix-blend-mode:screen">
					<path
						d="M439.942 502.106L462.666 515.453C463.706 516.064 464.559 515.235 464.559 513.607C464.559 511.978 463.708 510.151 462.666 509.54L439.942 496.193C438.902 495.582 438.049 496.411 438.049 498.039C438.049 499.666 438.884 501.486 439.942 502.107V502.106Z"
						fill="white"
					/>
				</g>
				<g style="mix-blend-mode:screen">
					<path
						d="M501.983 558.905L499.21 557.275V550.377C499.21 541.827 494.75 532.234 489.282 529.021C483.813 525.808 479.354 530.162 479.354 538.712V545.61L476.58 543.98C475.541 543.37 474.688 544.198 474.688 545.827V571.452C474.688 573.078 475.538 574.908 476.58 575.519L501.968 590.433C503.007 591.044 503.861 590.216 503.861 588.587V562.963C503.877 561.322 503.026 559.515 501.985 558.905H501.983ZM483.139 540.905C483.139 535.61 485.897 532.916 489.285 534.907C492.673 536.897 495.432 542.829 495.432 548.126V555.026L483.139 547.805V540.905ZM500.096 583.39L478.474 570.688V550.978L500.079 563.672V583.383L500.096 583.39Z"
						fill="white"
					/>
				</g>
			</g>
		</g>
	</g>
	<g opacity="0.9">
		<path
			d="M299.906 262.446L300.998 371.091L197.332 403L196.239 294.355L299.906 262.446Z"
			fill="url(#databreachlinear67)"
		/>
		<path
			d="M197.333 403L129.094 353.558L128.002 244.913L196.242 294.358L197.333 403Z"
			fill="url(#databreachlinear68)"
		/>
		<path d="M196.24 294.354L128 244.909L231.667 213L299.905 262.446L196.24 294.354Z" fill="url(#databreachlinear69)" />
	</g>
	<g opacity="0.9">
		<path
			d="M703.767 286.691L704.998 409.061L588.149 445L586.917 322.631L703.767 286.691Z"
			fill="url(#databreachlinear70)"
		/>
		<path d="M588.15 445L511.234 389.313L510.003 266.944L586.921 322.635L588.15 445Z" fill="url(#databreachlinear71)" />
		<path
			d="M586.918 322.631L510 266.939L626.85 231L703.766 286.691L586.918 322.631Z"
			fill="url(#databreachlinear72)"
		/>
	</g>
	<g clip-path="url(#databreachclip2)">
		<g opacity="0.7">
			<g opacity="0.7">
				<path
					opacity="0.7"
					d="M287.824 104.615L313.143 120.2L313.246 117.948L287.927 102.363L287.824 104.615Z"
					fill="white"
				/>
				<path
					opacity="0.7"
					d="M275.579 97.0775L286.163 103.593L286.265 101.342L275.682 94.8262L275.579 97.0775Z"
					fill="white"
				/>
				<path
					opacity="0.7"
					d="M222.998 69.3397L319.52 128.754L319.623 126.503L223.097 67.0884L222.998 69.3397Z"
					fill="white"
				/>
				<path
					opacity="0.7"
					d="M234.945 81.6551L307.13 126.089L307.233 123.838L235.048 79.4045L234.945 81.6551Z"
					fill="white"
				/>
				<path
					opacity="0.7"
					d="M227.699 77.1942L234.167 81.1758L234.27 78.9244L227.802 74.9429L227.699 77.1942Z"
					fill="white"
				/>
				<path
					opacity="0.7"
					d="M234.73 86.3727L306.915 130.806L307.018 128.555L234.833 84.1213L234.73 86.3727Z"
					fill="white"
				/>
				<path
					opacity="0.7"
					d="M233.456 114.249L305.641 158.682L305.744 156.431L233.559 111.998L233.456 114.249Z"
					fill="white"
				/>
				<path
					opacity="0.7"
					d="M233.24 118.965L305.425 163.399L305.528 161.148L233.343 116.714L233.24 118.965Z"
					fill="white"
				/>
				<path
					opacity="0.7"
					d="M227.484 81.9117L233.952 85.8934L234.054 83.642L227.587 79.6604L227.484 81.9117Z"
					fill="white"
				/>
				<path
					opacity="0.7"
					d="M234.514 91.0901L306.699 135.523L306.802 133.272L234.617 88.8386L234.514 91.0901Z"
					fill="white"
				/>
				<path
					opacity="0.7"
					d="M227.268 86.6293L233.736 90.6108L233.839 88.3595L227.372 84.3779L227.268 86.6293Z"
					fill="white"
				/>
				<path
					opacity="0.7"
					d="M262.506 89.0294L273.09 95.5448L273.193 93.2934L262.609 86.7781L262.506 89.0294Z"
					fill="white"
				/>
				<path
					opacity="0.7"
					d="M286.413 135.493L311.731 151.078L311.834 148.826L286.516 133.241L286.413 135.493Z"
					fill="white"
				/>
				<path
					opacity="0.7"
					d="M274.169 127.956L284.753 134.471L284.855 132.22L274.272 125.704L274.169 127.956Z"
					fill="white"
				/>
				<path
					opacity="0.7"
					d="M221.585 100.218L318.108 159.632L318.211 157.381L221.688 97.9666L221.585 100.218Z"
					fill="white"
				/>
				<path
					opacity="0.7"
					d="M261.094 119.908L271.678 126.423L271.781 124.172L261.197 117.656L261.094 119.908Z"
					fill="white"
				/>
				<path
					opacity="0.7"
					d="M249.432 80.9816L260.016 87.4969L260.119 85.2456L249.535 78.7302L249.432 80.9816Z"
					fill="white"
				/>
				<path
					opacity="0.7"
					d="M236.98 73.317L247.564 79.8314L247.667 77.5801L237.083 71.0657L236.98 73.317Z"
					fill="white"
				/>
				<path
					opacity="0.7"
					d="M228.143 67.8773L235.113 72.167L235.215 69.9157L228.246 65.626L228.143 67.8773Z"
					fill="white"
				/>
				<path
					opacity="0.7"
					d="M284.031 187.599L309.349 203.184L309.452 200.933L284.133 185.348L284.031 187.599Z"
					fill="white"
				/>
				<path
					opacity="0.7"
					d="M271.786 180.063L282.37 186.578L282.473 184.326L271.889 177.812L271.786 180.063Z"
					fill="white"
				/>
				<path
					opacity="0.7"
					d="M258.712 172.015L269.296 178.53L269.399 176.278L258.815 169.764L258.712 172.015Z"
					fill="white"
				/>
				<path
					opacity="0.7"
					d="M245.638 163.967L256.222 170.482L256.325 168.231L245.741 161.717L245.638 163.967Z"
					fill="white"
				/>
				<path
					opacity="0.7"
					d="M233.187 156.302L243.77 162.817L243.873 160.566L233.289 154.05L233.187 156.302Z"
					fill="white"
				/>
				<path
					opacity="0.7"
					d="M224.349 150.863L231.319 155.153L231.422 152.901L224.452 148.612L224.349 150.863Z"
					fill="white"
				/>
				<path
					opacity="0.7"
					d="M292.523 132.198L326.382 153.041L326.485 150.789L292.626 129.947L292.523 132.198Z"
					fill="white"
				/>
				<path
					opacity="0.7"
					d="M276.148 122.119L290.303 130.832L290.406 128.58L276.251 119.867L276.148 122.119Z"
					fill="white"
				/>
				<path
					opacity="0.7"
					d="M258.663 111.357L272.818 120.069L272.921 117.818L258.766 109.105L258.663 111.357Z"
					fill="white"
				/>
				<path
					opacity="0.7"
					d="M241.178 100.594L255.333 109.306L255.436 107.055L241.281 98.3423L241.178 100.594Z"
					fill="white"
				/>
				<path
					opacity="0.7"
					d="M224.526 90.3405L238.681 99.0533L238.784 96.8019L224.629 88.0891L224.526 90.3405Z"
					fill="white"
				/>
				<path
					opacity="0.7"
					d="M273.14 150.471L283.724 156.986L283.826 154.735L273.243 148.22L273.14 150.471Z"
					fill="white"
				/>
				<path
					opacity="0.7"
					d="M220.557 122.733L317.079 182.148L317.182 179.896L220.66 120.482L220.557 122.733Z"
					fill="white"
				/>
				<path
					opacity="0.7"
					d="M219.116 154.255L315.638 213.669L315.741 211.418L219.219 152.003L219.116 154.255Z"
					fill="white"
				/>
				<path
					opacity="0.7"
					d="M218.851 160.045L315.373 219.459L315.476 217.207L218.954 157.793L218.851 160.045Z"
					fill="white"
				/>
				<path
					opacity="0.7"
					d="M218.586 165.834L315.108 225.249L315.211 222.997L218.689 163.583L218.586 165.834Z"
					fill="white"
				/>
				<path
					opacity="0.7"
					d="M232.505 135.048L304.69 179.482L304.793 177.23L232.608 132.797L232.505 135.048Z"
					fill="white"
				/>
				<path
					opacity="0.7"
					d="M232.289 139.766L304.474 184.199L304.577 181.948L232.391 137.515L232.289 139.766Z"
					fill="white"
				/>
				<path
					opacity="0.7"
					d="M232.073 144.484L304.258 188.917L304.361 186.665L232.176 142.232L232.073 144.484Z"
					fill="white"
				/>
				<path
					opacity="0.7"
					d="M276.747 206.926L302.705 222.905L302.808 220.653L276.849 204.675L276.747 206.926Z"
					fill="white"
				/>
				<path
					opacity="0.7"
					d="M276.531 211.644L302.489 227.622L302.592 225.371L276.633 209.392L276.531 211.644Z"
					fill="white"
				/>
				<path
					opacity="0.7"
					d="M276.315 216.36L302.274 232.339L302.377 230.088L276.419 214.109L276.315 216.36Z"
					fill="white"
				/>
				<path
					opacity="0.7"
					d="M260.065 142.423L270.649 148.938L270.752 146.687L260.168 140.172L260.065 142.423Z"
					fill="white"
				/>
				<path
					opacity="0.7"
					d="M246.99 134.375L257.574 140.89L257.677 138.639L247.093 132.124L246.99 134.375Z"
					fill="white"
				/>
				<path
					opacity="0.7"
					d="M234.539 126.708L245.123 133.223L245.226 130.972L234.642 124.458L234.539 126.708Z"
					fill="white"
				/>
				<path
					opacity="0.7"
					d="M256.222 164.75L270.377 173.463L270.48 171.212L256.325 162.499L256.222 164.75Z"
					fill="white"
				/>
				<path
					opacity="0.7"
					d="M238.738 153.987L252.892 162.7L252.995 160.448L238.84 151.736L238.738 153.987Z"
					fill="white"
				/>
				<path
					opacity="0.7"
					d="M222.085 143.736L236.24 152.449L236.343 150.198L222.188 141.485L222.085 143.736Z"
					fill="white"
				/>
				<path
					opacity="0.7"
					d="M212.708 83.067L222.028 88.8003L222.131 86.549L212.811 80.8157L212.708 83.067Z"
					fill="white"
				/>
			</g>
		</g>
	</g>
	<g opacity="0.9">
		<path
			d="M527.007 100.022L527.999 198.946L433.92 228L432.928 129.075L527.007 100.022Z"
			fill="url(#databreachlinear73)"
		/>
		<path
			d="M433.921 228L371.993 182.982L371.002 84.0574L432.931 129.079L433.921 228Z"
			fill="url(#databreachlinear74)"
		/>
		<path
			d="M432.929 129.075L371 84.0537L465.079 55L527.007 100.022L432.929 129.075Z"
			fill="url(#databreachlinear75)"
		/>
	</g>
	<g opacity="0.5" clip-path="url(#databreachclip3)">
		<g opacity="0.9">
			<path
				opacity="0.3"
				d="M635.243 51.6922C639.239 54.392 642.773 57.7211 645.708 61.5507L647.364 57.8365C644.158 53.6091 640.271 49.9462 635.862 46.9975L635.243 51.6922ZM655.67 157.234C653.592 161.589 650.818 165.576 647.457 169.036L649.032 173.491C652.741 169.706 655.789 165.325 658.051 160.532L655.67 157.234ZM590.972 67.8888C588.613 73.8479 586.934 80.0539 585.967 86.3885L588.8 88.0219C589.695 82.2607 591.225 76.6155 593.362 71.1897L590.972 67.8888ZM602.426 74.7699C601.873 75.7618 601.338 76.8164 600.836 77.9428C600.286 79.1754 599.787 80.4512 599.324 81.7588C599.166 82.2061 599.038 82.6472 598.891 83.0994C598.598 83.9846 598.316 84.8752 598.069 85.7808C597.919 86.3241 597.782 86.8911 597.647 87.4411C597.442 88.2729 597.247 89.1109 597.066 89.972C596.942 90.5819 596.825 91.195 596.716 91.8112C596.569 92.6142 596.44 93.4441 596.324 94.2608C596.226 94.9365 596.129 95.5974 596.053 96.2645C595.959 97.0541 595.894 97.838 595.824 98.6379C595.764 99.3502 595.693 100.057 595.646 100.794C595.613 101.426 595.6 102.086 595.578 102.722C595.512 104.578 595.504 106.423 595.555 108.292C595.564 108.666 595.557 109.032 595.576 109.392C595.619 110.464 595.699 111.535 595.783 112.607C595.811 113.008 595.836 113.407 595.873 113.812C595.973 114.91 596.099 116.001 596.241 117.099C596.279 117.448 596.32 117.799 596.372 118.136C596.532 119.299 596.721 120.435 596.925 121.579C596.964 121.8 597.004 122.021 597.04 122.241C598.238 128.814 600.264 135.206 603.072 141.264C603.084 141.289 603.089 141.309 603.104 141.316C604.583 144.498 606.348 147.537 608.377 150.397C610.189 152.92 612.29 155.221 614.637 157.253C614.641 157.262 614.647 157.27 614.653 157.276C614.66 157.282 614.668 157.287 614.677 157.289C621.289 162.973 628.49 164.557 635.02 162.185C635.027 162.17 635.031 162.172 635.031 162.172C640.955 160.026 646.328 154.663 650.163 146.063C659.6 124.901 656.212 92.4057 642.62 73.6122C630.425 56.7731 614.112 56.6497 604.064 72.0507L604.054 72.064C603.498 72.9201 602.945 73.8192 602.426 74.7699ZM604.465 73.204C614.257 57.9838 630.254 58.0406 642.201 74.5477C655.475 92.8646 658.776 124.585 649.566 145.237C645.794 153.698 640.482 158.962 634.627 161.027L633.837 158.717C628.064 160.613 621.758 159.206 615.924 154.368L615.069 156.297C612.706 154.287 610.597 151.994 608.791 149.469C606.758 146.604 604.997 143.555 603.53 140.361L604.383 138.449C596.341 120.894 595.253 96.9424 602.627 80.4057C603.388 78.7169 604.269 77.0844 605.262 75.5207L604.465 73.204ZM617.873 110.317L609.167 108.376C609.114 117.258 611.569 126.52 616.18 132.9L621.149 121.756C618.996 118.781 617.858 114.449 617.877 110.319L617.873 110.317ZM626.932 99.5923C628.092 100.248 629.088 101.16 629.843 102.259L634.821 91.0974C633.203 88.7422 631.063 86.7949 628.567 85.4079L626.932 99.5923Z"
				fill="#625FF5"
			/>
			<path
				opacity="0.9"
				d="M662.194 135.994C661.3 141.755 659.772 147.4 657.637 152.827L660.022 156.127C662.386 150.163 664.067 143.952 665.034 137.611L662.194 135.994ZM620.462 47.133C624.423 47.0727 628.337 47.9747 631.87 49.7616L632.489 45.0677C628.612 43.0868 624.306 42.093 619.951 42.1739L620.462 47.133ZM656.477 81.0047L658.916 78.841C656.665 72.8341 653.74 67.1036 650.197 61.7595L648.541 65.4741C651.748 70.342 654.409 75.5504 656.476 81.0045L656.477 81.0047ZM588.073 93.5922L585.232 91.9741C584.524 99.0375 584.454 106.15 585.023 113.223L587.884 112.927C587.374 106.49 587.437 100.019 588.073 93.5909L588.073 93.5922ZM592.938 63.4802L595.334 66.7662C597.407 62.4144 600.179 58.4322 603.54 54.9785L601.968 50.5072C598.256 54.2969 595.204 58.6821 592.938 63.4802ZM644.556 171.605C641.466 174.083 637.82 175.768 633.935 176.514L634.45 181.474C638.727 180.669 642.74 178.815 646.13 176.077L644.556 171.605ZM594.529 142.996L592.086 145.158C594.334 151.171 597.258 156.907 600.801 162.256L602.458 158.542C599.255 153.666 596.596 148.453 594.528 142.995L594.529 142.996ZM630.538 176.866C626.578 176.927 622.663 176.025 619.13 174.237L618.512 178.932C622.388 180.92 626.697 181.915 631.054 181.827L630.538 176.866ZM596.966 72.5753C586.037 97.0816 589.956 134.693 605.694 156.42C621.429 178.162 643.118 175.916 654.039 151.426C664.967 126.92 661.049 89.3076 645.31 67.581C629.575 45.8379 607.887 48.0846 596.966 72.5753ZM597.556 73.4102C608.25 49.429 629.491 47.2232 644.898 68.506C660.305 89.7888 664.14 126.606 653.446 150.588C642.744 174.586 621.514 176.777 606.107 155.495C590.699 134.212 586.861 97.3925 597.556 73.4102ZM620.92 105.689C619.178 109.605 619.798 115.647 622.326 119.121C624.848 122.61 628.32 122.255 630.072 118.325C631.825 114.396 631.199 108.369 628.677 104.879C626.149 101.406 622.673 101.758 620.921 105.689L620.92 105.689ZM607.602 87.277C600.749 102.644 603.206 126.226 613.075 139.866C622.944 153.506 636.546 152.088 643.402 136.723C650.258 121.359 647.797 97.7744 637.921 84.1498C628.055 70.5116 614.454 71.9111 607.602 87.2772L607.602 87.277ZM608.796 88.9187C615.188 74.5851 627.88 73.2792 637.096 85.9988C646.313 98.7185 648.596 120.746 642.204 135.08C635.812 149.414 623.112 150.735 613.907 138.001C604.691 125.281 602.4 103.269 608.797 88.919L608.796 88.9187ZM622.773 84.1206C618.59 84.4723 614.677 87.6237 612.072 93.4653C611.776 94.1286 611.509 94.8218 611.26 95.5231L618.89 104.34C619.008 104.005 619.098 103.656 619.235 103.348C620.452 100.62 622.278 99.1622 624.231 98.998L622.773 84.1206ZM626.776 125.003C625.836 125.074 624.896 124.867 624.073 124.408L622.432 138.606C624.203 139.58 626.218 140.023 628.236 139.882L626.776 125.003ZM632.12 119.644L639.739 128.477C641.145 124.339 641.851 119.996 641.829 115.627L633.123 113.686C633.118 115.713 632.779 117.726 632.121 119.645L632.12 119.644ZM649.399 100.354C649.548 100.217 649.652 100.039 649.698 99.8415C649.744 99.6444 649.73 99.4381 649.657 99.2496C649.544 98.811 649.26 98.5917 648.985 98.6911C648.734 98.8193 648.624 99.3246 648.73 99.7785C648.762 99.9221 648.817 100.059 648.895 100.184C649.038 100.378 649.235 100.466 649.4 100.355L649.399 100.354ZM643.398 84.0606C643.484 83.8652 643.525 83.6535 643.519 83.4405C643.514 83.2275 643.462 83.0185 643.367 82.8279C643.144 82.4697 642.836 82.3869 642.643 82.7262C642.552 82.9196 642.507 83.1315 642.511 83.3453C642.516 83.5591 642.57 83.7687 642.67 83.9577L642.743 84.0639C642.932 84.3332 643.224 84.371 643.399 84.0609L643.398 84.0606ZM650.85 105.4L650.887 105.397C650.799 104.914 650.518 104.585 650.243 104.685C649.982 104.753 649.82 105.198 649.896 105.638C649.907 105.829 649.972 106.012 650.084 106.166C650.129 106.241 650.193 106.302 650.27 106.343C650.347 106.383 650.433 106.402 650.52 106.398C650.785 106.331 650.936 105.899 650.85 105.4L650.85 105.4ZM645.794 89.0645C645.913 88.886 645.983 88.6796 645.998 88.4656C646.012 88.2516 645.971 88.0376 645.877 87.8451C645.691 87.4854 645.392 87.3701 645.172 87.6048C645.06 87.7837 644.994 87.988 644.982 88.1988C644.969 88.4097 645.01 88.6202 645.1 88.8109C645.104 88.8863 645.156 88.9464 645.197 89.0196C645.369 89.245 645.616 89.2998 645.793 89.067L645.794 89.0645ZM647.821 94.5514C647.948 94.3925 648.031 94.2025 648.06 94.001C648.089 93.7995 648.064 93.5938 647.987 93.4056C647.836 92.9685 647.534 92.7781 647.287 92.9822C647.16 93.1415 647.078 93.3317 647.049 93.5332C647.019 93.7347 647.044 93.9402 647.121 94.1286C647.156 94.2262 647.208 94.3173 647.272 94.3985C647.444 94.6235 647.65 94.6784 647.822 94.5516L647.821 94.5514ZM651.291 118.68C651.576 118.733 651.814 118.376 651.782 117.92C651.811 117.433 651.587 116.983 651.296 116.945C651.018 116.877 650.787 117.217 650.776 117.675C650.771 117.954 650.852 118.229 651.007 118.46C651.037 118.515 651.078 118.562 651.127 118.599C651.176 118.637 651.233 118.664 651.293 118.678L651.291 118.68ZM647.629 140.642C647.711 140.441 647.74 140.223 647.714 140.008C647.689 139.793 647.609 139.588 647.483 139.412C647.243 139.082 646.944 139.153 646.779 139.523C646.706 139.726 646.681 139.942 646.707 140.156C646.733 140.37 646.807 140.574 646.926 140.753C646.967 140.817 647.026 140.867 647.095 140.898C647.164 140.929 647.24 140.939 647.315 140.927C647.39 140.915 647.459 140.882 647.516 140.831C647.572 140.78 647.612 140.714 647.632 140.641L647.629 140.642ZM651.142 112.534C651.419 112.511 651.629 112.123 651.578 111.639C651.551 111.183 651.307 110.779 651.015 110.814C650.757 110.792 650.527 111.225 650.578 111.71C650.606 111.927 650.687 112.134 650.812 112.313C650.906 112.446 651.015 112.553 651.144 112.533L651.142 112.534ZM644.72 145.092C644.737 145.119 644.748 145.149 644.754 145.181C644.971 145.48 645.276 145.487 645.444 145.193C645.536 144.999 645.578 144.784 645.567 144.57C645.556 144.355 645.491 144.147 645.38 143.963C645.184 143.617 644.855 143.58 644.675 143.889C644.589 144.08 644.548 144.287 644.556 144.496C644.564 144.705 644.621 144.908 644.722 145.091L644.72 145.092ZM649.403 135.539C649.46 135.33 649.464 135.111 649.417 134.9C649.37 134.689 649.272 134.493 649.133 134.328C648.892 134.091 648.596 134.237 648.469 134.605C648.417 134.797 648.406 134.998 648.438 135.194C648.47 135.39 648.544 135.576 648.654 135.741L648.727 135.847C648.976 136.068 649.264 135.937 649.406 135.539L649.403 135.539ZM642.189 147.656C642.082 147.838 642.023 148.043 642.016 148.253C642.009 148.463 642.056 148.672 642.151 148.859C642.178 148.889 642.209 148.996 642.233 149.025C642.26 149.084 642.303 149.135 642.357 149.171C642.41 149.208 642.473 149.23 642.537 149.234C642.602 149.239 642.667 149.226 642.725 149.196C642.783 149.167 642.833 149.123 642.868 149.068C642.975 148.887 643.035 148.682 643.041 148.472C643.048 148.262 643.002 148.053 642.907 147.866C642.725 147.489 642.407 147.347 642.191 147.657L642.189 147.656ZM616.263 70.1864C616.408 70.0565 616.511 69.887 616.561 69.6988C616.61 69.5106 616.603 69.312 616.541 69.1278C616.449 68.6429 616.158 68.3466 615.886 68.5218C615.615 68.6221 615.514 69.0949 615.608 69.5799C615.639 69.7235 615.695 69.8608 615.772 69.9857C615.82 70.0691 615.895 70.1341 615.984 70.1705C616.073 70.207 616.171 70.2127 616.264 70.1871L616.263 70.1864ZM610.124 74.785C610.238 74.6132 610.307 74.4155 610.324 74.2102C610.342 74.0049 610.308 73.7986 610.225 73.6102C610.033 73.1731 609.737 73.0595 609.517 73.2945C609.404 73.4667 609.335 73.6645 609.318 73.8698C609.3 74.0751 609.335 74.2814 609.418 74.4698C609.437 74.5442 609.47 74.6145 609.514 74.6777C609.711 74.9327 609.958 74.9877 610.126 74.7857L610.124 74.785ZM607.489 76.9744C607.262 76.6144 606.947 76.5481 606.738 76.8423C606.65 77.0373 606.608 77.2493 606.613 77.4627C606.618 77.6762 606.671 77.8857 606.768 78.0757L606.837 78.1802C607.033 78.4342 607.317 78.4874 607.472 78.2237C607.573 78.0311 607.627 77.8177 607.63 77.6005C607.634 77.3832 607.587 77.1683 607.492 76.973L607.489 76.9744ZM619.617 69.0605C619.899 69.0387 620.057 68.5917 620.006 68.1067C619.943 67.6357 619.659 67.3244 619.381 67.3476C619.116 67.4145 618.937 67.8154 619.023 68.3155C619.046 68.5072 619.108 68.6922 619.205 68.8587C619.243 68.9325 619.304 68.9918 619.379 69.0279C619.454 69.064 619.538 69.075 619.62 69.0591L619.617 69.0605ZM630.131 70.738C630.417 70.8835 630.674 70.6468 630.733 70.1743C630.781 69.7155 630.585 69.2027 630.304 69.0591L630.328 69.0885C630.047 68.9444 629.786 69.1787 629.738 69.6378C629.686 69.9649 629.757 70.2993 629.936 70.5771C629.986 70.6476 630.054 70.7028 630.134 70.7366L630.131 70.738ZM623.106 68.7698C623.398 68.8079 623.6 68.4359 623.549 67.9517C623.539 67.4482 623.295 67.0439 623.007 67.0815C622.725 67.0295 622.513 67.4156 622.568 67.9015C622.562 68.1462 622.627 68.3872 622.755 68.5954C622.792 68.6548 622.845 68.7026 622.908 68.7332C622.971 68.7637 623.041 68.7757 623.11 68.7678L623.106 68.7698ZM637.47 75.638C637.533 75.4323 637.544 75.2146 637.504 75.0036C637.464 74.7926 637.374 74.5945 637.24 74.4264C637.008 74.1744 636.692 74.2736 636.578 74.7036C636.521 74.8907 636.505 75.0881 636.531 75.2818C636.558 75.4755 636.626 75.6611 636.731 75.8255C636.756 75.8553 636.78 75.8842 636.794 75.8534C637.052 76.1495 637.368 76.0502 637.474 75.6359L637.47 75.638ZM634.195 72.5147C634.236 72.3064 634.228 72.0916 634.172 71.8871C634.116 71.6826 634.014 71.494 633.873 71.3358C633.605 71.1607 633.296 71.3375 633.22 71.7656C633.179 71.9413 633.174 72.1237 633.208 72.3011C633.242 72.4784 633.312 72.6465 633.415 72.7944C633.442 72.854 633.49 72.9017 633.549 72.9285C633.821 73.1172 634.086 72.9427 634.199 72.5127L634.195 72.5147ZM640.638 79.6005C640.718 79.3952 640.748 79.1739 640.725 78.9549C640.703 78.7359 640.629 78.5255 640.509 78.3412L640.488 78.3876L640.471 78.3432C640.443 78.3122 640.433 78.2526 640.412 78.2062L640.391 78.2522C640.358 78.1859 640.306 78.1311 640.241 78.0952C640.176 78.0593 640.102 78.0439 640.028 78.0509C639.955 78.058 639.885 78.087 639.828 78.1345C639.77 78.182 639.729 78.2457 639.709 78.3171C639.629 78.5116 639.598 78.7227 639.619 78.9318C639.64 79.1408 639.712 79.3414 639.828 79.516L639.814 79.5469C639.839 79.5759 639.859 79.6221 639.908 79.6067L639.924 79.6511L639.91 79.6829C640.155 80.0095 640.478 79.9677 640.642 79.5985L640.638 79.6005ZM626.621 69.3585C626.909 69.3936 627.146 69.1307 627.156 68.6738C627.164 68.141 626.958 67.7347 626.663 67.6224C626.384 67.5525 626.162 67.8782 626.144 68.3512C626.132 68.6306 626.211 68.9063 626.37 69.1359C626.439 69.2267 626.526 69.3019 626.625 69.3565L626.621 69.3585ZM601.004 120.74C600.729 120.839 600.595 121.315 600.688 121.8C600.722 121.957 600.788 122.105 600.88 122.236C600.926 122.312 600.993 122.371 601.074 122.407C601.154 122.443 601.244 122.453 601.33 122.437C601.605 122.338 601.739 121.862 601.65 121.379C601.547 120.922 601.266 120.593 601.008 120.738L601.004 120.74ZM599.713 108.505C599.442 108.421 599.219 108.839 599.246 109.294C599.246 109.551 599.322 109.803 599.462 110.019C599.539 110.131 599.656 110.209 599.789 110.238C600.063 110.231 600.266 109.859 600.262 109.433C600.253 108.944 600.009 108.54 599.716 108.505L599.713 108.505ZM602.342 126.658C602.209 126.814 602.12 127.002 602.084 127.204C602.048 127.406 602.067 127.613 602.139 127.805C602.174 127.927 602.226 128.043 602.293 128.151C602.317 128.195 602.351 128.234 602.391 128.265C602.431 128.295 602.477 128.317 602.527 128.328C602.576 128.34 602.627 128.341 602.677 128.331C602.726 128.321 602.773 128.301 602.815 128.272C603.065 128.144 603.182 127.623 603.031 127.187C602.93 126.731 602.617 126.481 602.346 126.656L602.342 126.658ZM600.106 114.63C599.845 114.698 599.666 115.099 599.718 115.583C599.741 115.792 599.81 115.993 599.92 116.173C600.04 116.337 600.167 116.394 600.308 116.346C600.593 116.307 600.772 115.905 600.707 115.453C600.657 114.963 600.388 114.603 600.11 114.628L600.106 114.63ZM606.382 137.569C606.281 137.761 606.227 137.975 606.224 138.192C606.221 138.409 606.269 138.623 606.365 138.818L606.444 138.908C606.63 139.176 606.915 139.229 607.073 138.967C607.177 138.781 607.234 138.574 607.241 138.361C607.248 138.149 607.205 137.938 607.114 137.747C606.912 137.339 606.597 137.273 606.387 137.567L606.382 137.569ZM604.163 132.348C604.038 132.508 603.959 132.7 603.937 132.902C603.914 133.104 603.948 133.309 604.035 133.492C604.071 133.575 604.112 133.655 604.158 133.732C604.33 133.956 604.578 134.011 604.736 133.822C604.862 133.66 604.941 133.466 604.965 133.262C604.989 133.057 604.956 132.85 604.87 132.663C604.706 132.253 604.408 132.065 604.167 132.346L604.163 132.348ZM604.379 81.0953C604.295 81.2937 604.261 81.5094 604.28 81.7237C604.298 81.9381 604.369 82.1446 604.485 82.3254L604.471 82.3561C604.712 82.6847 605.01 82.6145 605.202 82.2752C605.275 82.0818 605.302 81.874 605.28 81.6685C605.258 81.463 605.188 81.2657 605.076 81.0925C604.861 80.7132 604.533 80.7542 604.382 81.0931L604.379 81.0953ZM599.815 102.397C599.537 102.328 599.303 102.594 599.272 103.098C599.259 103.378 599.34 103.655 599.502 103.883C599.57 103.989 599.639 104.093 599.749 104.105C600.02 104.189 600.275 103.877 600.285 103.419C600.306 102.945 600.118 102.51 599.819 102.395L599.815 102.397ZM608.973 142.309C608.894 142.513 608.861 142.732 608.877 142.95C608.893 143.169 608.957 143.38 609.066 143.57L609.094 143.601C609.307 143.899 609.619 143.89 609.777 143.536C609.866 143.345 609.905 143.134 609.891 142.924C609.876 142.714 609.809 142.511 609.695 142.335C609.501 142.004 609.168 141.965 608.978 142.307L608.973 142.309ZM600.868 91.2997C600.828 91.4778 600.824 91.662 600.856 91.8416C600.888 92.0211 600.956 92.1923 601.056 92.3448C601.084 92.3755 601.129 92.451 601.173 92.434C601.438 92.6996 601.709 92.5252 601.826 92.0968C601.873 91.8849 601.869 91.6651 601.815 91.455C601.762 91.2449 601.66 91.0504 601.518 90.8871C601.258 90.6939 600.963 90.8398 600.873 91.2981L600.868 91.2997ZM602.395 85.975C602.341 86.1625 602.327 86.3593 602.353 86.5526C602.379 86.7459 602.446 86.9316 602.548 87.0974C602.577 87.1281 602.577 87.128 602.601 87.1574C602.826 87.4251 603.15 87.3098 603.273 86.9399C603.345 86.7381 603.365 86.5218 603.332 86.3105C603.299 86.0992 603.214 85.8994 603.085 85.7293C602.86 85.459 602.537 85.5733 602.4 85.9732L602.395 85.975ZM599.812 97.0375C599.772 97.3811 599.85 97.7279 600.032 98.0217C600.081 98.0744 600.142 98.1146 600.21 98.1387C600.491 98.2828 600.749 98.0467 600.824 97.6176C600.859 97.4157 600.842 97.2082 600.772 97.0156C600.703 96.8229 600.585 96.6516 600.43 96.5185C600.168 96.3421 599.893 96.6076 599.818 97.0337L599.812 97.0375ZM612.381 71.6189C612.398 71.7306 612.445 71.8352 612.519 71.9208C612.687 72.1435 612.893 72.1983 613.065 72.0718C613.196 71.9216 613.284 71.738 613.318 71.5412C613.352 71.3444 613.332 71.1419 613.258 70.9564C613.104 70.5181 612.815 70.2967 612.571 70.5023C612.44 70.653 612.353 70.8371 612.321 71.034C612.288 71.2308 612.311 71.4327 612.386 71.6172L612.381 71.6189ZM618.478 152.738C618.418 153.072 618.483 153.416 618.66 153.705C618.72 153.755 618.774 153.81 618.822 153.87C619.103 154.013 619.384 153.807 619.471 153.365C619.502 153.161 619.483 152.952 619.415 152.757C619.347 152.562 619.232 152.388 619.08 152.248C618.822 152.056 618.537 152.261 618.483 152.736L618.478 152.738ZM650.49 123.59C650.462 123.903 650.538 124.216 650.705 124.481C650.763 124.562 650.84 124.628 650.928 124.673C651.186 124.788 651.461 124.522 651.502 124.079C651.533 123.575 651.359 123.109 651.063 122.996C650.783 122.849 650.55 123.114 650.493 123.588L650.49 123.59ZM636.307 152.965C636.167 153.113 636.071 153.298 636.03 153.498C635.989 153.699 636.004 153.906 636.074 154.098C636.094 154.245 636.151 154.385 636.239 154.505C636.287 154.591 636.365 154.656 636.458 154.688C636.552 154.719 636.654 154.714 636.744 154.674C636.995 154.545 637.108 154.024 636.978 153.541C636.876 153.085 636.564 152.835 636.312 152.963L636.307 152.965ZM633.007 154.486C632.733 154.585 632.598 155.061 632.687 155.544C632.717 155.703 632.783 155.852 632.879 155.981C632.999 156.146 633.172 156.277 633.309 156.228C633.587 156.131 633.745 155.684 633.653 155.199C633.56 154.715 633.287 154.385 633.012 154.485L633.007 154.486ZM639.399 150.703C639.269 150.861 639.185 151.051 639.156 151.253C639.126 151.455 639.154 151.661 639.234 151.849C639.266 151.948 639.317 152.041 639.385 152.12C639.546 152.358 639.756 152.415 639.948 152.242C640.073 152.081 640.15 151.889 640.172 151.686C640.194 151.484 640.159 151.28 640.071 151.096C639.927 150.657 639.625 150.467 639.404 150.702L639.399 150.703ZM629.583 155.158C629.302 155.18 629.116 155.597 629.174 156.084C629.177 156.293 629.25 156.495 629.38 156.657C629.416 156.73 629.468 156.794 629.531 156.844C629.594 156.895 629.668 156.931 629.747 156.95C630.024 156.927 630.21 156.51 630.159 156.025C630.12 155.523 629.877 155.119 629.589 155.156L629.583 155.158ZM649.924 130.304C649.974 130.341 650.018 130.385 650.054 130.436C650.325 130.612 650.605 130.423 650.687 129.979C650.737 129.77 650.734 129.552 650.677 129.345C650.62 129.139 650.511 128.95 650.36 128.798C650.091 128.659 649.827 128.837 649.736 129.258C649.697 129.437 649.693 129.621 649.727 129.801C649.76 129.98 649.829 130.151 649.929 130.303L649.924 130.304ZM626.072 155.033C625.789 155.036 625.573 155.347 625.586 155.815C625.571 156.074 625.647 156.33 625.801 156.539C625.871 156.642 625.972 156.72 626.09 156.76C626.382 156.798 626.612 156.457 626.598 155.971C626.582 155.497 626.355 155.1 626.079 155.032L626.072 155.033ZM649.715 129.306C649.718 129.289 649.733 129.276 649.736 129.259L649.732 129.258L649.715 129.306ZM611.901 146.46C611.841 146.658 611.821 146.867 611.842 147.073C611.863 147.279 611.925 147.479 612.024 147.661C612.052 147.691 612.066 147.661 612.089 147.69C612.33 148.019 612.65 147.902 612.769 147.549C612.844 147.345 612.865 147.125 612.832 146.91C612.799 146.695 612.713 146.492 612.58 146.32L612.594 146.289C612.377 146.022 612.071 146.089 611.906 146.458L611.901 146.46ZM615.089 149.952C615.046 150.143 615.04 150.341 615.074 150.534C615.108 150.726 615.179 150.91 615.285 151.075L615.354 151.179C615.605 151.402 615.914 151.226 616.014 150.827C616.07 150.628 616.076 150.418 616.03 150.217C615.985 150.016 615.889 149.829 615.752 149.675C615.494 149.389 615.199 149.552 615.095 149.95L615.089 149.952ZM626.052 155.026L626.071 155.034C626.08 155.038 626.082 155.021 626.094 155.026L626.052 155.026ZM622.561 154.042C622.259 153.944 622.025 154.21 621.974 154.666C621.954 154.972 622.036 155.274 622.206 155.528C622.261 155.612 622.338 155.678 622.429 155.72C622.725 155.833 622.958 155.568 622.993 155.066C623.033 154.635 622.837 154.123 622.566 154.039L622.561 154.042Z"
				fill="#625FF5"
			/>
		</g>
	</g>
	<defs>
		<linearGradient
			id="databreachlinear0"
			x1="302.886"
			y1="716.079"
			x2="717.967"
			y2="716.079"
			gradientUnits="userSpaceOnUse"
		>
			<stop stop-color="#18191A" />
			<stop offset="0.313" stop-color="#191F21" />
			<stop offset="0.77" stop-color="#1F3134" />
			<stop offset="1" stop-color="#233D41" />
		</linearGradient>
		<linearGradient
			id="databreachlinear1"
			x1="268.019"
			y1="573.649"
			x2="685.237"
			y2="573.649"
			gradientUnits="userSpaceOnUse"
		>
			<stop stop-color="#235465" />
			<stop offset="0.532" stop-color="#8EC95F" />
			<stop offset="1" stop-color="#8E63DB" />
		</linearGradient>
		<linearGradient
			id="databreachlinear2"
			x1="439.584"
			y1="465.994"
			x2="385.078"
			y2="614.783"
			gradientUnits="userSpaceOnUse"
		>
			<stop stop-color="#3376E7" />
			<stop offset="1" stop-color="#976EF1" />
		</linearGradient>
		<linearGradient
			id="databreachlinear3"
			x1="268.058"
			y1="664.181"
			x2="268.058"
			y2="761.931"
			gradientUnits="userSpaceOnUse"
		>
			<stop offset="0.019" stop-color="#AEFFD6" />
			<stop offset="0.021" stop-color="#ADFDD5" />
			<stop offset="0.135" stop-color="#88D0AC" />
			<stop offset="0.245" stop-color="#6CAC8B" />
			<stop offset="0.347" stop-color="#579274" />
			<stop offset="0.439" stop-color="#4B8366" />
			<stop offset="0.513" stop-color="#477E62" />
		</linearGradient>
		<linearGradient
			id="databreachlinear4"
			x1="268.58"
			y1="664.181"
			x2="268.58"
			y2="761.945"
			gradientUnits="userSpaceOnUse"
		>
			<stop offset="0.019" stop-color="#AEFFD6" />
			<stop offset="0.021" stop-color="#ADFDD5" />
			<stop offset="0.135" stop-color="#88D0AC" />
			<stop offset="0.245" stop-color="#6CAC8B" />
			<stop offset="0.347" stop-color="#579274" />
			<stop offset="0.439" stop-color="#4B8366" />
			<stop offset="0.513" stop-color="#477E62" />
		</linearGradient>
		<linearGradient
			id="databreachlinear5"
			x1="270.122"
			y1="664.186"
			x2="270.122"
			y2="761.942"
			gradientUnits="userSpaceOnUse"
		>
			<stop offset="0.019" stop-color="#AEFFD6" />
			<stop offset="0.021" stop-color="#ADFDD5" />
			<stop offset="0.135" stop-color="#88D0AC" />
			<stop offset="0.245" stop-color="#6CAC8B" />
			<stop offset="0.347" stop-color="#579274" />
			<stop offset="0.439" stop-color="#4B8366" />
			<stop offset="0.513" stop-color="#477E62" />
		</linearGradient>
		<linearGradient
			id="databreachlinear6"
			x1="272.668"
			y1="664.187"
			x2="272.668"
			y2="761.933"
			gradientUnits="userSpaceOnUse"
		>
			<stop offset="0.019" stop-color="#AEFFD6" />
			<stop offset="0.021" stop-color="#ADFDD5" />
			<stop offset="0.135" stop-color="#88D0AC" />
			<stop offset="0.245" stop-color="#6CAC8B" />
			<stop offset="0.347" stop-color="#579274" />
			<stop offset="0.439" stop-color="#4B8366" />
			<stop offset="0.513" stop-color="#477E62" />
		</linearGradient>
		<linearGradient
			id="databreachlinear7"
			x1="276.214"
			y1="664.187"
			x2="276.214"
			y2="761.964"
			gradientUnits="userSpaceOnUse"
		>
			<stop offset="0.019" stop-color="#AEFFD6" />
			<stop offset="0.021" stop-color="#ADFDD5" />
			<stop offset="0.135" stop-color="#88D0AC" />
			<stop offset="0.245" stop-color="#6CAC8B" />
			<stop offset="0.347" stop-color="#579274" />
			<stop offset="0.439" stop-color="#4B8366" />
			<stop offset="0.513" stop-color="#477E62" />
		</linearGradient>
		<linearGradient
			id="databreachlinear8"
			x1="280.723"
			y1="664.183"
			x2="280.723"
			y2="761.935"
			gradientUnits="userSpaceOnUse"
		>
			<stop offset="0.019" stop-color="#AEFFD6" />
			<stop offset="0.021" stop-color="#ADFDD5" />
			<stop offset="0.135" stop-color="#88D0AC" />
			<stop offset="0.245" stop-color="#6CAC8B" />
			<stop offset="0.347" stop-color="#579274" />
			<stop offset="0.439" stop-color="#4B8366" />
			<stop offset="0.513" stop-color="#477E62" />
		</linearGradient>
		<linearGradient
			id="databreachlinear9"
			x1="286.198"
			y1="664.165"
			x2="286.198"
			y2="761.958"
			gradientUnits="userSpaceOnUse"
		>
			<stop offset="0.019" stop-color="#AEFFD6" />
			<stop offset="0.021" stop-color="#ADFDD5" />
			<stop offset="0.135" stop-color="#88D0AC" />
			<stop offset="0.245" stop-color="#6CAC8B" />
			<stop offset="0.347" stop-color="#579274" />
			<stop offset="0.439" stop-color="#4B8366" />
			<stop offset="0.513" stop-color="#477E62" />
		</linearGradient>
		<linearGradient
			id="databreachlinear10"
			x1="292.625"
			y1="664.169"
			x2="292.625"
			y2="761.951"
			gradientUnits="userSpaceOnUse"
		>
			<stop offset="0.019" stop-color="#AEFFD6" />
			<stop offset="0.021" stop-color="#ADFDD5" />
			<stop offset="0.135" stop-color="#88D0AC" />
			<stop offset="0.245" stop-color="#6CAC8B" />
			<stop offset="0.347" stop-color="#579274" />
			<stop offset="0.439" stop-color="#4B8366" />
			<stop offset="0.513" stop-color="#477E62" />
		</linearGradient>
		<linearGradient
			id="databreachlinear11"
			x1="299.97"
			y1="664.186"
			x2="299.97"
			y2="761.955"
			gradientUnits="userSpaceOnUse"
		>
			<stop offset="0.019" stop-color="#AEFFD6" />
			<stop offset="0.021" stop-color="#ADFDD5" />
			<stop offset="0.135" stop-color="#88D0AC" />
			<stop offset="0.245" stop-color="#6CAC8B" />
			<stop offset="0.347" stop-color="#579274" />
			<stop offset="0.439" stop-color="#4B8366" />
			<stop offset="0.513" stop-color="#477E62" />
		</linearGradient>
		<linearGradient
			id="databreachlinear12"
			x1="308.23"
			y1="664.164"
			x2="308.23"
			y2="761.96"
			gradientUnits="userSpaceOnUse"
		>
			<stop offset="0.019" stop-color="#AEFFD6" />
			<stop offset="0.021" stop-color="#ADFDD5" />
			<stop offset="0.135" stop-color="#88D0AC" />
			<stop offset="0.245" stop-color="#6CAC8B" />
			<stop offset="0.347" stop-color="#579274" />
			<stop offset="0.439" stop-color="#4B8366" />
			<stop offset="0.513" stop-color="#477E62" />
		</linearGradient>
		<linearGradient
			id="databreachlinear13"
			x1="317.377"
			y1="664.176"
			x2="317.377"
			y2="761.958"
			gradientUnits="userSpaceOnUse"
		>
			<stop offset="0.019" stop-color="#AEFFD6" />
			<stop offset="0.021" stop-color="#ADFDD5" />
			<stop offset="0.135" stop-color="#88D0AC" />
			<stop offset="0.245" stop-color="#6CAC8B" />
			<stop offset="0.347" stop-color="#579274" />
			<stop offset="0.439" stop-color="#4B8366" />
			<stop offset="0.513" stop-color="#477E62" />
		</linearGradient>
		<linearGradient
			id="databreachlinear14"
			x1="327.411"
			y1="664.167"
			x2="327.411"
			y2="761.931"
			gradientUnits="userSpaceOnUse"
		>
			<stop offset="0.019" stop-color="#AEFFD6" />
			<stop offset="0.021" stop-color="#ADFDD5" />
			<stop offset="0.135" stop-color="#88D0AC" />
			<stop offset="0.245" stop-color="#6CAC8B" />
			<stop offset="0.347" stop-color="#579274" />
			<stop offset="0.439" stop-color="#4B8366" />
			<stop offset="0.513" stop-color="#477E62" />
		</linearGradient>
		<linearGradient
			id="databreachlinear15"
			x1="337.591"
			y1="664.192"
			x2="337.591"
			y2="761.942"
			gradientUnits="userSpaceOnUse"
		>
			<stop offset="0.019" stop-color="#AEFFD6" />
			<stop offset="0.021" stop-color="#ADFDD5" />
			<stop offset="0.135" stop-color="#88D0AC" />
			<stop offset="0.245" stop-color="#6CAC8B" />
			<stop offset="0.347" stop-color="#579274" />
			<stop offset="0.439" stop-color="#4B8366" />
			<stop offset="0.513" stop-color="#477E62" />
		</linearGradient>
		<linearGradient
			id="databreachlinear16"
			x1="346.187"
			y1="664.189"
			x2="346.187"
			y2="761.96"
			gradientUnits="userSpaceOnUse"
		>
			<stop offset="0.019" stop-color="#AEFFD6" />
			<stop offset="0.021" stop-color="#ADFDD5" />
			<stop offset="0.135" stop-color="#88D0AC" />
			<stop offset="0.245" stop-color="#6CAC8B" />
			<stop offset="0.347" stop-color="#579274" />
			<stop offset="0.439" stop-color="#4B8366" />
			<stop offset="0.513" stop-color="#477E62" />
		</linearGradient>
		<linearGradient
			id="databreachlinear17"
			x1="355.144"
			y1="664.184"
			x2="355.144"
			y2="761.938"
			gradientUnits="userSpaceOnUse"
		>
			<stop offset="0.019" stop-color="#AEFFD6" />
			<stop offset="0.021" stop-color="#ADFDD5" />
			<stop offset="0.135" stop-color="#88D0AC" />
			<stop offset="0.245" stop-color="#6CAC8B" />
			<stop offset="0.347" stop-color="#579274" />
			<stop offset="0.439" stop-color="#4B8366" />
			<stop offset="0.513" stop-color="#477E62" />
		</linearGradient>
		<linearGradient
			id="databreachlinear18"
			x1="364.442"
			y1="664.182"
			x2="364.442"
			y2="761.957"
			gradientUnits="userSpaceOnUse"
		>
			<stop offset="0.019" stop-color="#AEFFD6" />
			<stop offset="0.021" stop-color="#ADFDD5" />
			<stop offset="0.135" stop-color="#88D0AC" />
			<stop offset="0.245" stop-color="#6CAC8B" />
			<stop offset="0.347" stop-color="#579274" />
			<stop offset="0.439" stop-color="#4B8366" />
			<stop offset="0.513" stop-color="#477E62" />
		</linearGradient>
		<linearGradient
			id="databreachlinear19"
			x1="374.045"
			y1="664.159"
			x2="374.045"
			y2="761.965"
			gradientUnits="userSpaceOnUse"
		>
			<stop offset="0.019" stop-color="#AEFFD6" />
			<stop offset="0.021" stop-color="#ADFDD5" />
			<stop offset="0.135" stop-color="#88D0AC" />
			<stop offset="0.245" stop-color="#6CAC8B" />
			<stop offset="0.347" stop-color="#579274" />
			<stop offset="0.439" stop-color="#4B8366" />
			<stop offset="0.513" stop-color="#477E62" />
		</linearGradient>
		<linearGradient
			id="databreachlinear20"
			x1="383.939"
			y1="664.183"
			x2="383.939"
			y2="761.93"
			gradientUnits="userSpaceOnUse"
		>
			<stop offset="0.019" stop-color="#AEFFD6" />
			<stop offset="0.021" stop-color="#ADFDD5" />
			<stop offset="0.135" stop-color="#88D0AC" />
			<stop offset="0.245" stop-color="#6CAC8B" />
			<stop offset="0.347" stop-color="#579274" />
			<stop offset="0.439" stop-color="#4B8366" />
			<stop offset="0.513" stop-color="#477E62" />
		</linearGradient>
		<linearGradient
			id="databreachlinear21"
			x1="394.108"
			y1="664.162"
			x2="394.108"
			y2="761.95"
			gradientUnits="userSpaceOnUse"
		>
			<stop offset="0.019" stop-color="#AEFFD6" />
			<stop offset="0.021" stop-color="#ADFDD5" />
			<stop offset="0.135" stop-color="#88D0AC" />
			<stop offset="0.245" stop-color="#6CAC8B" />
			<stop offset="0.347" stop-color="#579274" />
			<stop offset="0.439" stop-color="#4B8366" />
			<stop offset="0.513" stop-color="#477E62" />
		</linearGradient>
		<linearGradient
			id="databreachlinear22"
			x1="404.513"
			y1="664.174"
			x2="404.513"
			y2="761.954"
			gradientUnits="userSpaceOnUse"
		>
			<stop offset="0.019" stop-color="#AEFFD6" />
			<stop offset="0.021" stop-color="#ADFDD5" />
			<stop offset="0.135" stop-color="#88D0AC" />
			<stop offset="0.245" stop-color="#6CAC8B" />
			<stop offset="0.347" stop-color="#579274" />
			<stop offset="0.439" stop-color="#4B8366" />
			<stop offset="0.513" stop-color="#477E62" />
		</linearGradient>
		<linearGradient
			id="databreachlinear23"
			x1="415.143"
			y1="664.187"
			x2="415.143"
			y2="761.943"
			gradientUnits="userSpaceOnUse"
		>
			<stop offset="0.019" stop-color="#AEFFD6" />
			<stop offset="0.021" stop-color="#ADFDD5" />
			<stop offset="0.135" stop-color="#88D0AC" />
			<stop offset="0.245" stop-color="#6CAC8B" />
			<stop offset="0.347" stop-color="#579274" />
			<stop offset="0.439" stop-color="#4B8366" />
			<stop offset="0.513" stop-color="#477E62" />
		</linearGradient>
		<linearGradient
			id="databreachlinear24"
			x1="425.979"
			y1="664.162"
			x2="425.979"
			y2="761.946"
			gradientUnits="userSpaceOnUse"
		>
			<stop offset="0.019" stop-color="#AEFFD6" />
			<stop offset="0.021" stop-color="#ADFDD5" />
			<stop offset="0.135" stop-color="#88D0AC" />
			<stop offset="0.245" stop-color="#6CAC8B" />
			<stop offset="0.347" stop-color="#579274" />
			<stop offset="0.439" stop-color="#4B8366" />
			<stop offset="0.513" stop-color="#477E62" />
		</linearGradient>
		<linearGradient
			id="databreachlinear25"
			x1="437.01"
			y1="664.158"
			x2="437.01"
			y2="761.942"
			gradientUnits="userSpaceOnUse"
		>
			<stop offset="0.019" stop-color="#AEFFD6" />
			<stop offset="0.021" stop-color="#ADFDD5" />
			<stop offset="0.135" stop-color="#88D0AC" />
			<stop offset="0.245" stop-color="#6CAC8B" />
			<stop offset="0.347" stop-color="#579274" />
			<stop offset="0.439" stop-color="#4B8366" />
			<stop offset="0.513" stop-color="#477E62" />
		</linearGradient>
		<linearGradient
			id="databreachlinear26"
			x1="448.186"
			y1="664.189"
			x2="448.186"
			y2="761.933"
			gradientUnits="userSpaceOnUse"
		>
			<stop offset="0.019" stop-color="#AEFFD6" />
			<stop offset="0.021" stop-color="#ADFDD5" />
			<stop offset="0.135" stop-color="#88D0AC" />
			<stop offset="0.245" stop-color="#6CAC8B" />
			<stop offset="0.347" stop-color="#579274" />
			<stop offset="0.439" stop-color="#4B8366" />
			<stop offset="0.513" stop-color="#477E62" />
		</linearGradient>
		<linearGradient
			id="databreachlinear27"
			x1="459.518"
			y1="664.159"
			x2="459.518"
			y2="761.965"
			gradientUnits="userSpaceOnUse"
		>
			<stop offset="0.019" stop-color="#AEFFD6" />
			<stop offset="0.021" stop-color="#ADFDD5" />
			<stop offset="0.135" stop-color="#88D0AC" />
			<stop offset="0.245" stop-color="#6CAC8B" />
			<stop offset="0.347" stop-color="#579274" />
			<stop offset="0.439" stop-color="#4B8366" />
			<stop offset="0.513" stop-color="#477E62" />
		</linearGradient>
		<linearGradient
			id="databreachlinear28"
			x1="470.954"
			y1="664.163"
			x2="470.954"
			y2="761.941"
			gradientUnits="userSpaceOnUse"
		>
			<stop offset="0.019" stop-color="#AEFFD6" />
			<stop offset="0.021" stop-color="#ADFDD5" />
			<stop offset="0.135" stop-color="#88D0AC" />
			<stop offset="0.245" stop-color="#6CAC8B" />
			<stop offset="0.347" stop-color="#579274" />
			<stop offset="0.439" stop-color="#4B8366" />
			<stop offset="0.513" stop-color="#477E62" />
		</linearGradient>
		<linearGradient
			id="databreachlinear29"
			x1="482.486"
			y1="664.191"
			x2="482.486"
			y2="761.941"
			gradientUnits="userSpaceOnUse"
		>
			<stop offset="0.019" stop-color="#AEFFD6" />
			<stop offset="0.021" stop-color="#ADFDD5" />
			<stop offset="0.135" stop-color="#88D0AC" />
			<stop offset="0.245" stop-color="#6CAC8B" />
			<stop offset="0.347" stop-color="#579274" />
			<stop offset="0.439" stop-color="#4B8366" />
			<stop offset="0.513" stop-color="#477E62" />
		</linearGradient>
		<linearGradient
			id="databreachlinear30"
			x1="493.948"
			y1="664.185"
			x2="493.948"
			y2="761.944"
			gradientUnits="userSpaceOnUse"
		>
			<stop offset="0.019" stop-color="#AEFFD6" />
			<stop offset="0.021" stop-color="#ADFDD5" />
			<stop offset="0.135" stop-color="#88D0AC" />
			<stop offset="0.245" stop-color="#6CAC8B" />
			<stop offset="0.347" stop-color="#579274" />
			<stop offset="0.439" stop-color="#4B8366" />
			<stop offset="0.513" stop-color="#477E62" />
		</linearGradient>
		<linearGradient
			id="databreachlinear31"
			x1="505.29"
			y1="664.191"
			x2="505.29"
			y2="761.958"
			gradientUnits="userSpaceOnUse"
		>
			<stop offset="0.019" stop-color="#AEFFD6" />
			<stop offset="0.021" stop-color="#ADFDD5" />
			<stop offset="0.135" stop-color="#88D0AC" />
			<stop offset="0.245" stop-color="#6CAC8B" />
			<stop offset="0.347" stop-color="#579274" />
			<stop offset="0.439" stop-color="#4B8366" />
			<stop offset="0.513" stop-color="#477E62" />
		</linearGradient>
		<linearGradient
			id="databreachlinear32"
			x1="516.486"
			y1="664.159"
			x2="516.486"
			y2="761.945"
			gradientUnits="userSpaceOnUse"
		>
			<stop offset="0.019" stop-color="#AEFFD6" />
			<stop offset="0.021" stop-color="#ADFDD5" />
			<stop offset="0.135" stop-color="#88D0AC" />
			<stop offset="0.245" stop-color="#6CAC8B" />
			<stop offset="0.347" stop-color="#579274" />
			<stop offset="0.439" stop-color="#4B8366" />
			<stop offset="0.513" stop-color="#477E62" />
		</linearGradient>
		<linearGradient
			id="databreachlinear33"
			x1="527.517"
			y1="664.163"
			x2="527.517"
			y2="761.944"
			gradientUnits="userSpaceOnUse"
		>
			<stop offset="0.019" stop-color="#AEFFD6" />
			<stop offset="0.021" stop-color="#ADFDD5" />
			<stop offset="0.135" stop-color="#88D0AC" />
			<stop offset="0.245" stop-color="#6CAC8B" />
			<stop offset="0.347" stop-color="#579274" />
			<stop offset="0.439" stop-color="#4B8366" />
			<stop offset="0.513" stop-color="#477E62" />
		</linearGradient>
		<linearGradient
			id="databreachlinear34"
			x1="538.37"
			y1="664.165"
			x2="538.37"
			y2="761.961"
			gradientUnits="userSpaceOnUse"
		>
			<stop offset="0.019" stop-color="#AEFFD6" />
			<stop offset="0.021" stop-color="#ADFDD5" />
			<stop offset="0.135" stop-color="#88D0AC" />
			<stop offset="0.245" stop-color="#6CAC8B" />
			<stop offset="0.347" stop-color="#579274" />
			<stop offset="0.439" stop-color="#4B8366" />
			<stop offset="0.513" stop-color="#477E62" />
		</linearGradient>
		<linearGradient
			id="databreachlinear35"
			x1="549.015"
			y1="664.165"
			x2="549.015"
			y2="761.955"
			gradientUnits="userSpaceOnUse"
		>
			<stop offset="0.019" stop-color="#AEFFD6" />
			<stop offset="0.021" stop-color="#ADFDD5" />
			<stop offset="0.135" stop-color="#88D0AC" />
			<stop offset="0.245" stop-color="#6CAC8B" />
			<stop offset="0.347" stop-color="#579274" />
			<stop offset="0.439" stop-color="#4B8366" />
			<stop offset="0.513" stop-color="#477E62" />
		</linearGradient>
		<linearGradient
			id="databreachlinear36"
			x1="559.433"
			y1="664.189"
			x2="559.433"
			y2="761.957"
			gradientUnits="userSpaceOnUse"
		>
			<stop offset="0.019" stop-color="#AEFFD6" />
			<stop offset="0.021" stop-color="#ADFDD5" />
			<stop offset="0.135" stop-color="#88D0AC" />
			<stop offset="0.245" stop-color="#6CAC8B" />
			<stop offset="0.347" stop-color="#579274" />
			<stop offset="0.439" stop-color="#4B8366" />
			<stop offset="0.513" stop-color="#477E62" />
		</linearGradient>
		<linearGradient
			id="databreachlinear37"
			x1="569.597"
			y1="664.172"
			x2="569.597"
			y2="761.933"
			gradientUnits="userSpaceOnUse"
		>
			<stop offset="0.019" stop-color="#AEFFD6" />
			<stop offset="0.021" stop-color="#ADFDD5" />
			<stop offset="0.135" stop-color="#88D0AC" />
			<stop offset="0.245" stop-color="#6CAC8B" />
			<stop offset="0.347" stop-color="#579274" />
			<stop offset="0.439" stop-color="#4B8366" />
			<stop offset="0.513" stop-color="#477E62" />
		</linearGradient>
		<linearGradient
			id="databreachlinear38"
			x1="579.494"
			y1="664.172"
			x2="579.494"
			y2="761.944"
			gradientUnits="userSpaceOnUse"
		>
			<stop offset="0.019" stop-color="#AEFFD6" />
			<stop offset="0.021" stop-color="#ADFDD5" />
			<stop offset="0.135" stop-color="#88D0AC" />
			<stop offset="0.245" stop-color="#6CAC8B" />
			<stop offset="0.347" stop-color="#579274" />
			<stop offset="0.439" stop-color="#4B8366" />
			<stop offset="0.513" stop-color="#477E62" />
		</linearGradient>
		<linearGradient
			id="databreachlinear39"
			x1="589.102"
			y1="664.166"
			x2="589.102"
			y2="761.939"
			gradientUnits="userSpaceOnUse"
		>
			<stop offset="0.019" stop-color="#AEFFD6" />
			<stop offset="0.021" stop-color="#ADFDD5" />
			<stop offset="0.135" stop-color="#88D0AC" />
			<stop offset="0.245" stop-color="#6CAC8B" />
			<stop offset="0.347" stop-color="#579274" />
			<stop offset="0.439" stop-color="#4B8366" />
			<stop offset="0.513" stop-color="#477E62" />
		</linearGradient>
		<linearGradient
			id="databreachlinear40"
			x1="598.392"
			y1="664.169"
			x2="598.392"
			y2="761.945"
			gradientUnits="userSpaceOnUse"
		>
			<stop offset="0.019" stop-color="#AEFFD6" />
			<stop offset="0.021" stop-color="#ADFDD5" />
			<stop offset="0.135" stop-color="#88D0AC" />
			<stop offset="0.245" stop-color="#6CAC8B" />
			<stop offset="0.347" stop-color="#579274" />
			<stop offset="0.439" stop-color="#4B8366" />
			<stop offset="0.513" stop-color="#477E62" />
		</linearGradient>
		<linearGradient
			id="databreachlinear41"
			x1="607.352"
			y1="664.167"
			x2="607.352"
			y2="761.941"
			gradientUnits="userSpaceOnUse"
		>
			<stop offset="0.019" stop-color="#AEFFD6" />
			<stop offset="0.021" stop-color="#ADFDD5" />
			<stop offset="0.135" stop-color="#88D0AC" />
			<stop offset="0.245" stop-color="#6CAC8B" />
			<stop offset="0.347" stop-color="#579274" />
			<stop offset="0.439" stop-color="#4B8366" />
			<stop offset="0.513" stop-color="#477E62" />
		</linearGradient>
		<linearGradient
			id="databreachlinear42"
			x1="615.95"
			y1="664.163"
			x2="615.95"
			y2="761.946"
			gradientUnits="userSpaceOnUse"
		>
			<stop offset="0.019" stop-color="#AEFFD6" />
			<stop offset="0.021" stop-color="#ADFDD5" />
			<stop offset="0.135" stop-color="#88D0AC" />
			<stop offset="0.245" stop-color="#6CAC8B" />
			<stop offset="0.347" stop-color="#579274" />
			<stop offset="0.439" stop-color="#4B8366" />
			<stop offset="0.513" stop-color="#477E62" />
		</linearGradient>
		<linearGradient
			id="databreachlinear43"
			x1="626.083"
			y1="664.187"
			x2="626.083"
			y2="761.968"
			gradientUnits="userSpaceOnUse"
		>
			<stop offset="0.019" stop-color="#AEFFD6" />
			<stop offset="0.021" stop-color="#ADFDD5" />
			<stop offset="0.135" stop-color="#88D0AC" />
			<stop offset="0.245" stop-color="#6CAC8B" />
			<stop offset="0.347" stop-color="#579274" />
			<stop offset="0.439" stop-color="#4B8366" />
			<stop offset="0.513" stop-color="#477E62" />
		</linearGradient>
		<linearGradient
			id="databreachlinear44"
			x1="636.076"
			y1="664.191"
			x2="636.076"
			y2="761.927"
			gradientUnits="userSpaceOnUse"
		>
			<stop offset="0.019" stop-color="#AEFFD6" />
			<stop offset="0.021" stop-color="#ADFDD5" />
			<stop offset="0.135" stop-color="#88D0AC" />
			<stop offset="0.245" stop-color="#6CAC8B" />
			<stop offset="0.347" stop-color="#579274" />
			<stop offset="0.439" stop-color="#4B8366" />
			<stop offset="0.513" stop-color="#477E62" />
		</linearGradient>
		<linearGradient
			id="databreachlinear45"
			x1="645.196"
			y1="664.188"
			x2="645.196"
			y2="761.954"
			gradientUnits="userSpaceOnUse"
		>
			<stop offset="0.019" stop-color="#AEFFD6" />
			<stop offset="0.021" stop-color="#ADFDD5" />
			<stop offset="0.135" stop-color="#88D0AC" />
			<stop offset="0.245" stop-color="#6CAC8B" />
			<stop offset="0.347" stop-color="#579274" />
			<stop offset="0.439" stop-color="#4B8366" />
			<stop offset="0.513" stop-color="#477E62" />
		</linearGradient>
		<linearGradient
			id="databreachlinear46"
			x1="653.427"
			y1="664.163"
			x2="653.427"
			y2="761.934"
			gradientUnits="userSpaceOnUse"
		>
			<stop offset="0.019" stop-color="#AEFFD6" />
			<stop offset="0.021" stop-color="#ADFDD5" />
			<stop offset="0.135" stop-color="#88D0AC" />
			<stop offset="0.245" stop-color="#6CAC8B" />
			<stop offset="0.347" stop-color="#579274" />
			<stop offset="0.439" stop-color="#4B8366" />
			<stop offset="0.513" stop-color="#477E62" />
		</linearGradient>
		<linearGradient
			id="databreachlinear47"
			x1="660.749"
			y1="664.176"
			x2="660.749"
			y2="761.942"
			gradientUnits="userSpaceOnUse"
		>
			<stop offset="0.019" stop-color="#AEFFD6" />
			<stop offset="0.021" stop-color="#ADFDD5" />
			<stop offset="0.135" stop-color="#88D0AC" />
			<stop offset="0.245" stop-color="#6CAC8B" />
			<stop offset="0.347" stop-color="#579274" />
			<stop offset="0.439" stop-color="#4B8366" />
			<stop offset="0.513" stop-color="#477E62" />
		</linearGradient>
		<linearGradient
			id="databreachlinear48"
			x1="667.145"
			y1="664.162"
			x2="667.145"
			y2="761.963"
			gradientUnits="userSpaceOnUse"
		>
			<stop offset="0.019" stop-color="#AEFFD6" />
			<stop offset="0.021" stop-color="#ADFDD5" />
			<stop offset="0.135" stop-color="#88D0AC" />
			<stop offset="0.245" stop-color="#6CAC8B" />
			<stop offset="0.347" stop-color="#579274" />
			<stop offset="0.439" stop-color="#4B8366" />
			<stop offset="0.513" stop-color="#477E62" />
		</linearGradient>
		<linearGradient
			id="databreachlinear49"
			x1="672.605"
			y1="664.181"
			x2="672.605"
			y2="761.933"
			gradientUnits="userSpaceOnUse"
		>
			<stop offset="0.019" stop-color="#AEFFD6" />
			<stop offset="0.021" stop-color="#ADFDD5" />
			<stop offset="0.135" stop-color="#88D0AC" />
			<stop offset="0.245" stop-color="#6CAC8B" />
			<stop offset="0.347" stop-color="#579274" />
			<stop offset="0.439" stop-color="#4B8366" />
			<stop offset="0.513" stop-color="#477E62" />
		</linearGradient>
		<linearGradient
			id="databreachlinear50"
			x1="677.107"
			y1="664.177"
			x2="677.107"
			y2="761.962"
			gradientUnits="userSpaceOnUse"
		>
			<stop offset="0.019" stop-color="#AEFFD6" />
			<stop offset="0.021" stop-color="#ADFDD5" />
			<stop offset="0.135" stop-color="#88D0AC" />
			<stop offset="0.245" stop-color="#6CAC8B" />
			<stop offset="0.347" stop-color="#579274" />
			<stop offset="0.439" stop-color="#4B8366" />
			<stop offset="0.513" stop-color="#477E62" />
		</linearGradient>
		<linearGradient
			id="databreachlinear51"
			x1="680.639"
			y1="664.17"
			x2="680.639"
			y2="761.955"
			gradientUnits="userSpaceOnUse"
		>
			<stop offset="0.019" stop-color="#AEFFD6" />
			<stop offset="0.021" stop-color="#ADFDD5" />
			<stop offset="0.135" stop-color="#88D0AC" />
			<stop offset="0.245" stop-color="#6CAC8B" />
			<stop offset="0.347" stop-color="#579274" />
			<stop offset="0.439" stop-color="#4B8366" />
			<stop offset="0.513" stop-color="#477E62" />
		</linearGradient>
		<linearGradient
			id="databreachlinear52"
			x1="683.183"
			y1="664.183"
			x2="683.183"
			y2="761.951"
			gradientUnits="userSpaceOnUse"
		>
			<stop offset="0.019" stop-color="#AEFFD6" />
			<stop offset="0.021" stop-color="#ADFDD5" />
			<stop offset="0.135" stop-color="#88D0AC" />
			<stop offset="0.245" stop-color="#6CAC8B" />
			<stop offset="0.347" stop-color="#579274" />
			<stop offset="0.439" stop-color="#4B8366" />
			<stop offset="0.513" stop-color="#477E62" />
		</linearGradient>
		<linearGradient
			id="databreachlinear53"
			x1="684.719"
			y1="664.155"
			x2="684.719"
			y2="761.956"
			gradientUnits="userSpaceOnUse"
		>
			<stop offset="0.019" stop-color="#AEFFD6" />
			<stop offset="0.021" stop-color="#ADFDD5" />
			<stop offset="0.135" stop-color="#88D0AC" />
			<stop offset="0.245" stop-color="#6CAC8B" />
			<stop offset="0.347" stop-color="#579274" />
			<stop offset="0.439" stop-color="#4B8366" />
			<stop offset="0.513" stop-color="#477E62" />
		</linearGradient>
		<linearGradient
			id="databreachlinear54"
			x1="685.234"
			y1="664.182"
			x2="685.234"
			y2="761.927"
			gradientUnits="userSpaceOnUse"
		>
			<stop offset="0.019" stop-color="#AEFFD6" />
			<stop offset="0.021" stop-color="#ADFDD5" />
			<stop offset="0.135" stop-color="#88D0AC" />
			<stop offset="0.245" stop-color="#6CAC8B" />
			<stop offset="0.347" stop-color="#579274" />
			<stop offset="0.439" stop-color="#4B8366" />
			<stop offset="0.513" stop-color="#477E62" />
		</linearGradient>
		<linearGradient
			id="databreachlinear55"
			x1="129.014"
			y1="448.122"
			x2="707.935"
			y2="879.805"
			gradientUnits="userSpaceOnUse"
		>
			<stop stop-color="#235465" />
			<stop offset="0.494792" stop-color="#8EC95F" />
			<stop offset="1" stop-color="#8E63DB" />
		</linearGradient>
		<linearGradient
			id="databreachlinear56"
			x1="86.8884"
			y1="433.376"
			x2="737.538"
			y2="918.546"
			gradientUnits="userSpaceOnUse"
		>
			<stop stop-color="#235465" />
			<stop offset="0.494792" stop-color="#8EC95F" />
			<stop offset="1" stop-color="#8E63DB" />
		</linearGradient>
		<linearGradient
			id="databreachlinear57"
			x1="44.764"
			y1="418.63"
			x2="767.143"
			y2="957.285"
			gradientUnits="userSpaceOnUse"
		>
			<stop stop-color="#235465" />
			<stop offset="0.494792" stop-color="#8EC95F" />
			<stop offset="1" stop-color="#8E63DB" />
		</linearGradient>
		<linearGradient
			id="databreachlinear58"
			x1="2.63979"
			y1="403.884"
			x2="796.746"
			y2="996.024"
			gradientUnits="userSpaceOnUse"
		>
			<stop stop-color="#235465" />
			<stop offset="0.494792" stop-color="#8EC95F" />
			<stop offset="1" stop-color="#8E63DB" />
		</linearGradient>
		<linearGradient
			id="databreachlinear59"
			x1="-39.4844"
			y1="389.138"
			x2="826.352"
			y2="1034.76"
			gradientUnits="userSpaceOnUse"
		>
			<stop stop-color="#235465" />
			<stop offset="0.494792" stop-color="#8EC95F" />
			<stop offset="1" stop-color="#8E63DB" />
		</linearGradient>
		<linearGradient
			id="databreachlinear60"
			x1="-81.6099"
			y1="374.391"
			x2="855.954"
			y2="1073.5"
			gradientUnits="userSpaceOnUse"
		>
			<stop stop-color="#235465" />
			<stop offset="0.494792" stop-color="#8EC95F" />
			<stop offset="1" stop-color="#8E63DB" />
		</linearGradient>
		<linearGradient
			id="databreachlinear61"
			x1="-123.734"
			y1="359.645"
			x2="885.558"
			y2="1112.24"
			gradientUnits="userSpaceOnUse"
		>
			<stop stop-color="#235465" />
			<stop offset="0.494792" stop-color="#8EC95F" />
			<stop offset="1" stop-color="#8E63DB" />
		</linearGradient>
		<linearGradient
			id="databreachlinear62"
			x1="-165.858"
			y1="344.9"
			x2="915.163"
			y2="1150.98"
			gradientUnits="userSpaceOnUse"
		>
			<stop stop-color="#235465" />
			<stop offset="0.494792" stop-color="#8EC95F" />
			<stop offset="1" stop-color="#8E63DB" />
		</linearGradient>
		<linearGradient
			id="databreachlinear63"
			x1="416.047"
			y1="430.942"
			x2="587.653"
			y2="480.628"
			gradientUnits="userSpaceOnUse"
		>
			<stop stop-color="#235465" />
			<stop offset="0.494792" stop-color="#8EC95F" />
			<stop offset="1" stop-color="#8E63DB" />
		</linearGradient>
		<linearGradient
			id="databreachlinear64"
			x1="414.989"
			y1="432.704"
			x2="583.064"
			y2="480.565"
			gradientUnits="userSpaceOnUse"
		>
			<stop stop-color="#235465" />
			<stop offset="0.494792" stop-color="#8EC95F" />
			<stop offset="1" stop-color="#8E63DB" />
		</linearGradient>
		<linearGradient
			id="databreachlinear65"
			x1="399.044"
			y1="450.942"
			x2="570.649"
			y2="500.628"
			gradientUnits="userSpaceOnUse"
		>
			<stop stop-color="#235465" />
			<stop offset="0.494792" stop-color="#8EC95F" />
			<stop offset="1" stop-color="#8E63DB" />
		</linearGradient>
		<linearGradient
			id="databreachlinear66"
			x1="397.986"
			y1="452.704"
			x2="566.06"
			y2="500.565"
			gradientUnits="userSpaceOnUse"
		>
			<stop stop-color="#235465" />
			<stop offset="0.494792" stop-color="#8EC95F" />
			<stop offset="1" stop-color="#8E63DB" />
		</linearGradient>
		<linearGradient
			id="databreachlinear67"
			x1="196.239"
			y1="332.723"
			x2="300.998"
			y2="332.723"
			gradientUnits="userSpaceOnUse"
		>
			<stop stop-color="#3D065F" />
			<stop offset="1" stop-color="#5F27BD" />
		</linearGradient>
		<linearGradient
			id="databreachlinear68"
			x1="128.002"
			y1="323.956"
			x2="197.333"
			y2="323.956"
			gradientUnits="userSpaceOnUse"
		>
			<stop stop-color="#3D065F" />
			<stop offset="1" stop-color="#5F27BD" />
		</linearGradient>
		<linearGradient
			id="databreachlinear69"
			x1="128"
			y1="253.677"
			x2="299.905"
			y2="253.677"
			gradientUnits="userSpaceOnUse"
		>
			<stop stop-color="#3D065F" />
			<stop offset="1" stop-color="#5F27BD" />
		</linearGradient>
		<linearGradient
			id="databreachlinear70"
			x1="586.917"
			y1="365.846"
			x2="704.998"
			y2="365.846"
			gradientUnits="userSpaceOnUse"
		>
			<stop stop-color="#3D065F" />
			<stop offset="1" stop-color="#5F27BD" />
		</linearGradient>
		<linearGradient
			id="databreachlinear71"
			x1="510.003"
			y1="355.972"
			x2="588.15"
			y2="355.972"
			gradientUnits="userSpaceOnUse"
		>
			<stop stop-color="#3D065F" />
			<stop offset="1" stop-color="#5F27BD" />
		</linearGradient>
		<linearGradient
			id="databreachlinear72"
			x1="510"
			y1="276.815"
			x2="703.766"
			y2="276.815"
			gradientUnits="userSpaceOnUse"
		>
			<stop stop-color="#3D065F" />
			<stop offset="1" stop-color="#5F27BD" />
		</linearGradient>
		<linearGradient
			id="databreachlinear73"
			x1="432.928"
			y1="164.011"
			x2="527.999"
			y2="164.011"
			gradientUnits="userSpaceOnUse"
		>
			<stop stop-color="#3D065F" />
			<stop offset="1" stop-color="#5F27BD" />
		</linearGradient>
		<linearGradient
			id="databreachlinear74"
			x1="371.002"
			y1="156.029"
			x2="433.921"
			y2="156.029"
			gradientUnits="userSpaceOnUse"
		>
			<stop stop-color="#3D065F" />
			<stop offset="1" stop-color="#5F27BD" />
		</linearGradient>
		<linearGradient
			id="databreachlinear75"
			x1="371"
			y1="92.0377"
			x2="527.007"
			y2="92.0377"
			gradientUnits="userSpaceOnUse"
		>
			<stop stop-color="#3D065F" />
			<stop offset="1" stop-color="#5F27BD" />
		</linearGradient>
		<clipPath id="databreachclip0">
			<rect width="938" height="642" fill="white" transform="translate(0 274)" />
		</clipPath>
		<clipPath id="databreachclip1">
			<rect width="105" height="183" fill="white" transform="translate(416 431)" />
		</clipPath>
		<clipPath id="databreachclip2">
			<rect width="210" height="275" fill="white" transform="translate(125)" />
		</clipPath>
		<clipPath id="databreachclip3">
			<rect width="99" height="128" fill="white" transform="translate(606.357 33.3884) rotate(24.0337)" />
		</clipPath>
	</defs>
</svg>
