<svg width="15" height="18" viewBox="0 0 15 18" fill="none" xmlns="http://www.w3.org/2000/svg">
<path fill-rule="evenodd" clip-rule="evenodd" d="M3.09752 2.86211L2.92718 2.24939L2.92636 2.2498H1.65378C0.74042 2.2498 0 2.99022 0 3.90358V16.3462C-2.18026e-06 17.2595 0.74042 17.9999 1.65378 17.9999H13.3472C14.2606 17.9999 15.001 17.2595 15.001 16.3462V3.90316C15.001 2.98981 14.2606 2.24939 13.3472 2.24939H12.0738L11.9039 2.86211C11.6523 3.76818 10.8274 4.39525 9.88709 4.39516H5.1143C4.17398 4.39525 3.34904 3.76818 3.09752 2.86211ZM5.21553 3.00065L5.15062 2.99817C4.80517 2.97094 4.51346 2.73123 4.41964 2.39788L4.44528 2.48963C4.52908 2.79168 4.80409 3.00072 5.11754 3.00065H5.21553ZM10.5838 2.39495L10.5578 2.49005C10.4738 2.79193 10.1989 3.00078 9.88551 3.00065H9.78791C10.1352 3.00048 10.4454 2.78331 10.5644 2.45697L10.5838 2.39495ZM8.27345 9.55741H3.10991C2.6514 9.55741 2.27966 9.18567 2.27966 8.72716C2.27966 8.26865 2.6514 7.89691 3.10991 7.89691H8.27366C8.73217 7.89691 9.10391 8.26865 9.10391 8.72716C9.10391 9.18567 8.73217 9.55741 8.27345 9.55741ZM6.24076 13.9696H3.10686C2.64835 13.9696 2.27661 13.5978 2.27661 13.1393C2.27661 12.6808 2.64835 12.3091 3.10686 12.3091H6.24098C6.69949 12.3091 7.07123 12.6808 7.07123 13.1393C7.07123 13.5978 6.69949 13.9696 6.24076 13.9696Z" fill="#2A54FF"/>
<path d="M4.84097 6.10352e-05H10.1649V6.10352e-05C10.6216 8.74731e-05 10.9917 0.370319 10.9917 0.826997C10.9917 0.901735 10.9816 0.976127 10.9616 1.04814L10.5874 2.39432C10.4881 2.75225 10.1622 2.99999 9.79071 3.00001H5.21472C4.84325 2.99999 4.51738 2.75225 4.41801 2.39432L4.04426 1.04814H4.04426C3.9221 0.608106 4.17979 0.152355 4.61982 0.0301947C4.69183 0.0102023 4.76623 6.5538e-05 4.84097 6.11775e-05L4.84097 6.10352e-05Z" fill="#2A54FF"/>
</svg>
