<svg xmlns="http://www.w3.org/2000/svg" width="40" height="24" viewBox="0 0 40 24">
  <g id="bank" transform="translate(-82.8 -156)">
    <rect id="矩形_311" data-name="矩形 311" width="40" height="24" transform="translate(82.8 156)" fill="none"/>
    <path id="路径_722" data-name="路径 722" d="M68.267,137.335a.8.8,0,0,1,.8-.8h8.817a.8.8,0,0,1,.8.8v1.4a.2.2,0,0,1-.2.2H68.467a.2.2,0,0,1-.2-.2Z" transform="translate(21.399 26.843)" fill="#fa4"/>
    <path id="路径_723" data-name="路径 723" d="M68.267,375.667a.2.2,0,0,1,.2-.2H78.486a.2.2,0,0,1,.2.2v5.009a.8.8,0,0,1-.8.8H69.068a.8.8,0,0,1-.8-.8Z" transform="translate(21.399 -209.285)" fill="#1a6"/>
    <path id="路径_724" data-name="路径 724" d="M546.133,683.067a.4.4,0,0,1,.4-.4h2.4a.4.4,0,1,1,0,.8h-2.4A.4.4,0,0,1,546.133,683.067Z" transform="translate(-450.857 -512.878)" fill="#fa4"/>
    <path id="路径_725" data-name="路径 725" d="M2.669-2.489a.991.991,0,0,0,.894-1.017c0-.841-.623-1.176-1.558-1.176H.475V-.1H2.1C3.081-.1,3.775-.5,3.775-1.436c0-.723-.529-.982-1.106-1.023ZM1.893-3.918a.538.538,0,0,1,.612.565.546.546,0,0,1-.612.576H1.5V-3.918ZM1.5-.889V-2.012h.576c.388,0,.647.182.647.553,0,.423-.259.57-.653.57ZM7.08-2.306c0-.759-.518-1.2-1.359-1.2A1.321,1.321,0,0,0,4.3-2.465l.853.159c.065-.376.218-.547.494-.547s.423.188.423.594v.2A2.831,2.831,0,0,0,5.6-2.1c-.888,0-1.447.371-1.447,1.064,0,.629.423,1,1.117,1a1.042,1.042,0,0,0,.941-.441c.082.253.259.382.641.382a1.389,1.389,0,0,0,.535-.094V-.895a.225.225,0,0,1-.082.006c-.153,0-.229-.1-.229-.312ZM5.562-.713a.358.358,0,0,1-.406-.347c0-.253.194-.4.5-.4a1.775,1.775,0,0,1,.418.047C6.074-.924,5.9-.713,5.562-.713ZM8.738-2.995v-.453H7.8V-.1h1V-2.154c0-.435.223-.612.512-.612.323,0,.465.159.465.612V-.1h1v-2.27A1.014,1.014,0,0,0,9.714-3.506a1.037,1.037,0,0,0-.964.512ZM14.7-3.447H13.49l-.547.729a4.393,4.393,0,0,0-.518.835H12.4a3.574,3.574,0,0,0,.088-.841V-4.8h-1V-.1h1V-1.118l.247-.259L13.5-.1h1.2L13.39-2.071ZM2.851,4.175c-.094.647-.294.906-.706.906-.482,0-.788-.676-.788-1.629,0-.994.276-1.547.753-1.547.429,0,.653.288.712.935l1.094-.247A1.632,1.632,0,0,0,2.169,1.14C.981,1.14.24,2.04.24,3.492c0,1.558.676,2.352,1.982,2.352A1.692,1.692,0,0,0,3.98,4.316Zm4.4-.6c0-.759-.518-1.2-1.359-1.2A1.321,1.321,0,0,0,4.48,3.416l.853.159c.065-.376.218-.547.494-.547s.423.188.423.594v.2a2.831,2.831,0,0,0-.47-.041c-.888,0-1.447.371-1.447,1.064,0,.629.423,1,1.117,1A1.042,1.042,0,0,0,6.392,5.4c.082.253.259.382.641.382a1.389,1.389,0,0,0,.535-.094V4.986a.225.225,0,0,1-.082.006c-.153,0-.229-.1-.229-.312ZM5.739,5.168a.358.358,0,0,1-.406-.347c0-.253.194-.4.5-.4a1.775,1.775,0,0,1,.418.047C6.25,4.957,6.08,5.168,5.739,5.168ZM8.791,3.316V2.434H7.98V5.786H8.985V3.975c0-.67.259-.782.694-.782a1.525,1.525,0,0,1,.282.024V2.381a1.525,1.525,0,0,0-.282-.024c-.47,0-.765.323-.859.959ZM12.32,1.081V1.84a3.758,3.758,0,0,0,.065.912h-.018a1,1,0,0,0-.817-.376A1.53,1.53,0,0,0,10.138,4.1c0,1.129.476,1.747,1.353,1.747a1.062,1.062,0,0,0,.865-.423h.024a1.746,1.746,0,0,0-.029.329v.035h.97v-4.7Zm-.535,4.034c-.394,0-.629-.376-.629-1.017,0-.623.229-1.006.6-1.006.412,0,.612.323.612,1C12.367,4.745,12.155,5.116,11.785,5.116Z" transform="translate(102.198 167.477)" fill="#fff"/>
  </g>
</svg>
