<svg xmlns="http://www.w3.org/2000/svg" width="40" height="24" viewBox="0 0 40 24">
  <g id="samsung" transform="translate(-36 -156)">
    <rect id="矩形_310" data-name="矩形 310" width="40" height="24" transform="translate(36 156)" fill="none"/>
    <path id="路径_703" data-name="路径 703" d="M51.043,167.431a2.206,2.206,0,0,0-1.977.462c-.033.03-.046.1-.118.071-.045-.143.025-.3-.045-.439H47.722c-.038.209-.037,7.438,0,7.635h1.2v-2.578a2.463,2.463,0,0,0,2.376.512,2.933,2.933,0,0,0-.251-5.663Zm.715,3.993a1.573,1.573,0,0,1-1.726.618,1.431,1.431,0,0,1-1.127-1.224,2.169,2.169,0,0,1-.051-.47,1.89,1.89,0,0,1,.412-1.357,1.624,1.624,0,0,1,2.447.077A2.085,2.085,0,0,1,51.758,171.424Zm6.69-3.429a2.215,2.215,0,0,0-2.169-.545,2.907,2.907,0,0,0-2.108,3.659,2.76,2.76,0,0,0,3.452,1.972,2.03,2.03,0,0,0,.871-.526v.524H59.69v-5.548H58.47C58.463,167.689,58.456,167.826,58.449,167.995Zm.1,2.289a1.8,1.8,0,0,1-.522,1.423,1.546,1.546,0,0,1-1.656.277,1.564,1.564,0,0,1-1.034-1.328,1.85,1.85,0,0,1,.669-1.88,1.549,1.549,0,0,1,1.635-.153,1.581,1.581,0,0,1,.906,1.416C58.551,170.119,58.544,170.2,58.544,170.284Zm4.893,1.139-1.684-3.9H60.445l2.377,5.221-1.034,2.413h1.285l3.235-7.636H64.993Zm-8.64-8.912.045,0v2.508h.74c-.022-.98-.044-1.946-.067-2.918H54.323c-.118.732-.235,1.454-.352,2.177h-.027l-.348-2.173H52.4c-.022.975-.044,1.942-.066,2.916h.748V162.5h.032q.236,1.266.471,2.529h.744C54.488,164.183,54.642,163.346,54.8,162.511Zm7.815.141L63.32,165h1.036v-2.886h-.7v2.205l-.014,0L63,162.1H61.921V165h.691ZM61.1,164.269c0-.492,0-.984,0-1.476v-.681h-.738v.609c0,.516,0,1.03,0,1.546a.287.287,0,0,1-.4.3c-.142-.054-.166-.171-.166-.3q0-1,0-2c0-.049.017-.1-.022-.153h-.722c0,.287,0,.56,0,.833,0,.482,0,.965.014,1.447a.684.684,0,0,0,.565.682,1.727,1.727,0,0,0,.809.019A.739.739,0,0,0,61.1,164.269Zm6.1-.882H66.159a2.823,2.823,0,0,0,.012.431h.284a2.883,2.883,0,0,1-.013.535.267.267,0,0,1-.317.2c-.151-.011-.265-.1-.266-.231-.006-.506-.007-1.012,0-1.518a.294.294,0,0,1,.585,0c.008.072-.02.149.025.213h.7a.772.772,0,0,0-.661-.972,1.769,1.769,0,0,0-.728.006.732.732,0,0,0-.651.733,14.652,14.652,0,0,0,0,1.543.7.7,0,0,0,.535.683,1.576,1.576,0,0,0,1.02-.012.669.669,0,0,0,.484-.541A8.247,8.247,0,0,0,67.2,163.387ZM48.239,165.11a.72.72,0,0,0,.634-.543.888.888,0,0,0-.275-1.006,3.551,3.551,0,0,0-.446-.277,1.922,1.922,0,0,1-.5-.318.292.292,0,0,1-.04-.347.261.261,0,0,1,.3-.1.244.244,0,0,1,.193.254c0,.059-.016.12.02.181h.7a.7.7,0,0,0-.537-.9,1.749,1.749,0,0,0-.9.011.713.713,0,0,0-.56.661.8.8,0,0,0,.4.824c.209.134.43.252.643.38a.727.727,0,0,1,.26.225.338.338,0,0,1-.018.367.306.306,0,0,1-.345.074.245.245,0,0,1-.175-.267.675.675,0,0,0-.02-.251H46.8c0,.087,0,.16,0,.234a.743.743,0,0,0,.576.77A1.75,1.75,0,0,0,48.239,165.11Zm2.129-1.377q.1-.645.193-1.289l.032,0q.189,1.29.378,2.579h.79l-.537-2.917H49.917c-.179.975-.357,1.943-.536,2.92h.79C50.237,164.592,50.3,164.162,50.368,163.733Zm6.577,1.359a1.8,1.8,0,0,0,.782,0,.712.712,0,0,0,.621-.557.884.884,0,0,0-.284-.979,5.05,5.05,0,0,0-.618-.368,1.092,1.092,0,0,1-.327-.23.268.268,0,0,1-.03-.324.254.254,0,0,1,.3-.108.226.226,0,0,1,.191.238.443.443,0,0,0,.017.182h.694c.062-.533-.138-.817-.635-.9a1.8,1.8,0,0,0-.782.032.7.7,0,0,0-.544.534.8.8,0,0,0,.339.913c.209.154.444.264.665.4a.893.893,0,0,1,.243.2.339.339,0,0,1,.02.366.29.29,0,0,1-.335.1.251.251,0,0,1-.2-.266.923.923,0,0,0-.016-.254H56.3A.807.807,0,0,0,56.944,165.092Z" transform="translate(-0.424)" fill="#a3b9ff"/>
  </g>
</svg>
