<svg xmlns="http://www.w3.org/2000/svg" viewBox="0 0 512 512">
  <g id="孟加拉" transform="translate(-13460 -1274)">
    <path id="路径_3302" data-name="路径 3302" d="M256,0A256.022,256.022,0,1,1,74.987,74.987,255.215,255.215,0,0,1,256,0Z" transform="translate(13460 1274)" fill="#dcebff"/>
    <path id="路径_3303" data-name="路径 3303" d="M256,19.6A236.41,236.41,0,1,1,88.839,88.839,235.682,235.682,0,0,1,256,19.6Z" transform="translate(13460 1274)" fill="#fff"/>
    <path id="路径_3307" data-name="路径 3307" d="M.021,215c0,118.741,96.259,215,215,215s215-96.259,215-215S333.763,0,215.021,0,.021,96.259.021,215Z" transform="translate(13500.979 1315)" fill="#097d63"/>
    <path id="路径_3308" data-name="路径 3308" d="M216.64,340.656A124.042,124.042,0,1,0,340.686,216.619,124.084,124.084,0,0,0,216.64,340.656Z" transform="translate(13375.319 1189.344)" fill="#d54752"/>
  </g>
</svg>
