<svg xmlns="http://www.w3.org/2000/svg" viewBox="0 0 512 512">
  <g id="埃及" transform="translate(-14174 -1901)">
    <path id="路径_3302" data-name="路径 3302" d="M256,0A256.022,256.022,0,1,1,74.987,74.987,255.215,255.215,0,0,1,256,0Z" transform="translate(14174 1901)" fill="#dcebff"/>
    <path id="路径_3303" data-name="路径 3303" d="M256,19.6A236.41,236.41,0,1,1,88.839,88.839,235.682,235.682,0,0,1,256,19.6Z" transform="translate(14174 1901)" fill="#fff"/>
    <path id="路径_3309" data-name="路径 3309" d="M237.261,25.041c118.739,0,215,96.262,215,215,0,118.719-96.262,214.981-215,214.981-118.758,0-215-96.262-215-215,0-118.719,96.242-215,215-215Z" transform="translate(14192.739 1916.971)" fill="#f0f0f0"/>
    <path id="路径_3310" data-name="路径 3310" d="M254.345,25.041A215.038,215.038,0,0,0,52.714,165.26H455.956C425.582,83.365,346.795,25.021,254.345,25.021Z" transform="translate(14175.655 1916.971)" fill="#d80027"/>
    <path id="路径_3311" data-name="路径 3311" d="M254.37,825.36c92.45,0,171.238-58.363,201.612-140.219H52.758A215.025,215.025,0,0,0,254.37,825.36Z" transform="translate(14175.631 1546.65)"/>
    <path id="路径_3312" data-name="路径 3312" d="M491.222,436.563h-56.1a18.7,18.7,0,1,0-37.371,0h-56.1c0,10.32,8.991,18.685,19.311,18.685h-.626a18.706,18.706,0,0,0,18.705,18.705,18.689,18.689,0,0,0,18.705,18.685h37.39a18.685,18.685,0,0,0,18.685-18.685,18.7,18.7,0,0,0,18.685-18.705h-.606c10.32,0,19.311-8.365,19.311-18.685Z" transform="translate(14013.56 1697.073)" fill="#ff9811"/>
  </g>
</svg>
