<svg xmlns="http://www.w3.org/2000/svg" viewBox="0 0 512 512">
  <g id="土耳其" transform="translate(-13460 -1901)">
    <path id="路径_3302" data-name="路径 3302" d="M256,0A256.022,256.022,0,1,1,74.987,74.987,255.215,255.215,0,0,1,256,0Z" transform="translate(13460 1901)" fill="#dcebff"/>
    <path id="路径_3303" data-name="路径 3303" d="M256,19.6A236.41,236.41,0,1,1,88.839,88.839,235.682,235.682,0,0,1,256,19.6Z" transform="translate(13460 1901)" fill="#fff"/>
    <path id="路径_3313" data-name="路径 3313" d="M0,215C0,333.741,96.259,430,215,430s215-96.259,215-215S333.741,0,215,0,0,96.259,0,215Z" transform="translate(13501 1944)" fill="#e30a17"/>
    <path id="路径_3314" data-name="路径 3314" d="M397.52,287.443a97.366,97.366,0,1,0-.014,129.617,116.181,116.181,0,0,1-96.808,51.9c-64.285,0-116.38-52.259-116.38-116.724s52.1-116.716,116.387-116.716a116.156,116.156,0,0,1,96.808,51.922Zm76.726,94.493L442.6,369.652,421.17,397.293l2.043-34.8-32.666-12.284,33.683-9.216,1.025-33.784,19.386,28.667,32.666-9.224-21.428,26.617,18.368,28.667Z" transform="translate(13394.081 1807.38)" fill="#fff"/>
  </g>
</svg>
