<?xml version="1.0" encoding="UTF-8"?>
<!DOCTYPE svg PUBLIC "-//W3C//DTD SVG 1.1//EN" "http://www.w3.org/Graphics/SVG/1.1/DTD/svg11.dtd">
<svg xmlns="http://www.w3.org/2000/svg" version="1.1" width="384px" height="384px" style="shape-rendering:geometricPrecision; text-rendering:geometricPrecision; image-rendering:optimizeQuality; fill-rule:evenodd; clip-rule:evenodd" xmlns:xlink="http://www.w3.org/1999/xlink">
<g><path style="opacity:0.995" fill="#00722f" d="M 171.5,-0.5 C 184.833,-0.5 198.167,-0.5 211.5,-0.5C 282.825,9.85112 334.492,47.1844 366.5,111.5C 274.833,111.5 183.167,111.5 91.5,111.5C 91.5,83.5 91.5,55.5 91.5,27.5C 116.156,12.3925 142.823,3.05918 171.5,-0.5 Z"/></g>
<g><path style="opacity:0.991" fill="#fe0000" d="M 91.5,27.5 C 91.5,55.5 91.5,83.5 91.5,111.5C 91.5,164.833 91.5,218.167 91.5,271.5C 91.5,299.5 91.5,327.5 91.5,355.5C 47.4448,328.475 18.6115,289.808 5,239.5C 2.8248,230.091 0.99147,220.758 -0.5,211.5C -0.5,198.167 -0.5,184.833 -0.5,171.5C 7.12236,114.09 34.1224,68.2562 80.5,34C 84.0709,31.5794 87.7375,29.4127 91.5,27.5 Z"/></g>
<g><path style="opacity:0.998" fill="#fefffe" d="M 91.5,111.5 C 183.167,111.5 274.833,111.5 366.5,111.5C 375.043,130.783 380.71,150.783 383.5,171.5C 383.5,184.833 383.5,198.167 383.5,211.5C 380.71,232.217 375.043,252.217 366.5,271.5C 274.833,271.5 183.167,271.5 91.5,271.5C 91.5,218.167 91.5,164.833 91.5,111.5 Z"/></g>
<g><path style="opacity:0.994" fill="#000000" d="M 91.5,271.5 C 183.167,271.5 274.833,271.5 366.5,271.5C 334.492,335.816 282.825,373.149 211.5,383.5C 198.167,383.5 184.833,383.5 171.5,383.5C 142.823,379.941 116.156,370.607 91.5,355.5C 91.5,327.5 91.5,299.5 91.5,271.5 Z"/></g>
</svg>
