<svg xmlns="http://www.w3.org/2000/svg" xmlns:xlink="http://www.w3.org/1999/xlink" width="512" height="512" viewBox="0 0 512 512">
  <defs>
    <clipPath id="clip-path">
      <rect id="矩形_1114" data-name="矩形 1114" width="194.82" height="273.918" fill="#fff"/>
    </clipPath>
  </defs>
  <g id="孟加拉" transform="translate(-14174 -1274)">
    <path id="路径_3302" data-name="路径 3302" d="M256,0A256.022,256.022,0,1,1,74.987,74.987,255.215,255.215,0,0,1,256,0Z" transform="translate(14174 1274)" fill="#097d63"/>
    <g id="组_1598" data-name="组 1598" transform="translate(14332.59 1393.041)">
      <g id="组_1597" data-name="组 1597" clip-path="url(#clip-path)">
        <path id="路径_3318" data-name="路径 3318" d="M46.793,88.132H3.053V69.709H47.562c-.9-8.762-1.086-16.9-2.736-24.732-1.644-7.8-7.842-12.18-16.437-12.539-5.561-.232-11.167.512-16.749.887-2.2.148-4.4.485-6.877.768C3.175,23.548,1.638,13.349,0,2.48,7.626,1.727,15.065.732,22.536.314,34.6-.36,46.61-.219,58.343,3.5,76.412,9.239,85.884,22.054,88.46,40.227c1.037,7.318.814,14.816,1.116,22.235.09,2.2.014,4.412.014,7.052h76.849V87.9c-1.434.089-3.036.274-4.638.275-22.591.019-45.183.079-67.774-.059-3.424-.021-4.53.848-4.516,4.421.131,34.235-.064,68.473.162,102.707.067,10.065.777,20.176,4.824,29.687,3.8,8.926,10.043,14.892,19.937,15.972,10.906,1.191,20.692-1.558,26.744-11.28a58.118,58.118,0,0,0,7.267-17.7c3.547-15.86,4.219-31.924.063-47.863-3.794-14.551-13.915-22.126-28.144-24.97-3.42-.684-6.874-1.2-10.837-1.88,2.579-7.191,5.1-14.089,7.528-21.023,3.937-11.271,4.183-11.223,15.893-8.83,21.145,4.32,36.735,16.393,48.925,33.7,8.788,12.479,12.816,26.251,12.939,41.419.147,18.156-1.782,35.925-10.192,52.3-12.954,25.224-34.075,37.81-62.209,39.012-13.767.589-27.242-.879-39.748-7.037-17.617-8.674-28.307-23.183-32.731-42a120.261,120.261,0,0,1-3-26.208c-.329-35.075-.14-70.154-.143-105.232V88.132" transform="translate(0 0)" fill="#fff"/>
      </g>
    </g>
  </g>
</svg>
