<svg xmlns="http://www.w3.org/2000/svg" width="512" height="512" viewBox="0 0 512 512">
  <g id="埃及" transform="translate(-14174 -1274)">
    <path id="路径_3302" data-name="路径 3302" d="M256,0A256.022,256.022,0,1,1,74.987,74.987,255.215,255.215,0,0,1,256,0Z" transform="translate(14174 1274)" fill="#ff9811"/>
    <path id="路径_3319" data-name="路径 3319" d="M374.614,568.837H221.221V544.582q29.3-28.581,29.3-62.8a106.585,106.585,0,0,0-1.245-16.519,157.321,157.321,0,0,0-3.474-16.126H207.258V425.276h31.924c-1.967-7.08-3.671-13.963-5.179-20.584a90.265,90.265,0,0,1-2.163-19.666,70.141,70.141,0,0,1,23.14-55.851q22.812-19.862,64.569-19.928a209.309,209.309,0,0,1,46.28,5.506v25.959a175.8,175.8,0,0,0-23.337-4c-7.473-.721-14.749-1.114-21.829-1.114-19.076,0-32.776,4.2-42.019,12.455a47.4,47.4,0,0,0-13.438,36.382,115.965,115.965,0,0,0,1.9,21.108,176.983,176.983,0,0,0,4.72,19.666H338.3v23.861H277.792a112.56,112.56,0,0,1,2.753,15.4A136.482,136.482,0,0,1,281.463,481a81.033,81.033,0,0,1-5.509,29.375,132.745,132.745,0,0,1-16.123,29.36H374.614Z" transform="translate(14137.063 1089.958)" fill="#fff"/>
  </g>
</svg>
