<svg xmlns="http://www.w3.org/2000/svg" width="512" height="512" viewBox="0 0 512 512">
  <g id="土耳其" transform="translate(-14174 -1274)">
    <path id="路径_3302" data-name="路径 3302" d="M256,0A256.022,256.022,0,1,1,74.987,74.987,255.215,255.215,0,0,1,256,0Z" transform="translate(14174 1274)" fill="#e30a17"/>
    <path id="支付_货币_土耳其里拉" d="M317.868,135.208a12.044,12.044,0,0,0-12.119,12.119,105.619,105.619,0,0,1-93.313,104.739V135.035l73.4-22.852A12.27,12.27,0,0,0,293.8,96.948a12.13,12.13,0,0,0-15.235-7.964l-65.959,20.6V79.117l73.4-22.852a12.27,12.27,0,0,0,7.964-15.235,12.13,12.13,0,0,0-15.235-7.964L212.61,53.841V12.119a12.119,12.119,0,1,0-24.237,0V61.285L124.318,81.367A12.27,12.27,0,0,0,116.354,96.6a12.048,12.048,0,0,0,11.6,8.483,13.179,13.179,0,0,0,3.636-.519l56.784-17.832V117.2l-64.055,19.909a12.27,12.27,0,0,0-7.964,15.235,12.048,12.048,0,0,0,11.6,8.483,13.179,13.179,0,0,0,3.636-.519l56.784-17.832v122.4A12.044,12.044,0,0,0,200.492,277,129.815,129.815,0,0,0,330.16,147.327a12.419,12.419,0,0,0-12.292-12.119Z" transform="translate(14207.004 1391.502)" fill="#fff" stroke="#fff" stroke-width="3"/>
  </g>
</svg>
