<?xml version="1.0" encoding="UTF-8"?>
<!DOCTYPE svg PUBLIC "-//W3C//DTD SVG 1.1//EN" "http://www.w3.org/Graphics/SVG/1.1/DTD/svg11.dtd">
<svg xmlns="http://www.w3.org/2000/svg" version="1.1" width="384px" height="384px" style="shape-rendering:geometricPrecision; text-rendering:geometricPrecision; image-rendering:optimizeQuality; fill-rule:evenodd; clip-rule:evenodd" xmlns:xlink="http://www.w3.org/1999/xlink">
<g><path style="opacity:0.995" fill="#ec0114" d="M 171.5,-0.5 C 184.833,-0.5 198.167,-0.5 211.5,-0.5C 284.071,10.19 336.238,48.5233 368,114.5C 375.761,132.928 380.928,151.928 383.5,171.5C 383.5,184.833 383.5,198.167 383.5,211.5C 372.81,284.071 334.477,336.238 268.5,368C 250.072,375.761 231.072,380.928 211.5,383.5C 198.167,383.5 184.833,383.5 171.5,383.5C 98.9288,372.81 46.7622,334.477 15,268.5C 7.2388,250.072 2.07213,231.072 -0.5,211.5C -0.5,198.167 -0.5,184.833 -0.5,171.5C 10.19,98.9288 48.5233,46.7622 114.5,15C 132.928,7.2388 151.928,2.07213 171.5,-0.5 Z"/></g>
<g><path style="opacity:1" fill="#fefe00" d="M 227.5,141.5 C 261.167,142.167 294.833,142.833 328.5,143.5C 301.029,164.146 274.029,185.313 247.5,207C 258.309,240.418 268.476,273.918 278,307.5C 250.411,287.289 222.911,266.955 195.5,246.5C 167.858,266.974 140.358,287.641 113,308.5C 122.092,274.714 131.925,241.047 142.5,207.5C 115.311,185.488 87.644,163.988 59.5,143C 93.8382,142.833 128.172,142.333 162.5,141.5C 172.85,107.951 183.683,74.6179 195,41.5C 205.57,75.0401 216.403,108.373 227.5,141.5 Z"/></g>
<g><path style="opacity:1" fill="#f8a407" d="M 227.5,141.5 C 261.507,141.167 295.507,141.5 329.5,142.5C 329.376,143.107 329.043,143.44 328.5,143.5C 294.833,142.833 261.167,142.167 227.5,141.5 Z"/></g>
</svg>
