<svg xmlns="http://www.w3.org/2000/svg" width="512" height="512" viewBox="0 0 512 512">
  <g id="俄罗斯" transform="translate(-14174 -1274)">
    <path id="路径_3302" data-name="路径 3302" d="M256,0A256.022,256.022,0,1,1,74.987,74.987,255.215,255.215,0,0,1,256,0Z" transform="translate(14174 1274)" fill="#dcebff"/>
    <path id="路径_3303" data-name="路径 3303" d="M256,19.6A236.41,236.41,0,1,1,88.839,88.839,235.682,235.682,0,0,1,256,19.6Z" transform="translate(14174 1274)" fill="#fff"/>
    <path id="路径_3315" data-name="路径 3315" d="M215.007,0C333.738,0,430,96.248,430,214.993c0,118.731-96.262,214.993-214.993,214.993C96.261,429.986,0,333.724,0,214.993,0,96.248,96.261,0,215.007,0" transform="translate(14215 1315.007)" fill="#f0f0f0"/>
    <path id="路径_3316" data-name="路径 3316" d="M416.631,482.361a215.824,215.824,0,0,0,0-149.559H13.382a215.626,215.626,0,0,0,0,149.559l201.61,18.692Z" transform="translate(14215 1122.418)" fill="#0a4fa2"/>
    <path id="路径_3317" data-name="路径 3317" d="M233.388,828c92.427,0,171.244-58.336,201.624-140.214H31.763A215.038,215.038,0,0,0,233.388,828" transform="translate(14196.619 916.993)" fill="#cb1428"/>
  </g>
</svg>
